<mxfile host="app.diagrams.net" modified="2023-03-31T16:36:30.493Z" agent="Mozilla/5.0 (Macintosh; Intel Mac OS X 10_15_7) AppleWebKit/537.36 (KHTML, like Gecko) Chrome/111.0.0.0 Safari/537.36" etag="JBuQQ3nMPJd-V5r8i2NS" version="21.1.2" type="github">
  <diagram name="Page-1" id="K4axf86d3mopCfinCMjC">
    <mxGraphModel dx="2206" dy="1235" grid="1" gridSize="10" guides="1" tooltips="1" connect="1" arrows="1" fold="1" page="1" pageScale="1" pageWidth="1654" pageHeight="1169" math="0" shadow="0">
      <root>
        <mxCell id="0" />
        <mxCell id="1" parent="0" />
        <mxCell id="9UIbFYWhF634vm1xN3ZN-2" value="" style="shape=image;verticalLabelPosition=bottom;labelBackgroundColor=default;verticalAlign=top;aspect=fixed;imageAspect=0;image=data:image/png,iVBORw0KGgoAAAANSUhEUgAAAWQAAALfCAYAAABW/rgLAAABR2lDQ1BJQ0MgUHJvZmlsZQAAKJFjYGASSSwoyGFhYGDIzSspCnJ3UoiIjFJgf87AzCDPwMVgwmCUmFxc4BgQ4ANUwgCjUcG3awyMIPqyLsisN/9m2HzUyJa3nngi9YWddiamehTAlZJanAyk/wBxWnJBUQkDA2MKkK1cXlIAYncA2SJFQEcB2XNA7HQIewOInQRhHwGrCQlyBrJvANkCyRmJQDMYXwDZOklI4ulIbKi9IMDj4urjoxBsZGJo6kHAuaSDktSKEhDtnF9QWZSZnlGi4AgMpVQFz7xkPR0FIwMjYwYGUJhDVH8OAoclo9g+hFj+EgYGi28MDMwTEWJJUxgYtrcxMEjcQoipzGNg4G9hYNh2qCCxKBHuAMZvLMVpxkYQNo89AwPr3f//P2swMLBPZGD4O/H//9+L////uxho/m0GhgOVAHeWYP7J/sz0AAAAYmVYSWZNTQAqAAAACAACARIAAwAAAAEAAQAAh2kABAAAAAEAAAAmAAAAAAADkoYABwAAABIAAABQoAIABAAAAAEAAAFkoAMABAAAAAEAAALfAAAAAEFTQ0lJAAAAU2NyZWVuc2hvdMmjf5sAAAI9aVRYdFhNTDpjb20uYWRvYmUueG1wAAAAAAA8eDp4bXBtZXRhIHhtbG5zOng9ImFkb2JlOm5zOm1ldGEvIiB4OnhtcHRrPSJYTVAgQ29yZSA2LjAuMCI+CiAgIDxyZGY6UkRGIHhtbG5zOnJkZj0iaHR0cDovL3d3dy53My5vcmcvMTk5OS8wMi8yMi1yZGYtc3ludGF4LW5zIyI+CiAgICAgIDxyZGY6RGVzY3JpcHRpb24gcmRmOmFib3V0PSIiCiAgICAgICAgICAgIHhtbG5zOmV4aWY9Imh0dHA6Ly9ucy5hZG9iZS5jb20vZXhpZi8xLjAvIgogICAgICAgICAgICB4bWxuczp0aWZmPSJodHRwOi8vbnMuYWRvYmUuY29tL3RpZmYvMS4wLyI+CiAgICAgICAgIDxleGlmOlBpeGVsWURpbWVuc2lvbj43MzU8L2V4aWY6UGl4ZWxZRGltZW5zaW9uPgogICAgICAgICA8ZXhpZjpVc2VyQ29tbWVudD5TY3JlZW5zaG90PC9leGlmOlVzZXJDb21tZW50PgogICAgICAgICA8ZXhpZjpQaXhlbFhEaW1lbnNpb24+MzU2PC9leGlmOlBpeGVsWERpbWVuc2lvbj4KICAgICAgICAgPHRpZmY6T3JpZW50YXRpb24+MTwvdGlmZjpPcmllbnRhdGlvbj4KICAgICAgPC9yZGY6RGVzY3JpcHRpb24+CiAgIDwvcmRmOlJERj4KPC94OnhtcG1ldGE+CsUQGu4AAEAASURBVHgB7H0HfFvV9f+RPOJ4xfHMTpy9915kAYEQAoRdoKWUllLaH12/tv/S/mgLLaW0dNBSKNCyy04ISQgJEEL23jtxluN4xHvbkv7ne+UnPz1LsiRLsmyf8/nI77273r1fyd933rnnnmvKzBxgIzdiMrnJkGRBQBAQBAQBnxCwuWXaxmYiu2ekNV7pzjb99zHdlZwKAoKAICAItBSBGbc/4rEJs8dcyRQEBAFBQBAIGQJCyCGDWm4kCAgCgoBnBISQPeMjuYKAICAIhAwBIeSQQS03EgQEAUHAMwJCyJ7xkVxBQBAQBEKGgBByyKCWGwkCgoAg4BkBIWTP+EiuICAICAIhQ0AIOWRQy40EAUFAEPCMgBCyZ3wkVxAQBASBkCEghBwyqOVGgoAgIAh4RkAI2TM+kisICAKCQMgQiAzZnUJ8IytH8rBZbYQASWazPHdCDL/cThAQBPxAoF0ScnVNLW3bf4zKKqqZlC20aM4UJmUJXefH70OqCAKCQAgRaHeqY1lFJa3csIP2Xiiny5RC207kU9b5nBBCKrcSBAQBQcA/BNoVIYOMl326lQrq4ui662+lRYuup6W33EmvLl9LNm+CkfqHodQSBAQBQSAgCLQbQoaZ4rm311BdXE9atPhm6pLYRQF04OB+OnI6mwqLSwMCmDQiCAgCgkCwEGjzhAzN93JRKT302LM0aNwcuv76pRQTE0P19fW04qNl9M7by2jMhKtp2bpNwcJQ2hUEBAFBICAItOlJPZDxwRNn6N8rNtKDD/+c+vTpp0Cpqq6itZ+sofXrt9CNN3yVzp8/TZcul1O9xUKREREBAU4aEQQEAUEg0Ai0aQ353MU8Wrn5MN37ze85yLimpoa++GI97dp9kGZMv1LhBQ8LeFtUVtWQF9taBRpjaU8QEAQEAa8QaLOEDJvxpr3HaNSEGZSe1k0N1mq1MhHvoG3bdtPQweMoKiqaLKwV19eUUGl5Ob3wzmo2b5S4BKakrIL2Hz1JaFdEEBAEBIHWQKBNEjJMFbsOHqeC6igaOWosRTSYIU5nnaLly1fRgMxRFBeXoPCsra2mVWtX0qVSE53ON9PHG3eThYkbAgKHGSM7r4B++9Q/aPdzf6Of/eJJ+nzLLpWuCskfQUAQEARChECbtCEXFpfRgTOX6Yr5S5h44xVU1Ww3fuaZv9PE8XMoMTHJAV9lZQWfR9DkyVdRp06d6YM1b1O/HqnUIy2Vfv70S5SdW0DxVcX0cEoFZXYy0aiqS/T5v7Lo/IWb6LYlXCc6ytGWnAgCgoAgEEwE2iQh7zh0giqoM/Xs2UthA4+KZ59/lvr0GsJknOyEV2FhLt12y9cpNtZO3IuuvYN+9ue/KKK94fq76NyFM5S0623qFlVBkbyYL5kRWRJRTu+/+x96pbKc7r79Borp1MmpTbkQBAQBQSAYCLQ5k0VuQSGt2nqc7r7rqwoPmC/WrltDWacu0sCBI5pgNGjQKEpOTndK/9o936U7bv82xcYl0tAho+hs/7n0UUU8ldTbp/xAzDenmWj/8vcp51KBU125EAQEAUEgWAi0KUK2WKz0t9eW8eq7Ozg2hd197ciRQ7Ru3Rc0f+5irzEymcwcdEiLbWFic8Zcyh6+hJbV96AtJTaqhonZZqKYyEhZ4ec1qlJQEBAEWopAmzJZ7D92imJSMmnE8JFq3LAPf7xmDY0cMVlHsL5DYuJocBMmzqJz6T3o0MUTtPMYLyIpzaN+V8CDw9kE4nvrUkMQEAQEAe8QaDOEDG+I599eTf/7yz+qkcFU8fHHq8hSH01JXVK8G20zpfr0GUD1PfpQ6aDxtHvHZzR/7HiK7RzTTC3JFgQEAUEgMAi0GZPFhZw8Gj95FsXH2yfn8vPzqLionDLSezrc3gIBSWRkFCWnpNPo8bNp/+lcqqiqDkSz0oYgIAgIAs0i0GYIeffhkzRk6Ai6dCmHzpw9TWvWfkw7d+2h2toays+/SHl52ZSXn8PHi1TJ3hFsBG528J4KpLP5YvvBs5RfKEGJPOEkeYKAIBA4BNqMySKzV3c6eHQ37SospPyCfKqsqKCMhDrKP7tR7Qhi40k4q83KK/OsZIvqSpkDJ1GXLi2z/3ZLS6ftHOi+qrqaBvbtKT7JgfvdSUuCgCDgAoE2Q8jjhg+kkYP68XLo5rv85Y799MpHG2jClGsoOtp/H+LMAaPps71HKCvPwr7Kx2lov3SaPWk0E79d+8YmJHaPDRw1rw0XKEuSICAICAJeINA8u3nRSKiKeEPG6MvkMcPo9ZWbVRyLlvQtNbUb4VNXV0tHj+6jvMuHlRa+cfdJKq2ooqqqCmUyiYowUWJ8LD1w5/WU2cseV6Ml95W6goAg0DERaDM2ZF++ng/XbaRe/caouMi+1HNXFkGKUlMzKK+gmDbsOkXm+AHUe+As6j1oNtk6pdOC6++k6K49qbau3l0Tki4ICAKCQLMItEtCjmSzRlFRHtXV1zULgLcFYKbYtOcIldTGUY8e/VS8jE7R0ZSSlkSjR4+hft1SKCkhztvmpJwgIAgIAk0QaJeEfOOVsygx4jKt/2xZwFbaRUZwZLmRk2nQoNHKXoxIcXv2baJbbr6Fjhw5TF3jzJSYENsEYEkQBAQBQcBbBNolISMGcgx7XMQd/ZROnDjoLRYey2Vk9KB5cxZR58520j12bD9rxsOpR/ceVMoBjLonx1MMa8wigoAgIAj4i0C7JORPN++i+KM76OFeZira/DZlXzzrLz4u6xUVX6aCwnN089JbKDs7m6pL8mhgnx7iaeESLUkUBAQBbxFod4RcwDuCnNu2mUZbiimevR/u7HyZLn35Np0+fdQlJhUVZVRTU+Uyz1WijTXvPXs309e+9jWlLV/k/foyurAtOcm+y7WrOpImCAgCgoA3CLQrQoZ78Abe7aN011bq0WA96N3JRvdGZFHt2mfpw+WvUElJkcIFsTBgdnj99T9R1ulDvIuIxRu8aOfuzTRr9hQaMngolZaW0OYNn9CsCSN5cYr4IXsFoBQSBAQBtwi0KT9kt6NoyDh84jTtf/+/dEeylTjApkrF35RIJuXUGvpH9hZ6+aV9FBEdR9EcdH7e5OG09qXf0RP/eo/jYhRQSkqGh1vYKDc3m1KSY2nm9JkqfsbaNSto0cyxlJRoj6/hobJkCQKCgCDQLALthpCxOekXqz+hyZYiiuZ4x3opt9hoTW0Czf/GXfTUgpkU2bAHH7RarLC7avooWr7xmApk727FXXl5KeVfvkBXXTWX0tMz6ODh/ZSbdYgeWHS3/lZyLggIAoKA3wg4M5ffzbRuxfp6C73+/iqq2LiWhrH7mV7q2IyxsS6eei26mRbOn6HiUUREmFnDbQxSP3vyGEqMZsLl4ESuBCv1Tpw8QBMnjqFxY8dxcKMs+viDN+h7dy9R7biqI2mCgCAgCPiKgDN7+Vo7DMqfuXCJ/vj3/1Dt6rfpxvSmCv+eqggyT51H1109h/fGc+2WBq34vpsX0qZNq8hqcV5tZ2Xb8hcbVtGUKWNp7py5VFxcTJ+xqeKua2dSanLjZqphAIV0QRAQBNo4Am2akA+fPEMr//1vGr5/LV2ZYCF2qiCYJwp5bzzswpRTY6UtKYPp1luWUHxcZ49fVe/u6bR41nA6c+6koxxCey7/8DW67bYbaP78BRy3opZWr1xGEwem0vBBfR3l5EQQEAQEgUAg0GYJuaq6hjXVz6nbyT00orONKpmI7ztYQ385W0dFbKdAPLb/PWul3zz6v9S1S4JXWH1t6dW0Z9d63oWkngou59Kqj9+i7//wezR9+iwV1vOjFR9QRqdq9qoYQRG87ZOIICAICAKBRKDpO34gWw9SW7W1dbSSybh+8xoa19VEBawJP3q6jv44lLdz4hHVWk30TG4k/ee5pyghzvvlzFG8qemdi6bTqi9XUldeeffIIz+jzH79OS5GIX3+6WqKrcujpYvnU7QXIUCDNHRpVhAQBNoxAm2OkOFN8eHKtXRq2Zu0ONFK2TU2evtSPf1iAMjYRKwo087qSJp5yy3Uh4Pa+yKwJU8ZPYj2ncmnbz34fYqLjeNFILvp4M4vaWC3OFq08ErRjH0BVMoKAoKATwi0KUK+XFxKb7y1guo3rKAbkmxUzKaJDUU2WpgaSd2iTcpMcbzaRgWDxtFtc2f5pcmmJneh8cP60bZtW6i2qpxKLp2mRdNH0+B+vWRptE8/LSksCAgCviLQZggZZPzSC69St/1f0LQkk5rAu1RLNDTORINj7YtALrG2vDt5EN12+23ULc2/nagT4+NoZL8M2n/8DGVyaM3xU+ZSAgefFxEEBAFBINgItAlCxjLntz5cSwNPbKMxibyYowGVobHsT8wXbKlQXhXZ0V1o1FVX00DWZv0VM5sthvTtQf17pis3ObNM3vkLpdQTBAQBHxFoE4ScV1hM9aeOUE9bNZOxRsdEMTpHB7i7vWtKo/8umNVi0wK2ivJ2uygf8ZbigoAgIAi4RUBHaW7LtGpGPcc2/vSzjZR24Qilsp0Yk3ZlhjhAtVYb/aMkgZ76xfdbTMatOli5uSAgCHRoBMKakLFt0vFTZ6n04G7qa65TunFBnZV26BgZ/safFBNdcdtt1Lt7Wof+MmXwgoAg0LYRCGtCPnshh5a/+gb1PH+IunWymyrOsheFtkIaZLyx2EoVE+bS7YuvbNvfhPReEBAEOjwCYUvI+YUl9Lenn6WxF/fTCPaiAB0rbbjAQn1j7C5uG0usVDxuDt17z60Sj7jD/5QFAEGg7SMQloRcWFxG3/vp47S0/BgN6axN49no/bx6dnMzU1ykmXaWWeniqNl02z13UHpqctv/JmQEgoAg0OERCDtCLmCPil/8+il6iM7wrh92MraybryZTROlHIhtaUYEnakh2tF3En3rgXspIy1ZJvI6/M9YABAE2gcCYUXICBj0+uvv0sLSY9SdyRgCr4qjFVY6WWmjxWlmstpMtC0yje75ys3UVXbqaB+/QhmFICAIKATChpCx+OPQsVMUf+4I9YuyOmzGF2tttIfNEzOTzJQaZabtfJ4wdTaNGtJfvkJBQBAQBNoVAmFDyJWsHR/bs48S87PVbtEayliFNyExkjJ5VV4ZxzleG9Wdvrr0Oi1bjoKAICAItBsEwmalHiKt1ZojqYJDZ9aztgwihtECQYO68UYfdbz445UCM33n/x6kRIkt0W5+gDIQQUAQaEQgbDTk2JhOdMOShVQwejbtrzYrFzd0E6RcxSvzXrwcRfMffIgmjBzS2Hs5EwQEAUGgHSEQNoQMTLGzx3e//VXaP2wOPV0UTzmWCLrIEd2WW1Jo3gMP0VVXTBOPinb045OhCAKCgDMCYWOy0LqFHT7+7wf3U9aF6+jt91dTZd4luuLaq2ju9IkSHF4DSY6CgCDQLhEIO0IGygh5OaBPT/rxQ/dScVk5pSQlimbcLn9+MihBQBDQIxCWhKx1MDIyglK7dtEu5SgICAKCQLtGIKxsyO0aaRmcICAICALNICCE3AxAki0ICAKCQKgQEEIOFdJyH0FAEBAEmkFACLkZgCRbEBAEBIFQISCEHCqk5T6CgCAgCDSDgBByMwBJtiAgCAgCoUJACDlUSMt9BAFBQBBoBgEh5GYAkmxBQBAQBEKFgBByqJCW+wgCgoAg0AwCQsjNACTZgoAgIAiECgEh5FAhLfcRBAQBQaAZBISQmwFIsgUBQUAQCBUCQsihQlruIwgIAoJAMwgIITcDkGQLAoKAIBAqBISQQ4W03EcQEAQEgWYQEEJuBiDJFgQEAUEgVAgIIYcKabmPICAICALNIGCaPnWqrZkyki0ICAKCgCAQAgREQw4ByHILQUAQEAS8QUAI2RuUpIwgIAgIAiFAQAg5BCDLLQQBQUAQ8AYBIWRvUJIygoAgIAiEAAEh5BCALLcQBAQBQcAbBISQvUFJyggCgoAgEAIEhJBDALLcQhAQBAQBbxAQQvYGJSkjCAgCgkAIEBBCDgHIcgtBQBAQBLxBINKbQlJGEBAEBAF/ETDbrNTJZqHOlnrqZK2nGP5EcZrZZqMI7Uh8zh+z1aqOuJeFTGQ1m9VRnZtMZDGZycrHOj5WmyOphj9VEXw0RXB629cvhZD9/ZVJPUGggyMQyWQaX19DCZZaSuRPAp/H47yuhuKsdYp4OzEJR3O5UEgtE3INkzOIusIcRaVRnag8IprKIjtRKY78Kefz+jAmbiHkUPxS5B6CQBtGIJZJNqWuyvFJbjiPtdSF1ahA/NH1/GCgWkpDz6pdd68yIoouR3WmQv7gqH0qmbBbW4SQW/sbkPsLAmGEQCJrud1ry6lbdRll1FVQKpNvDGu57UnwIMGnd3Wp07CqWbsuYILOjYqjSzEJlBMdT6WsUYdShJBDibbcSxAIIwRgv+3G5Nujppy615Txp5ziwkzrDSVcePD0spRRL34YUdkldesK1qZzOsXzJ4Eu8vESkzTs2MESIeRgISvtCgJhiEB6bQX1rSqmPjWl1JM1xEieWBNxjwAeUAMri9QHpep5QjE7JpHOdUqks52TKC86zn1lP3IkHrIfoEkVQaCtIAAtuG91CfWvKqL+TCzxHVgDDsZ3Vs4a9OnYrnS6c1c6G9OlxdqzEHIwviVpUxBoRQRAwv1YCx5SeVmRcKi8HFpxyGFxa3h5gJyPxabQGdae/TFtiMkiLL5K6YQg0HIEYAceXp6viDjGaml5g9KCTwjgwTe04rL6VJsjFDEfjk9T9mdvGxIN2VukpJwgEIYIRPMii+EVBTS6LFd5RIRhFzt8l+C5sT8hgw7HpVIt+0h7Ep8JeUHfrjS5ewIN7tqZUjpHkpmN3CKCgCAQWgSqS8vo/O6DdPHgcaqvDS9/4NAi0XbuBpPGoYR02p3QjUoiY1x23GtCBhHfNTyd0mKjXDYkiYKAIBB8BCouF1HW1j2UezyLSDwkgg94EO6AdYsn4lJoW5ee7Pcc63QHz/pzQ9EHxnanxQNSnCrKhSAgCIQOgcrCYjq1eRflgYhF2jQC8GIewrZmfI7HJtPmpN5q1SAG1SwhCxm36e9eOt/GEaitrKTTm3ezaeIY2aziM9zGv84m3R9cWcg+zoV0ID6dtiT18kzIMFOIZtwEQ0kQBIKPAM/Yn997hMl4J9XXiI04+IC33h2gMY8pz6Oh7KboUUOGzVhEEBAEQotAWf5lOrxmA5XnXQ7tjYN4t8joKIqMiaaoTp0oslO0Oo+IiiZThJnMHGITH5ybcB4RoXpitVj4rcBKNouVrHzEB+eWulqqr+ZPTS3V1dTYz9vBxGYndlV0S8jQjmUCL4i/UGlaEDAiwFpx1ra9atKurZgnTGYTde6SwJ9E6hQfSzEJcdQpjj+JOMZyWhxFMREz0xpHG9hrxq6OSbqmvIJqKiqpphTHCqou42N5JVWVlPKnLOzNPm4JGa5tIoKAIBAaBEAkh1Z+TkXZ9qA2obmr93cxs/Yan5ZCcSldKS65C8V2TaJYHJMSlVbrfUtBKsmEH9U5Rn3QT1cCbbuyuJQqC0uosqiYKvhYUVBI5fyxsuYdDuKWkOFnLCIICALBR6AoO4cOfPgp1VW5CeAb/C443QFab3xaMiWmp1FiRioldkuluNTk8CBep576dgFzSFxykvoQ9XVUBlGDmEsvFVBpLn/y8qk8v7BVtGm3hIxFHyKCgCAQXARy2HviyLqNrfLP7xgZr+1KSEul5D7dqWufHpTUqxtFRHac9QYg6vj0VPXp0QCKpb6Oii9coqJzF6nwXA6V5Rew37cDsaCduGVdWYEXNMylYUFAIXBm+146tXFnq6DRKa4zpfbvSymZvahr7+480RbaQOytMmgfbooHUkq/3uqDavU8eVh0PocuZ12ggtNn2T5d5UNr3hd1S8jeNyElBQFBwFcETm/aqSbwfK3XkvIxifGUMTiT0of0V6YInmlrSXMdqi4eWGkD+6kP0Qxl2sg7dlqtmKwuLQ8YFkLIAYNSGhIEvEPg7I59ISNjuJhlDO5P3UcMoi49MrzroJtSu8s5glmlmbJrTVRazztCuynX1pLh/5EYaaOe0TYaEmul8fHNRcoz8QMN9vU0Gjh7CpVczKWcQyeYnE8rV7yWjN9tLIuVS0e2pF2PdfdnX6bPT2S7LRMXHUnfmD6c/rP1KJWwK4s7mdw3naZldnOX7ZR+qbSS3tp90iltYp80mtG/O+08l0ebTjvPbi8ZlUn9Uvz3NPnyVA4988V+imP/y4fnjqHRPV3P/KJDCEnwVy7rj/RLTqAp/TKajG1YRle6alhvf5oMizqrDp3l7ySHdp3Lp6E8ljmDe9KCIb0ovlPbtm3mHDlBh1d/EXSME7ulUa8xwyiDtWFzZMv0LhDxZ8URVMwk3BEkicl5XpLFC2J2RsNaX0+5rDVf2HeEJwjznTO9vGrZN+XlTYzFIngWN6ekgp7beMiYRTMHdKclozNVOuzYX568SJ8eu9Ck3L3ThtEML8kYldHWZv4H/+TIeUdbIEoQsonzXtt+jE7mlzjyQGgtIeTvvbOBzlzmvblYLldU0/JvXeto23hiZUZ+dOV2R3JafGe6YlAP+uLERcovb7RVTeQHUDrngaw0WTi8j3oo7btQQB/sO60l020TBrZZQv7z5/voV6t2qLH89KrxtPt8Pt376qc0vncaffLQ9YTfT1uUMp7BP7p2Y/C6zrCkD8qkvhNHsWdEYBZ1fVQYSVtL7Qs1evfuTWPHjqX+/ftT165d1WKO4A0mdC1jwUlRURGdPn2a9u7dS+fPn6f3CyLpIr8JXJfs/QavePB1HzFYfUov5dHZnQco70SWT5OBrULII7on0xNLpjHZVNP7e085If/iV+ZReoLd5e6eKUMUOff75StOZRYM7U1/ummGU1pzF2jzd9dPcyJkrc4E/kf//rwx9J23NmhJLTpmXS51kDEa2sAPlbLqOkqIca3d2XTTt/937ST63pzR6gECElq2n7/QBrl36lC6c+JgquCltHe/so4+P55NIHOM7W+3zHIiZK1OWzsezil0kDH6/tDsUTT5D++qYYCYTzO2g9K6tLVhcYjMWtq/Yh1Z65t7HfZjaKxQdB82gPpNGcf+wYHDRk/GixcvpkmTJvnRufCvglWCKSkp6oMx7tixg1asWEEf7T9FB01V9NMrhvo8CDwQR103n/2dS+jMtj2Uc4R5zovofEFePuN5HLMHdncqoDTABjLWMrp0jqbZAzVnFHvqfH599UfQljtJ6hy4WeZOkXaNQn+vWDbDNCffmjlCmTea83CJ49f21756pZMGj7T2IAcuFjqGAfMExjUkI0ml4c2hL5to2qKc+GIbBXLyR8MgbUAfmvrVm2j4wjkBJWOYKTTNeMGCBe2WjDUc9UeQ8pIlS2jLgWP05v5ztPzIRX22T+d4QOK7wXeE76o5aVVCNnk5y2t8RTWH+Strd142CvLQBHZu4xi0PBy1B+dNY/rrkz2eg+BvGN2fNWSPxdpc5v6L7O9pkP9+/Wr6+DuLae/PbqNoXjHW1gSTPhf5nzuQEts1kcYtXUijl1zFCx26BrJp1RZsxhBoxrNnz1bnHenPhAkT6Oc//7ka8rPbnOee/MEB3xG+q/fSh1JRlOvg9Gi3ebXNn7u3Up0TecW0JSuXThWU0OgeKTSLNWvN/BGILmFiEHZoaHFRTAyj+B6weXeNddau+Q2SFo3sqyYlcd/5PBnlSUDW0I7H8ySjL3LLuAHUp2u82yr1bBvbfiaPNvIEI0wb6Cs+ruRobpEqiyMwG90zVZXVE+BnbCKp44AvmmDCEu3BRPPRwbMUyeNYOnYA4Q1h6xnnSdL+KYmUmZqoJunW84QubOHXjOhL3RJjtebodEEpHc9rtOOXs2kG3yUe3Ji41Esg+6v/jeA7/uz4BTpbWEaVtfWEhysmf/tx/zXRl9fS3B9tdPzzLe6zfc3hH1e/SaMpc+q4Fk/Wubs1tGNM4MFm3F7NFO7Grk+/+eableli//79SkteMsz5TV1f1tvzs7z56asxo2lqyQWaWHKRjOpFuyBkEM/Tn+2j367ZpWbhv8N2x8fW7KQzb5TRi1+ZSzcxSbRUYMv97tscgYtJAnbcWiamP6zbozThF++aR7MMRDeXzSrwEoFcYTC5GPsCEwVs6r7KcLbF4+NKKmrq6auvfOo0Afj7tUS/vGaSspdrdep4Df+TPI6n+AMTwdfYTv3x4XPKjgsTEvDr09VuJnhr1wl6W+epgknPn101gb715nqtOWUvx1h+t2Y37ctu1HbvY6+ZM0zc+gnaH7y/iTBp95MrxytcJ/z+bUc72snE37+jTvOe+Lp6CAajv2/ee5W6B35Dv15tn0zE2DDuZ744oHXFccz69d3krYmrIOu88ll1VG7BSUxCLI24dh4l9fTOs8jfW8G1DYIJvI4ueEMAIW/IyqdAEDLwrOe4GxuT+lBWTBItunyS4usbPcmMBN2q+BdX1qh/Yvwj6z+FFTUe+/X8xsOKjFHod0wG+Cf/7eKpqs59r39O0MhaIisOnFGz/CDj60b2o7/fNpuev2Ou0trgBXH9P1fSLp5w0svUfo3/NKM8uLzp6wTy/KODZwja3i8WTnRyFQPhVNU1zhz/4qNtioxxb5D1b66bQm80ENTOs3m04K8fqglJ5D93xxwnTRVeJHoyRhmQec+kOPrgm9fg0iEvbj6sSBeTlnrXtSc+2a00UWjbO39yC2HCVi9I2/WTWxUZIz0Y/cUD/R1+0GhkjPts/uFS5RmD71sTvA38kSeT0Vdv5dwO/9wZje0n9cqgyXfdGHQyxn3hZwyBN0VHF+0N4ZDuzS1QmGTHJNJr3UfRhZjGeZGwImS4nc3587ImH72mZQQjr6yKfr5iqyNZe7Ud0aNRc3z2y4OOfF9PQMI/ZE1Ok+tH9VOnMEvMG9xoivjhe5vIojPo4rUWdmRoma4m+bT2gnWEJ8uqB6+jH8wfS7+4ZqLTbc4X2VcWAVe96yFc6CDJbILR/LvxwHly3W5H/d4GE8mvFk2mw4/cQVrdb84YwaYLcxMzDvoD1z+4Ghr7c6G4nF0PiQakdmHNs3HiFcSNtP5s6oAEs7+v7TjuGCP62jnK/vI4WWcqgUnl6+xuCXOVN1LFkcWKOB5CSyV9UD+2F1/Lkcwa5yVa2qan+lj0AYFrW0eXXr3s/+N55Z6VQn9xqjRHsV15GJ2ItfNVWJksMJv+KnsPGOWBN9crX1RjOq53sBanl3ie7ILtD6SgCXyPa/x0N9rMC0b0vsC9dISk91MGWcCuiX9mTYZ166q0Re06lMfB6UmOB0E6v+rqpbRhsc2yfY0udcjv3qWx3EB2LduSZScTmF5+vWiKIk19Ozi/YUwm14sjvPYX8hsOyNyVeNMfV/X0acHsLx68mqTExWinFMV2cU0usu98SVUtefLW0crieOkYuzq1UNIG9aWRi+aFNNKataHPcAfzVp544gk6ftz+UINffxzHRB41ahTdeeed6tzbdgJd7osvvqBVq1bR73//e9X0vn37aNiwYRQd3fjg93TPiIZg+RZt5t1TYT/zLGzCWJk2iK7LP97Epuxnk4GplsCBrOFjavx4+gfApI9ehj/2JvX8+X9oBB/1kl1cob/0+vwYTxTqRdOckKY/x7WxLFy0jBolyoWLHGSfX73oH2J6Nz2Q1SUO+O1KNPsy8tyRsat6/qQFs7+LG9580C8s5NHkDE/u6SWuk/c6TOGZC/qqPp8ncOjLkdfMDSkZ+9zJhgqff/45HT16lKBRduvWjYqLi+mxxx6j8ePHU2Gh8+/M33v4U6+0tJRycnJU1UOHDtG8efOovNz+huhPe8GqY+WJ61Wpg9q+l0VxlfOrxDv3XU0j2fvBKDAhFLEG56sU6v45UVfvZRYd6axB5LHNVi/3TR9GMS1ctqpvL9Dn+WzucSdGM0semy6gCbemBLO/WB36x0/3Kjv3IX5Q5fJ3CR/orey1o8ndk4c4vXlp6a6OWEZb4ufyWbQXERXBCwvmBc2TwlWfW5o2c+ZM+vWvf+1o5siRI3TDDTfQz372M3ruuecc6SDECxcuUN++famzzgxTVlamtOmSkhICkSLfKFVVVZSdnU39+vWjSN3/lo01WKywq+UFOH369HFowFdffTXNnz+fXUttjgcD2k9MTHSqb7xPa1xjss+ZUVqjFy28Z08DSYB04Upl/DS32MJdN4waLr5YTarrGl3AkNaf7Z16GcOuY9qiBn16uJxneojVoZ/4Q3/DYUFGMPubyW5tm354k2PSct5fl9P4J952eIr8D6+e/P0N07z+6ioLi9X+b15XMBTsO3ms2hbJkNymLmEauOuuu+jdd9+len5A4X8HhA2inTFjhtKmn332WceYRo4cSTfddBMNHDhQadaTJ0+mixftizLy8vLooYceUnWmTJlCAwYMoHXr1qm6IPKFCxfSuHHjCHndu3enjz/+WOW9/vrrNGvWLKWx4+EAmThxIu3cuVOdh9ufNk/ImQYS/OTo+SYYn+DJQv2EW5MCHhJgB9ZLBdunNdHbHZGmJ9/3Oa7EpCffUROULfXy0O4X6KPxTUJvZ9fszLhnD37oeevmFeg+6tsLdn8vFFUoDRnzAI+yN8izt19Bu396K+X//uv0KE9eGk1U8GLB8vbej7ys3AQLdG9TFbxk1l8xsx9377Ej/K0eVvVAkhBorx988AH95S9/oZdffllpyH/605/okUceoe3btzv6fOrUKdqwYQPBvJCamkrf/OY3Vd6PfvQj2rJlC61Zs0aZRuCOdtttt1Fubi6tXr1aESw0cpgn8BB46qmnHG1Ca8YEpUbgJ06coKlT7V5YjkJhctKqhFxY2WirAx4F/FqMBQxGgSeFXgo4BoYmk/qkO62Ke3fPKVrJixQgcGd6a9dJmszECEd/IykjXxNjntYPeG1onhsom8Uz7ZrogxEhmI+mRSLWxP+886UKVoTJvu+/t9HluLR23B2Nke4woeROjLDpNXltLFpda4M3CF7B9S5o53T20qOXGm3n/+/qCVpVjxg6CvGJL/3R24H034PxgRfM/iJOxqJnPyKYK+Apcsv4gWpBDzRnvW1dP8ZXth1TsUbQTwREemnzEUd2reG37cjw4iS5dw+1M7MXRcO+SFJSkupjZWUlffTRR8rUAHLcvXu30oTj4+MVyWoDueWWW2jEiBHKDg1iBQnDBr1y5Uq6/fbblXablpZGP/jBD1SVzZs3E64h0L5hy4btWiNfldGG/rQaIWNG/h8bnN3R4Ne6jDVL7Z8ZRLLmyDn1T6LHFG5s0E4gCNjzl5tn6rPprpfXKu10+G/epAf+u175z8J1SvMa0ApvPZOrvC9wP4R61AuukQ5TBwIZacT1/KZDiuir2Zd32f7Tqgrc2x69drKjehn/g+rJBOPSa5+Ogh5O4LGB4EF6Wc6LU4w2cy1/x9lGWyfSMAGm3XM/R4LTixZqFHb1P9w43ZH174aFLMd5IhMPEgjiiNw+YZA6hxljG2Oml/XcR+370qf70p/dF+w+3PCOwapCvSBUqybB7C/sx5r8z7tfKq138K9eV5PDeNOBv7U+0BPKwutCL+/sOem4tNQ1em04Er08iUt1fivzslpYFjtz5ozqF1b9nTt3jgoKCujHP/6x49OzZ0/+/TQqYWPGjHGMY8iQIepc894YPXq0Iy8zM1Odg6znzp2rNG8s4IBXB+zLTz75pKNsWzppFUJ+nX0+B/zfq07uZBpoWMgx8vE31eX0P75Ht7/0iZblOILshv3mDbU6D4lYgvve/deoV2utkKa9vsVxEG5lbQcE8zV+vdQLFj58g+/33MaDTv64KIMVWi/wYgYIVsNt/IHdvggNCkQ/+rdvqYhuiDm8+UdLnZYAw359My9r1uRHC8Y1ed3V8oxHaO14BZ721HvGLEWGmb98lW57aY1THkjr6r+vcErD+G99cQ39e8sR+sv6/U55WACBNwcIyBb+wXio4EEH8pnP9lMIfIbf/cZCRxyOMTxmIwndwvfAQ08vvvbnJ8u20Gs7jinvGL2LIdq84s8f0ELd2ILRX9wH9n694DeGvmC8wBIrFGGe0MKCouzdHI1Qe1DjWv/GheuOLrAbP//880qrxSQaPDCw2ARarfb53e9+p0hUwwqkqsmePXvUqUbE0Ko1gUcHBPbmkydPEggapg7Uf+CBB5SbGyYO25q0SoD6YIGEf4hT+aWEhQbwezVOyAXivjCfHL5UqF5jYWs0xrHQ3+Mgx7zoHB2hFjfo08PxHG8j0ORP5Bcrcobt3GgzDad+B7q/eGO79h8r6Fhuo6nG1XhBwFg6rZkx8BaCtxksaILZ6p+3z1HVzu855HcMi9TM3jTmxqtd3T4kaY+c6aTuo/eYaO7G8GZITk5WE28gYth233rrLVq/fj0tX76c4IHx/vvv0/3336/IcunSpbR27Vr69re/TR9++KGa5MNkH4j7X//6F8XExNCDDz6ofIZffPFFVW7jxo3017/+VWnAv/nNb+jTTz9V8Yu//PJLuvfee1XcCZD3Cy+8QMiHPRp2a9iqDxw4oPykp02bRm+88YYKmKT38PA0Ps0Ovu+7V3kq5lXeovecrQLGSt47VRprhuE1/kkwsaafXAt0N/HanJ7Q06tmR+pWC3pVoRULwTQDs462Kq4Vu+LVrQPd37/xWwTIGA/Z314/1fFWAHP7+aIyjjWdRet4whiac1WthU1l9pdLuAcebyDx/5nT+LodHdu4uMSrAekKFZ6/qLYCwvZLbUk++eQTwgcC2zC8GUCIIGPIjTfeSFlZWfSTn/xEfXr06EG/+tWvFBmrAvwnIyODFi1apC6vuuoqZYrAxeOPP04PP/wwIeAPBOYMxCyGPRoTfPfcc486Ig/3hveGZr9GGgRmE9SDWQOkD4+OcJN2pSGHG7jSn7aBQC0HWMr46Uuqs1qwI2PPt/KqxWv+8ZF62G/9kZ0UUAarQGFC+itvEIBJR03K8wpo22vLtEufj/1nTKBMDjjfGvJL1pAx3f3oo48GZVcQaNCwJWMBiV6gIT/99NN0zTXXKH/iLl2c3UhRFpOD1dXVShvX18U50rHzB9rFakFXAns1/JDRtrsy+noWDiKGB0sEt7f7oaariPVlvTnvUBqyN4BIGUHAiABCjGJ7KHhaINhRBi81H8macjdeSo7AVkcuFdFTn9qj4SGolCbvsUfPL3nrrTUcq1kf8wL5sclJZOJ2bUz2/sjZ7Xup29ABreKLjA0/EX4T5IadNAItWNBhJGP9PWBKcGdOiI2NJXxcCcwc8EH2JCBho+bsqbxmh06Pt5txPJUNRF67MlkEAhBpo2MigOh0r20/rjbfRVhVTObBXgwTBsw4X50yVGnA+mX80/p3U4tJXPloY3+1LrzRaHG2s1eKt+haeNHRgY8+o4m3XRfy1XrYfRmEjD3mgkHI7jCAW5ur1XnuyociHds5QUakN9XWA33/SJu17S+dDjQo0l7HRCCR46g8OHuk+niLABbMeJLkfr38JmS0i01RD67+nEYtmh/SeBZDYq10iGMiY8NPLfykp3EGKk8LABSo9gLRDuzUkNmZdl/nQLTpqg1+l6JrC060/aXTrgYnaYJAOCDQbUij66O//ck/cZYOrvyMrLqdWvxty9t64+MtlMRmC6yu0zREb+u2p3JY8g03uu4JMQELTu8KnwjWjBfln6CBlUVCyK4AkjRBIBAIdE5KpK69nCeu/Gk378QZ2vPeKqrjwDqhknlJ9jgt0BChKXc0gasdPDsg354yMGjDj7XW0dK8IzSoslDdo1UWhgRtdNKwIBBmCPSZ1Li6rCVdK76QS9tf+4BNIC0PeO9NP6AlT020UFRNufLxhbbYUQRjfeaZZ9Rw7xjdJ2jacc/qUror5wD1qi5zQBvRu1evRx1XupOvDE/XXcmpICAI+IMAdoe+fJo3SKiwL/X3pw2tTn1tHeUcPsGeG2xS4H31TD4EkNfa8OU4uLOVth46QQdzSwiLLxBXAm5gCD6fkJAQFJc4X/oXqLIYE8wziH8BO7b28AEZ//SKoYG6jWrnjSN5BBPFjJLzdOXl09TJ6hwxUvyQAwq3NCYINEWg5GIu7fyv89L2pqV8SwHRD5k3nZL79vKtoh+llx+5SM9uO0k5ZdV+1G57VWAzhpkiUJua6hF48LWNNK/oDHWtc42l74SsCwSiv5GcCwKCgHsEjq7bSBcPHnNfwM+ctP59qP/MiRSX7CEgkZtFEr7eEsSM3Zex4Sf2mAvmtka+9q0l5bHoA37GcG2DN0UwiLiisIhOfbmD8k+d89hV3wiZY0UUP2df0eSxVckUBASBJggoXaYxsFmT/JYkKM51tTiN05K+dR+53BCxJTeUul4hUMlxsc9s20M5R041jUnrogXfF4YE6Qflom+SJAi0KwQUX7oizUCNUv43A4Vki9spvZRHZ3ceoLwTWc77vjXTsu+E3EyDki0ICAKCQEdEAPso5h47TRf2HaHSS/YY377iIITsK2JSXhBoQwjATHJs3SbqNmIQdemR0YZ63na6iknbHPZGyT1+WkXpa0nPhZBbgp7UFQTCHQEm5OyDR+nCgaMUkxhPGYMzKX1If0rMSOWe+2Y/2V0eQcd4SXV2rYlKOdaFf2GTwg8wLMZAQCXE8MCycfhgexYblfKy9jzWhnOPZ1F1abnn4j7kCiH7AJYUFQTaMgIgDtg18ekUH0upmX0oJbMXde3dnffwcx/NDET8WXGECjjUlsfvru94sCCYEj6I4YGxYqWinpjra2qo6HwOXc66QAWnz7JfeXBWTQohu/uWJF0QaMcI1JRXUjZrzfhAUU5IS6XkPt2pa58elMTLvSMio9ToPyqMpK2lEeocAd7Hjh2rtmFCYHhzkBemhAp+K3uPIdQootthmTgWiSzPtdGlrIs0uOg8FZ7LobJ83mMyBJOmQsih+tblPoJAuCLARFPGAfXxgfZsMpsoPi2Ziruk07m4DEromk5z7ryHJk2dFq4jaFG/TLxarlNeNvU6e4QSsw9T7u7NVH/uNJmYqM+2qGXfKwsh+46Z1BAE2jUCNt63qiz3MkXwZwgdUWOt3LiMdg0ZSXEDh1Jsv4EUmzmIOuPYJ5NMDdp0uINiq6+jynNZVHXmJFVmnaBKPlacPErlxw6StbbWqfu+WdedqrboQgi5RfBJZUGgYyAAwio9sFt99CM2RURQ5979KKZnX+rUrQfFZPSgTurTXR2j07pRVJckNosEOY4Zx4eoKymm2vxLVJN7kT856liN80sXqTr7LFWdP6PigOj7H27nwSFkfrwk3f81YiNTuI1X+iMIhD0CZfmX6cjajVTBR3diYjPDWP/3UXXXrM/pCHRUeeaU+niqHBmfQJEJXSgykT98BEmbO8eROTqat7qKdBxNUVFkjrJv7mqtqyVbXR2TaL3SYLWjtapCkW99WQnVl/IHx/LGiGme+hHuecEhZIyan5yyXDPcv37pXzgikJCRRpO/soTO7z1CpzfvZN/WuibdZDNvmxIQpiLNnAttqt+h7GyNOUK2cAol4HIvQcBrBPgVv/e4EZQxJJNJebcKTATbrkj7QwBudwfi02lLUi8h5Pb39cqI2hMC0bzD8tAFM6nP+JF0avMuyuOFCCLtB4Hjscm0Oak3FUZ1VoMKnsmi/WAmIxEEWh2B2OQkGnXdfKq4XERZW/dQPoLWhMIxttVH3v46AI34RFwKbevSkwqiYp0G2CqEvPNcHm067X4rGsQnxS7AQzOSaDhvw47t2Fsiru63ZFQm9UtJaEmzbb5uOdsm/7vrBO05z8tAy6toXK9Ums5b288Z1NPt2LafyaXVh8/RwZxCmtQnna4c1lvVc1ch2OXd3TcY6c9+eZDe3XOKFg7vQ9+fN4YiW2HSOi6lK41cNI+qi0uo+o13gjFMaTNICERGR9GOmBTandCNSiJdz8i2CiFHRZgpv6yK/r7hQJOh3z15CNk4IsprO4478rA9+/9dO5miuZ4/YmKCf237MTqZX+KoPiyja4cmZBDlva99RhdLKuj+GcPp2j596Jcrt9Mf1u2hr08bRr+9fip1irSv0NJA+8eGg/TzFVtpCD8of371RC6/jX73yS76+22z6c6Jg7VijmOwyztuFIITPNT/34db1Z12n8+nkawoXDOibwju7PoWMYkJ5HrPCdflJbX1EIhP7Uo9Rw+jbsMH0pMrGnnNVY9ahZDH9EwlfAp4Pfhbu046+jWlXwb99ZZZ6nru4J503+ufq3P8Y0OLW/XgdY6yvpxM6J2mNJrvvLXBl2rttmxBRTUtfeFjgoYM+dlVE6hrbCfKL69WBPvSliPqZfhPN81wYLBsf5YiYyT8YuEkWjSyL1XwHm/f/u8XBFzxRnPdyH4hK++4UYhOSqudPR2M1yHqhtymjSAQGdNJBXLqPmIwdenu/f6k/qmcAQJl3mDn/cBS4hrV+LmGvC1Zl+iETsP1tQtJnd0HT/G1rbZe/sm1ux1kDHMQyBgyjc0VmvybSflEXrG6rOclpI9/vFPLonG9ESmM1ENVS/zVqh1kbdjeK9jltXuG8jhzQHeCkgAZzw/4q4f3DuXt/b9XG3OP83+grV8TJomMof1p9PULaPa37lSTsb6QMUbQKhqyN9CBJHp0iVOv1Fr5XfzaOCiti3YpRz8R2HDyoqPmgNRGPLslOk8w/HvrUWW6WL4vy8ncoz04tSMagzno8+PZNH9ILwp2eUfnQ3gCc9n7919Dl/ntQj/uEHbBr1tha6dRSxZwhLLz9t2vOaiQSOAQQNS8lP69KZX3NkzhDWfNWH/RAglbQsaYSqud15eP7J7SZKiw521jeyhsoSAUTDSN7plCMVG+DQ1a3WfHsunwpUIq4Fd32EkncluD05MoQueFD1si/ik1MXGorHlDeLaU66w/kU3HWasEKcH84mrSp6beQtD2D/GkWB7b0cfwRNrsgT0oVfd2oLUNDXVLVi6dKiih0T1SaBaXS0+wu8doZaCUbjqdQ5/zvRezyWAst+dJai1WOpZr13xRDmYHTeKjnTE7mluksj4+ck4roo6abbmzAeNl+06rsQe7vFNn3Fzgd7E/+zJlXS6lfskJdAVPVPZPTWxSuqqunvCAQtmSqloa2SNZfXeZKY1l0Qa+V73A5Ibf27qj5502+8SbGL57YPzZ8QtUWVtP17KteVi3ppuQnisqo0+OnKczl8tUW5jErmdf42i23c9r0Mb19/T3PC2zL6X176eql+ddpstnL3AEs2wqzs4lK/8eRbxHwMzfTVLPDI6M11MRcHx6U07yvrWmJZ3/A5vmt1oKSFazcaITX50yVP2zaB0Csd318jr1DwHbZZ/keIKtGcQM+eaMEfTEkmleLRYE8d3w/GpVF/VwX0zg4IhX+j+yLfXW8QNVuxtP5RBez/Xy3B1z6FtvrnckPf3ZPkqL70wbvn+j+kfTMk4XlNLXeSJtX3aBmqnvmRRP9/E15OG5Y3jicpI6x8MBbfx2zS51/+/MHkWPrdlJZ94ooxe/MpduGjtAlcOflYfO0N2MA+RPn+6lz//nBo+krHu2qDqXShs1pgiD14BG3Oi3K4mOdLZ4nWooF+zyrvqipZWxrffHyzapuQk8VG8aM4B+8P4mlY0H35v3XkWxDQ+egxcLeWLzU6XdwySBhxls4pAnb5hO35g+XP1+TrH2/923v2Qbe2MMXO17wFvEqkNnVR38AVHDnPHk2j2OtMfY3IP2l3/rWjJDZWUBkd/y4hp1ju8TD/pffJSrrv/3ynEBJWTVaMMfEAg+fSeNISsvey7hvd9KL+ZRSQ4f+ROsOL/6PrSl805pGbSLH8hnTZ3oFzfPoC7d0lusBXsaf1gRMsgBGsPBi5fp6c/3qX4PZBMFXIyW6kgIGSBF/KghjyycqDTaB2eNopGPv6nSnt90iDWVdCfyUhku/tz9yjpFxjCR/GrRJKVdz2etF5OKIGWQ7bTMbtS7a7wizqLKGvrr+v2OlpCPf6LDOUX00cEzKh3/vC9vO0o/uXK8us7lsV3x5w9UexjTK/csUP/sL24+rPL/zOO9c9JgZZJ5fuNhRcbI+B0/VO7i9DGs9d/5n7WqT8msTWuuaasPOWuvIAdPWjK0dhCVRrYYXw4/xLrz2OtYe9aL9oZi1A71ZfTnmhdLsMvr76k/hw37phdW086zeSr5nfsWqu9s+9lc+vTYBaUJv89aPPC8UFxOs55+X5XDw/Pt+64maPz4wNPkf5dtVnjAw2fB0N70+OIp9E3+no3y+teupJl/el+98SAPD1t897++bgq9vuOYA2c8yPHBQwFvKQ82TDDfyx4t2uTpav7u8B2HSvB63bUnx0DmjyYIYv/8/kJKLMylkV06q2ho9Ry0pyNIJMfXQDS7xBHjqMuYiZQ4eiJ16t6LvjNunBr+n3Q4BQsPZxUnWHfxsl38I8OV6jesUYAoICDJGH5N0CaMtKZ2sEahyZs77a4kPZPinFzZdp5rfqNBvLJq5ATtesPJHNXsVCZgveAfTROjrfXFu+YpTwWQrF40gkLar1bvcIwJk0Nw/dPIUatTx1o/zBhwLdMEr7+QEfwqrQn8YTW5YlAP7VQdNaJ2SjRc3DrOru1rycvZgwJSUlWjJaljanwM4U1E+y6cMl1cgIiq64JbvmHe0MXdSflUa2SMhx4eoBA8gDSpbXhF/9nyRoxhUtDMLzALaYLvAQ8rSDf+HboT7T5aPryBvnvFKHr+jrlakjrC9AGBxq1p25vZ3KS9pcCNDj7OrSnY5imv1yA6OXomjX95Jc3adIpmfHGExr60jAb//PfU8/avU/y4KVTi/OxuzS77fO/olDRKmjSDysZOpxf5K4n/f0+pMWKsGPPA/32M0q6+QZGxz423sEJYacjQHqBxVDNJ/p3ND3jVg30PH8xsv3f/QtK8JW4Zx695DZrQ+D5pDhjieKZTk/NFze91hX9E/ENqr52aB4H2D6q1lVPS+GqvpWnH4Q32QbyNYrEJbIKQYrZJ2o819ObOE+ocf4ayD7Qmv71+Gpsn9tJVw/qoRTArD57VstQRdl3YIfX2aLxFgChhy71xTH9VDvbK63mxCzT55uQ7TBYfHjijtDmU/RmbZ86zxnix2E4+Wv1xvdKaPAi1PFdHmHdsPqwe86d8wxu/q9srk5WWAT9hTR6YOVI9dGFDxpsWbMXamwzK6Am1TwOJa3VXstYK04W3gjH1ZZs1xGjv11zlkjrbo5mhDJSBSU++o8xVX2HNHeYvSyvHrICWBr7FThrYFSQ6JV19uk62u6Si3zCuWWuqqfpSNoe3zKZqDhqkjrjm89qCPI7IVqSisVkqnX9XqB8MiYjl6HEcVS46KZlgaoB2G9OtJ4cF7UkxfK6OfG7uZPfm2vTMM3TuXAlNuvNet92xsFkHgsVqoZCwImRtwJiQ++H8sezmVuzwU8Ykzf1vrKd3+NUSAlsvtAkQFT4wD2AVFSbLfJXXvnqlmszr0zWBskvK6WW2C761u9E/2pf29MSp1TuZV6KdqmNGQqM3AyZv9BM4mMDTy/DH7CYYfRrOs5k8QTDQtGHf1mzcxnKurkHkax5aTM98cYAwAXf0UpEyFek1etS7cyIHIefvAiTjjZaMCdBgl3c1HqTB7q7/7nvw25ImINx3v7FQu1T2WscFn2g2ZaQZH8RHGJtAC8xDE/umOxQKYPvjDzYru/PTS2cqH+9A39OX9rDhJ/aXw7ZGKSnuJ61AbLF9B6iPp/YRGL6utJhg+qjnI86tVZUqpKaV8xBiU4Xa1J2jPYThRDhOBMDXzs0455Cd5s6xFJWYxOE8+cOmBpx7Gyj/8OHD9N5779ELL7xAf/jDHzx1nS5cuKDy0+M7eSwXqMywJGRtcFcO6e0gZKTBZlzBP944JggINEdMfr3N5AnS+D5PjO29UOAVeagGGv7g4ZfLpgIgFLadAABAAElEQVT8U8ADAq+7IDhMqgVCMJuuF+11VZ+mnRcbzAZ4AI1kDwujGLUvY35z1yBlPPTwgWAyrM8vXnZUg111TsNMPzQ+PdlphbCiUi+aZhjs8vp7aucw9ejlUqnztT6vmOcA9KIfhnGiUjMn6MsH4vxfbM647/XPCIqGJvhd3PXyWvrLzbPonilDtOSQH7H7MggZe8x5ImRvOwaijE5OUx9v6wS73K5du+j73/8+3XrrrR5vtWPHDpU/Ir3RPdRjhRZmhpUN2TgWvZaj5Wkz+V+cuEjTnnrPQcaffm8J/YDJBXZPXwT/jI/ykuGl/1qtyBimEXgqYAl3oATeFHrZz5OW7qSnwVaJCUTYrI0fbbbeXTu+pr+zx/mN4FGe3NS0ff0KPLQLbRRSZ3EmZM0UE+zy6uaGP3iA6GX3+Txegq9PaTzHvIRe9GaWGraB6yVYfu8wbcHWrE366u+pn0PQp4fqfEis/fvFhp/tUYYPH07Lli2jhx9+uNnhrVixQpWZndloFm22UgsKhDUhH3BBXHBvgxZ5w/OrHMO+me3JeF32R7aduUR/0XlMPDhrpNK2/WnLXR1o3HrBKjh3JoBM3UIN1PmkwZNEXx8rFjU7I3yiH/jveur9yMvKMwC2ZV8FtvYnPtntqPbzqyc4xaZYPKqfIw8neDOBlNfYbeTqgv/cPdkezyLY5bX76Y8w3egn72DH38rfrSsZYPg+Kmrs40HZcp1fNq4R3CrQgrmPm3npOt5SfnrVeDr9q7vpIbbra4LfBh7ErSXj4y2UxGYL7L6saYit1ZfWvO+7775L+/fvp+4JMbRkWONkbzD71KqErF9ggUHCHUgvWPmlFwTBwaSe0c9Ve12FaQALNFyJRmBanua1sYdNHHq5XGmvr3+V1OfjHM77erHqrjXtEfnaKz1WdhmD73z37Q0OTRNl4faGGBJY2KLX9mAX1yb60DZif0x+8h06W2g3g7yy7ZhKwz/xvzYdpo94ss4XgWfJ9c+tdMz6gxh+tMDu5qO1M4JJST/7r3kLZDVMXqIc3LdgG4UEu7y6iYs/35sz2in1e+98yfFSGn8PWLiDuBsgwh/rxoi5Ck2ydD7X0GKXjM5UWZaGtwKtnP73ZPw9aGW071+71n5z1fzQhBueZgbCqtTfsJscJrUhML9pk9da3VAf5yXZH+zQENurpuwJ0xdffJEef/xxVeTbUwZ6KhrQvFYjZGgAmFTSy1a23+KfBhrgH3mRw8cc5lGTr00dSo8tnqou9YSFBHhIwBd0zG/fctI80db9b3xOVazRYTWbXnCNV1rjCrmfLNui2vqKwR8UYSph2gApbjzVuPQYbWomCPzzax4WSMfiFrjVQbDoQ99vBOuByQXa7bgn3lKTkovY2yMhJoptiDNVHe0P7IqYiR/+mzdVeczEa6vOckqdZ7DhLeGNwC8a+M/58zLVZ2jxHz6wSBGDq/rP3n6Fw6VwzWG7//e7e0+pojAB/HDeWKdqwS7vdLOGi9snDHKQGpIwSTnud2+p38CVz3xIN/Lin7satHj4tmsaNR562oIibUyojwk2kDcEJjK97G1wg4SvNn63muDBqD2wtN+Flreb3TA1UkYavle0i98U3jpyy+yePN+cOcKrBU1au8E4QkuemmihqJpyuvfeewnaYkcRjPUZ9sCA3DG6T8i0Y9zPNH3qVGd1D6ksK5eOtJ/o//IPp/ifL+lTXJ/zJFnSA/e53VPvBV4MgQk0T4J/cpAOIrXdw6v0NALS6vyeA+ToX7NBKIgUB48BbWUWymKCpJJfQ+HaZRSsxsLkydde/dSJ/K8a1pv+cON0+s3qncpzA/XQn3+zv/HfmMT0LlNam7AH3sorr4ymCNQ79Mgdqhg0+Qff+kJpR1o9HOG6hnCXev/mz/jtAFq0RhQoB0J/5tbZ7CLXG5dK4B8NUoVAs9r+45sdmqpKdPEHC1kwEQrBva9nLfAa9ljRyMdFFZWEFY0I2QnNDrZ2vEXAT/rlu+dThiEOBioEu7yrfsJkA3dJ48MeK+j+uHSG+j1p9TBBjN/FqxyaFaItmIFm/PLdC9QSfKTjzQMLRYyC34i73/E6ntNY8NflxipqbgITxov/udKBod6LBXMXv79hWhNvjyYNBeh/sUm7hoQnvjhKb+63K0ajR4+mxYsX06RJk6hXr168bab9YWWo0uYu4doGbwqYZ/BGADMFBGT80yuGBnQ8i9476LG9ViFkjz3yIRP/UNvYHpfB8R1gQ4YdEQLiQwD1Eewf7IooXN0Cs+mHmcwR90BP/vATRZjQsfwPrXl3uKrvSxpm07XXVUyE6YlY3w40p1P5pWpVGcan95fVlwMOu9n0MpldqZojVdSDJwleiTOZeHyN+YFX9WMc4wIB7Yd3S27ia6vvF86DXd54P+0amMBlrZDfxPCwBsm6mwiFh8kRjmECbXcYjwkLjIIpeDuEFo2HGn4LWOEJGcwz+ZrZp9n7h4iQ0Y/lRy7Ss9tOUk5Zo/mn2f614QKwGcNMEQy7cbsm5Db8nUvXBYGWIRBCQtY6CmLekJVPh9ivPq+8ximoklamLR6x6AN+xnBtgzdFMIhYw6U5Qg5rP2RtEHIUBASB1kcARBVMsmr9EbZ+D4JHyO6cQFt/zNIDQaDtI8Aaskj7Q8AtIWM22J3NrVkYeJqw+DkvJv+abUgKCAKCgCDQPhDQe9i4G5FbQr5cVU9psY2Betw14Dbdpe+G29KSIQgIAoJAu0YAnNqcuPVDPl7kPhZAc41KviAgCAgCgoAzAt5wqltC3p5jXwnm3KRcCQKCgCAgCPiDgDec6paQ150tovxKe5B4f24udQQBQUAQEATsCIBLwanNiVtCRsXXDjfuytFcQ5IvCAgCgoAg4BoBb7nUIyGD0Vecch8q0vWtJVUQEAQEAUFAQwAc6o12jPIeCRkF/rk3R0gZQIgIAoKAIOAjAiBjcKi34tbtTd8AGjxZVE13DU2lFjjC6ZuUc0FAEBAE2i0CsBnDTOGtZqwB4RUhozAaXn+2kBo3+dGakKMgIAgIAh0bASz6gJ8xXNvgTeErEWvouY32phUwHiN92FXYWFeuBQFBIPQI1BPHwxVpEwh4rSFro5EvV0NCjoKAICAIBBaBZif1Ans7aU0QEAQEAUHAHQJCyO6QkXRBQBAQBEKMgBByiAGX2wkCgoAg4A4BIWR3yEi6ICAICAIhRkAIOcSAy+0EAUFAEHCHgBCyO2QkXRAQBASBECMghBxiwOV2goAgIAi4Q0AI2R0yki4ICAKCQIgREEIOMeByO0FAEBAE3CEghOwOGUkXBAQBQSDECAghhxhwuZ0gIAgIAu4QEEJ2h4ykCwKCgCAQYgSEkEMMuNxOEBAEBAF3CAghu0NG0gUBQUAQCDECQsghBlxuJwgIAoKAOwSEkN0hI+mCgCAgCIQYASHkEAMutxMEBAFBwB0CQsjukJF0QUAQEARCjIDPWzh56t+Vs8fTDVdPoxGD+1JUVECb9nRbyRMEBAFBICQI1NXV06HjZ2nZmi20dsPugN8zYKz50L3X0x1L5gS8g9KgICAICALhggAUzbEjBqjPkAG96Jl/fxjQrgXEZAHNWMg4oN+LNCYICAJhjgA4D9wXSAkIIcNMISIICAKCQEdDINDcFxBChs1YRBAQBASBjoZAoLkvIIQsE3gd7Wco4xUEBAEgEGjuCwghy1cjCAgCgoAg0HIEhJBbjqG0IAgIAoJAQBAQQg4IjNKIICAICAItR0AIueUYSguCgCAgCAQEASHkgMAojQgCgoAg0HIEhJBbjqG0IAgIAoJAQBAQQg4IjNKIICAICAItR0AIueUYSguCgCAgCAQEASHkgMAojQgCgoAg0HIEhJBbjqG0IAgIAoJAQBAQQg4IjNKIICAICAItR0AIueUYSguCgCAgCAQEASHkgMAojQgCgoAg0HIEhJBbjqG0IAgIAoJAQBAQQg4IjNKIICAICAItR0AIueUYSguCgCAgCAQEASHkgMAojQgCgoAg0HIEhJBbjqG0IAgIAoJAQBAQQg4IjNKIICAICAItR0AIueUYSguCgCAgCAQEASHkgMAojQgCgoAg0HIEhJBbjqG0IAgIAoJAQBAQQg4IjNKIICAICAItR0AIueUYSguCgCAgCAQEASHkgMAojQgCgoAg0HIEhJBbjqG0IAgIAoJAQBAQQg4IjNKIICAICAItR0AIueUYSguCgCAgCAQEASHkgMAojQgCgoAg0HIEhJBbjqG0IAgIAoJAQBCIDEgrQWqkNusU1Z44RvUF+UQWS5DuIs0KAoJAu0UgIoIiU9MoetAQis4cEPbDDFtCrtq1nWoOHwx7AKWDgoAgEMYIsCJXn3tJfSyFl6nzhMlh3FmisDRZQDMWMg7r3410ThBocwiAU8At4SzhSchsphARBAQBQSDQCMAEGs4SloSsbMbhjJr0TRAQBNokAuHOLWFJyDKB1yZ/69JpQSD8EQhz54DwJOTw/1qlh4KAICAIBBwBIeSAQyoNCgKCgCDgHwJCyP7hJrUEAUFAEAg4AkLIAYdUGhQEBAFBwD8EhJD9w01qCQKCgCAQcASEkAMOqTQoCAgCgoB/CAgh+4eb1BIEBAFBIOAICCEHHFJpUBAQBAQB/xAQQvYPN6klCAgCgkDAERBCDjik0qAgIAgIAv4hIITsH25SSxAQBASBgCMghBxwSKVBQUAQEAT8Q0AI2T/cpJYgIAgIAgFHQAg54JBKg4KAICAI+IeAELJ/uEktQUAQEAQCjoAQcsAhlQYFAUFAEPAPASFk/3CTWoKAICAIBBwBIeSAQyoNCgKCgCDgHwJCyP7hJrUEAUFAEAg4ApEBb1EadCBgulRMpn1nyJTLx5IKsqUmki2NPz2SiaIiKWLZNqr/8Q2qvHnHSaJ6i6Ou/sQ2qDvZusSReSeXcSO29C5kG9CNqKKazPvPOpWyZWaQrVuSUxouTPmlZMq+TJRXQugr2WyEdiiN2+qZTLbuXZvWyS4k07n8JumOBJOJxxZBts7RROhTSgLfiNP0YrWSefsJvp8+UXduNqnxUnI82brGKax0uf6dllWR6XwBfxc8Vv4+qKqGKDlBjVdh1z+jaT/5TuZtx4ms7jrqpis8duvYzCaZpguXVR+aZHiRYB3Vl0wXGfvLZW5Lq99X3zQy7/K81b1teC8yHc32fVx8Z+ukgUSREW77IBktQ0AIuWX4ua1t3pNF5lW7iKIjyTp1MFlBlmVMlluP8T85k5FR6urJ/PlBYypZJ/I/gLnhRYaJwbyD61YwmejEOo7/+TXyBPmh3Hp7W4pYcW+91FnIvOGw6guSbcN6qT5SLfeB/1FNu/eo0mjXOm8UUQyTqyYR3JeqWjJvabqdOoifYqLIdOoSoS0lcZ3IsniS/WGhtYGjxUamvVlkKq7QpxJxeVuvVNU/rQ0QpnXhOLL1TnUu6+WVef8ZMq/Zq/qEB5N1ymD1vZjO5pP5swOqFVuvFLJeN9H+ANG3y1xsOsaY8IPISdDP/g24guzP5DmybUn8EHFFyLhfw/eCwrZ+6YrcTCdzHHVxYh3djx+QRWTiB6Umqix/t+gH+mMUGxO2epgigx94pv3nyFRoIG/8Fvn3ZDOZyYRxHb3AJF/k3FRiZ7IO6kHEvxFTOY+LHyLa96CaHt1XCNkZsYBeCSEHFE57Y9BiFBnzpXX+aLKO7++4i4W13YiPdpLpwFlHGk6s04cqjVH/D6vSrx7rKGedMZRsfVIp4pX1jjRVZsEYRTAqMbYToRz+GaEFWW6eThQf4yiv+vb2Zsc/q3X2cLLOGu7It4zsQ+ZP9jLxnyT1UDl+kSy3zXRoyyA0pW0zOZg3H3XUg3ZmuXOW/ZoJG300FZSqh0fEfzeS9coxZJ08yJ7PDxjVR36IRLz5paMNnFi+coV6i8BDBcQe8fYmRUxoD1qndb7hAeFU23DBD7mI97eRRnh4YFhun8kPOH5osdgG92DyT+EyWxXxRPxzDVkXT1SEqLWEh6lpSA+K+MfHWpI6Wq7mBwQ/yBxSXafwcPWgcpRpeCUAYVvuuoKoS6x9bHpCZqJHHyCmEzlq/OqCCRRvSpYBGRT515VOD2V8H5brJ6li+GOdMYxM/FCLeO0LR5pK5+8Z41HnGBePP+JZw7j4t+Q0Lgu/zRw6R+YVO53akovgICA25CDgasLreIPYuhle+5kMLNA6XYjSdA3pypSgS4OWaONXbb1A02sibIKwThjgRMZKc/5wu4OMQQzWmcOaVAV5Ou7B2riZCQsak5OkxDtdQrN1CL+y26bZ//G1NEXebBLRC8jQKDZ+oCiB2YIJyLpgtKOImTXqCB+IwfzlEQcZoxHrovEOMtYaVW8HugcmiEc9SLQCfLR1ZdMJtF696MeLdH4zsM4dyVozvyW4k4bhW+6eo8jYXTEtXY3/Wu6zkobK/DCz9XO+h21gd62K44gHt1GUlq1LtMEk1Ny4+I0IGjse3CLBR0AIOQgYw9aniemgsyas0lljdfkDZzLCP6FeXL2eOswTDQWNZaAF43XXNqSnvillg9a/otomMmEb7buowWk2vJo2CMwK5i/sJhAtzaaZUbQEwxEas5MwscNm7atAq7b1aHyomVhjV/bPZhoy5RQ5mVVAWrDDuxIbvxXoxbx8O7N3AwHqM9yc416mLDZZMG7KxOSmHJIVYbNZwFuxalq4993xtunmy2E+gudAIK5s4ipD/gQUASHkgMLZ0Fi91dEqXv0jVuxg+3GVIw0nIBq9qUDLtBrIwXTwnJZlP7Jt1sSvkHoxH7nA7/qN9wRpKVusjsgINuq1+/TV7JOLTimNFzZ+TdeLsnsbxqDPb3LuauLHB5JztIeHQ1+2teokYi3bg5sRzTasFXOljTvlsX1VEzUZ68JOq+UbjyaeRNUmOm390pweZvqymCRVk2L6xObO2X6vNO+ERrNTc1UClW86ndtoWktg2zK0ZJ6MFgkeAkLIwcBWm2BraBv/sLD7KZLQJuQ68Suui9dA4+sntFO92cLMEzGYKHR61QRJnytwjAQkbh3Vz0n7NV0ud+RrJ020WC2Dj660Sf0kk66o69NCw/0wCQYPDn8k1dlEQ6X8cKt0nth0apZNI/pJNuR5vDdIn71f9KLHXJ/e5LyGbcc8aegQJixXD1rkwwvG+P066nk4UfMLibEeSgQnS9OOtdbVuHQPLi1djoFDQAg5cFg6WtImThwJDSeY8In88wq7B4FOo3UqB7Id4fwKrTTehkKm3afJOqYf2Sb0d6qmmS1MReV2c8VQZ3MFYYLNKPxQcCvsumYUr00OeNU1eIxY2INBm0wzttvctasHh8lI+LpGTKWVuquGU7bxepQ4Zw1UucZ5qoCHIJuFMCGo90LwVCVoefyAUlo93Cx1H7/uB+8KxtbMXiku5yb8alQqeYuAvH94i5QP5aCNWW6aav9ndVHP/OVh5bpk5TLKT9dQxjqyN0XozBLKI4O1abvfcCG7gI1Xfr7mT+0uW6huZq8N61Vj7S5R0Eb15grOd0mmDd4Ghts3XsLWCW20QUz5jW5YWpp2VDbblbuUG5teO1UPD3YzM2qgWj1vjph8Mgq8SNyaIQoM7l6o3Myrto0J2e57Yb8T3M48ScRbmzxlhzRPaeh6Lb0Fd4dHjEjrISCEHCTsMXtveeBqMq/e7VLTgHZlfncLWb6xgAi+vTpR/rx4NWzw5VVmCy4P04fD7YzLw+MCix2UQGPjRR6mQ+fJOpIn5Pg13EkM93DK8/LC5kmjhv8xm02cfF/5wWCFS15z2mlz93cxoeWxL67G6qP92tYp2mOvrNfwQ5EnYfEm4DRmj7WCk2kd159sUxpcCrVbsNkm4rlPtCuvj1b26rCxeQRzBqasXK/rScHAIODMBIFpU1ppQADaL/xN4ftq1FhRBO5VpsPnm+IFVyN29NcL7MLmPafJpnPRsrHpQi/mjezmxa+sNqO5ggu51FDdrAx0tMm+tU7iwQYM1zDrjVOcimMBS8SaPc5pflyZ2ATSRIxeHLoCrkwcVGsYi648Tk3Vtc4phjcM50zGk+3awNlyzxxjVuiv8UbEvzXjx5+OqDbY1m25g3+zHr5vf9qWOs0jIITcPEa+lWAbXMSza4h4skcTTOZY7p1PlltnOE/GcQF3tkosb9WLWnDAWrB1WG9HstXgCYFZceVdwcuem4hh0krlaxOMTQpzAvyOGzR0LdvGS6o9CbR344QWHiQuHzqeGjLmuegnHgBuBQthjJNP5S5IXd+AwYPEluF5rI6qeAtgDbXdCSY6jVo3D1JN7Bp+F+1u7K04ICHkQIOPGX6skgM5GkSttPr6fOfUmnrn64YrtUyY/9n1Agd9p9d/dokyasPKbc5oruBGsNDDsdijoVF3DwNkN/GogBaW7uyJ0NCM00GtJjRorxFsW6YSFxNtTjXdX5hyCp0ylddBM/bvJu6D/ObgVrAqEEuEdWJ0tdNlNTlVvsWGScEmhdpggq1niloUo3UdprOIf60ll5OmWiE5tggBIeQWwee+MpYduxQEngGxasJapUthUnUqx4VsY/s1KarsxbpU21BnzdqRxQSmLcnV0hC3wp1oXhtavmURe0k0MzGmysLcolvGq9JYo4rAYgvDSj2tbY9HNquYtx53FHG3utBRoOEEvrt6LVmNx42JxnT6klN1xLpwFVjJqZDuAg9FKxbZtDOB+cK6aIJjVOZ1+9W58cHuKCAnLUZACLnFELpuABMisPm6EsckEL9WWw2r6fTlbcMbzRNKw3URXMfGsQ0cxAMt1pW5oqFReCXoV5LBe8OoGaKoinehCx6EB0OTFYQ6k4xqnuNXaKIWQBiWZGPyUU+sqqyxDSRadEu0WXNFECRHMCWYB25gO7ULlzzt3o4jvz0oV7uGBLXaULek3VEOhI/AQw0CnK1XjNAu7Udo0Ea/Z93iH+fCPl4ZX/9dmGeatGjsi6s6Rvs/GtF9R6pNV+PioE9NhB+k5o/3KA8e5dnSzNtJk/qS4DUCQsheQ+V7QfOq3YSJNn1YTdhTNRK0QPvQBf4x3kF5VDTEGrCNzzRm2695RZz2eu7OXKGvqIL8QHtsEOUFwh4cmigfVPYM0QQry6y6AEdIV77O7M2hF5g49BHRXJkusDDGUQYhOBHa0iBYjKDa4tWHEW9scCx/hm92/beu9vjAMTSlguTAbq89sJRHBExJTERKmNhUGr+KQxDrwcqTWU6Ej4cC98loTzdhdaRxIlC14sMf9kU3BplCbdW2m2ZUtDeD9wMe/PhOHIKAQLq3Ci1dzUNoMUncjAvukwjhioU3+B5U/JAX1jlCenp64Gv3kaP/CJimT53q4pHoW4Oblv3JtwrNlC5+9aVmSoRxNms8kX9YpswNpsuIN2y3f2LGWnkLsDaDcxXq0bCiz9WoQOjmLw5R/cPX8YSd8+IFrTzczSJeXa9m/L0NUQlvDPNq9htuCL+oXkMjOSxjAznDUwGvq0ZfX8QxNi7B1vqBo/LBvv9KlYS2I/79qT5bnVu+MpsiXt/QJF2foFYiZnBkOZ5cQzhOW2a6Ptu3c8Yc3h4OosObBGvCDpdBvKmwDzd8po0S+fi7xiSnaxVp7T52XfRRmsMRzcGDQ/99Rny4wyWBa7dW0fDYX11Fg9MSXRzRbsQr613kNJ+EqHII9dmWJenurwe0+zNu+EHA2hNCDhiUDQ1hUo/DRjqWyELTwKoyaFPxne0B1z358xr7w94BWKTgaM+Yj2vckzVW2wg2cbiY0HNVxZGGlVkcjIh40YeJNSsQMVy6nGIgOwq38RO8okOTRGB+1gKVGQhj5TgNIh0HgXAmZF59IBJQBOAupA+HiAhu/PFb2KTh1J6rhnBPQ1AiV8VcpmF3D0ws8qfFr0oubxBGiWz7xEQVwWc3jLolXREENATEhqwhIUdBQBAQBFoZASHkVv4C5PaCgCAgCGgICCFrSMhREBAEBIFWRkAIuZW/ALm9ICAICAIaAkLIGhJyFAQEAUGglREQQm7lL0BuLwgIAoKAhoAQsoaEHAUBQUAQaGUEhJBb+QuQ2wsCgoAgoCEghKwhIUdBQBAQBFoZAVmp18pfQLjeXsW0yOVNM3N5STXiW/A2TCrYEeJLcNQ44uXf5vUHVawFBOCHqMA35/LdDwnLurEykEOQEsfzUKvmjEu9OVC8mYPa+yy8GtJVLApjO+gzgg2pmMrGTL5G4CdHjAsX+Z6S1C4vumBRJg5vajqRw/hxLOZajmLHmwSonUb6pBFiPANb7L0oIghoCAgha0jI0Y4AB0cyr9vHoUOz1DWWbavQm0ykKoRmw27S2JIKwYMQY9mxDBl72XGIRxVVzICn2icQ++5xnA9H5DQO8mNZzMFqGghdVUFoR4TE3HWqMexmQ1uINGbrxvdFaMly3mn5bCP5q+BILoIDOXWD44mYNx21E/LEgY4ocPoyaFORtnZPjgBHHFHPdDJHX8wePIpjjGjBmJCJaHE2EDLCVXJQfkSJU7FBOGIeQpJik1hEvCP0AeX141Yp8qejIyCE3NF/Abrxq52jeVt7xA6GIISmdU5jqE4am0mmCQMo4u1Njihxuup2DRpxMVjrNW+2kw7yQUqWO2fZizJhI9IY9hNUe+7xLscqJOjkhk06OaKd2gaqC2+0uWKnvnmy3DzdOVwpyB/R8FzFOXaqab8wayFD8dDhMKiIjtZU7I8XRJvDfojE/QDpRugJGXGZ+UEEgQYMPJQ0PJkQwlKF7OREtbN4w/ZZKk70oB4U8Z/PW31jVHuH5W+4ISA25HD7RlqrP0xSEe9udpAxwj46kXFDv2w9kqme9wf0KCnxztlMYA5hc4Vt2mDHJU4UebNWqRdrJgfeN0qsYSdo7L6yYLTSTI1FXV2btp90JJt4V2WX0tANy91zFBm7LKNLxNsDdmq2i72y6UuOga2lGLFAn68crWXLURBwQkAI2QmOjnthBomUVjkA8BjzlrVGxA92Jzaz558VNGYn4XjFJg6J6YsoezVMFqyNW3U7cbtrA+YWx04tXEjt+K0zeejrqT3yEr0PyWkd1steHXzM5hTtDQOJpuPOpg6kKTOQi91fkCfSsRHw/J/TsbHpMKNHjGDz1mNO47Wy5udJrGy68HubeLbJNhFtF48mGa4TTNglg0kWAgK1jerjumBDqmYT1xdSdmp9Ap8rswLbfH0S3i4Ke/jZEth+zDuh6CXivS32NwBtp46GTOvCcWTcWVxfT847JgJCyB3ze3cetasdmXXeAs6FG6548s3y1blk1e3757Kcq0QE7NcLmzR8InfYjrGFkibs8WE17OGnZakjNglgu67a+FSXoXYQKa3UpTAh80Rbs/GnnWrYL5TXRmIsEWJf6000nI1toiL/vorMu3mPxYaNVtWuMfrNbl20KUkdDwEh5I73nTcZsdFcoLZPalLKRQK7j8EDwSfhnTpAUHpRm5F6s3EmzAEXCymCJx4dnhr6htycmw+cI2IThHXaELvLnq6cK81Zl+3XqZqUNNZkswz2L4x8ZhWZ/HHrM7Yn1+0SAf6PEunoCCiPBz0IBg1Pn+XPufLeYDcw2FZNZ/IcTcBv2DZlMNkavBAcGW5OIp9e4SbHQzK2t9p50m5nhr2ZzRER7GusCTw04E3i84NFa8DFUdm02R6v9zRxFMP+fsu3k+34Rfuu2HioiQgCDQjIr0F+CvxObXhRMtg7FUTY26+u3i1atij+Kbkzc8D/mDdi1U+q4bXeumCMWnDitlFDhuXr7N3B5g74CesnzgzFnC7hV4yyloaNOW2De9j9j9mrRAkfYbrwOInp1KIXFyB+2JT7pJL5k33O426ojnua4XFxjeah4UW7UqTdIyCE3O6/4uYHaEtP5E1SG8up3bEbL9UZNEm16gz+w0bByrdx/ZULmjEL17au8Yp8I15c15jdsBO0ZcnkxrRmzrADNfECCwt7KET+bWUzpe3ZsNsqmzDsuxA2sVjZ5xn+y5pgbBpha2mBOMIebflmOpn3n1E7h8PvWi+qbzCjsM+ziCAABISQ5XegFm44wQDiwOSTzj5snTeKiD8Rb35JptO5TsXrH7qWiLU9T4Jl17Ctmr887CgGW6qJvTlsvk4Msj3YNrqvox3tBMue1bJuLYGXYauJO76O/MMyLbWJ/dnEk5pwo8NKwJYK+mDeepwXsUyzN8WrF9XDijV02KvNn+x1vgUvnyYhZGdMOvCV4V21AyPRgYdu68mxKQy2TNP5RjurHhpjvAhFgM2QsVYftlqjD3IE25apxNnTQSvv6Wjt3429GdjNrEFMvPIODwu9YMUcxmX5ymyy3DK98cPXWPiiFzPbmQMiMIEcyybih4GTQDNn+7XljoYVi1qmBzOQVkSOHQcBIeSO8127HynsufOdV4+pmBOuasBWrJcE7xdQELTF6yfpayttFZNciP/gi9hG9GbNs2Hpc00dRbDmaeOgPQ5hv2Y1YYeJQ8SYMHysU51XCyrPB4MLnKMtP07Uw8BFPdv/b+884Jus1j/+S7oZpey9994bBAQEFBAVFAUUVByIe1z/6lWvV+/1uieKA3AAKspQRBFE9pa9R9lldQHdbZL/c96SkpaOpEneJm9+5/Npk7zjjO9Jfjl5znOeU7+K5vGRc0qCLDGRgJ0ABdlOIsAflbg5/tw3q4UXcZeupmLJvfDh6gtkdZoIZK4kfsP2pC28yOMzrAUtkp/5jsnkcE/OcUs+oi3XBc1aqcXFUHnbkzZKFdOLNolnP+jwqNmV8/wqMDssrXa49CoTR15bcK5rL79Qrn2OgYdyrkmXycTLKyIVb2c9THLu5xNDE6AgG7p7XWiceAZYRve6MuqUn95mCfyT15zgGGEtv9zVqj+TPYjP5QuUMCkbrT3lZ7pQUdByrhEvj/xiTWgBeyRimzIHqEhzyh4dPHVxTqAjm4QGVUm51gVJxDot5Sfs6oRaUScR7ByTecOB7Gh0jgflC0gtKsmb7LbpvMcdXwd9JUGEHBewSJnmlbuzL1EToUMlQJFwZyIBOwFTj27d8hl22E8797hm/jvOXejkVYnfTHPySl7mDQLKXOHorqV5ASg7c6KI7WVh1cJKtqqTHTHtst+yMhGYl1wWwnwqplanWSYO1M4oQQ2a/udVVymRMi/MHeXtqosKOGB5aIg2GRk09Y/cV0j9sh4blnNMiX9+IULtF1hu6Q5bs5qayaOw9qjrLXf2zWWPVhOeypZtlfCeKmSn5p4n4murUEbc32SFonzR2ST2hUXFAinITdBeET56hUDUuLs9mm/PEU94LD8KssdQGjAjNVJVZgtxdTPJ6M6mXMfkz6bsxnlGlwZsffGapJZpJyTneGxogqwmLZXXinhT2CQwk6P3SvEK4V3uEPBlQc4zQ+NOM3mv4Qio3T1UfGP5c/tnlOHgFNAgiWVhU/EsLift1wXd2uw4+FgEAdqQiwDE0yRAAiSgFwEKsl6kWQ4JkAAJFEGAglwEIJ4mARIgAb0IUJD1Is1ySIAESKAIAhTkIgDxNAmQAAnoRYCCrBdplkMCJEACRRCgIBcBiKdJgARIQC8CFGS9SLMcEiABEiiCAAW5CEA8TQIkQAJ6EaAg60Wa5ZAACZBAEQQoyEUA4mkSIAES0IsABVkv0iyHBEiABIogQEEuAhBPkwAJkIBeBCjIepFmOSRAAiRQBAEKchGAeJoESIAE9CJAQdaLNMshARIggSIIUJCLAMTTJEACJKAXAQqyXqRZDgmQAAkUQYCCXAQgniYBEiABvQj4piAH5d6eXS8YLIcESMDgBHxcW3xSkIMrVTb4u4LNIwESKAkCvq4tPinIoY2blkRfsUwSIAGDE/B1bfFNQa7fEGEtWhn8rcHmkQAJ6ElAaUqoaIsvp2BfrVxExy4IqlARGQf3Iyv2PGCx+GpVWS8SIAFfJSA2Y2WmUCNjXxdjhdBnBVlVTgH0B4iqrkwkQAIk4C4BnzRZuNso3k8CJEAC/kiAguyPvcY6kwAJGJIABdmQ3cpGkQAJ+CMBCrI/9hrrTAIkYEgCFGRDdisbRQIk4I8EKMj+2GusMwmQgCEJUJAN2a1sFAmQgD8SoCD7Y6+xziRAAoYkQEE2ZLeyUSRAAv5IgILsj73GOpMACRiSAAXZkN3KRpEACfgjAQqyP/Ya60wCJGBIAhRkQ3YrG0UCJOCPBCjI/thrrDMJkIAhCVCQDdmtbBQJkIA/EvDpeMjeBppx+CAyT56AJS4W1pRkwGbzdpHMnwRIwFUCJhPMpUojqGIlhNSqjdCGjV3NwW+uD0hBVkKctn0rrMlJftNRrCgJBCwBGSipz6r6yzx+VPvshrdtb0hhDjhBTt20Hun79gTse5sNJwF/J6CEOWXtKlji4xDRuZu/NydX/QPKhkwxztX3fEECfk1ADazUZ9pIKWAEWZkpODI20luXbSEBaJ9p9dk2SgoYQVY2YyYSIAHjETDSZzsgBFl9g3ICz3gfRLaIBBQB9dk2yig5IARZubYxkQAJGJeAUT7jASHIys+YiQRIwLgEjPIZDwhB1hZ9GPe9yJaRQMATMMpnPCAEmSvwAv7zSgBGJ2CQVbaBIchGfzOyfSRAAoYgQEE2RDeyESRAAkYgQEE2Qi+yDSRAAoYgQEE2RDeyESRAAkYgQEE2Qi+yDSRAAoYgQEE2RDeyESRAAkYgQEE2Qi+yDSRAAoYgQEE2RDeyESRAAkYgQEE2Qi+yDSRAAoYgQEE2RDeyESRAAkYgQEE2Qi+yDSRAAoYgQEE2RDeyESRAAkYgQEE2Qi+yDSRAAoYgQEE2RDeyESRAAkYgQEE2Qi+yDSRAAoYgQEE2RDeyESRAAkYgQEE2Qi+yDSRAAoYgQEE2RDeyESRAAkYgQEE2Qi+yDSRAAoYgQEE2RDeyESRAAkYgQEE2Qi+yDSRAAoYgQEE2RDeyESRAAkYgQEE2Qi+yDSRAAoYgQEE2RDeyESRAAkYgQEE2Qi+yDSRAAoYgEGyIVrARJEACxSKQmpmFmIvJ2H8uEUcTLqJJ5ShULVsKUeFhiIoIQ5nQYJhMpmLlzZtcJ0BBdp0Z7yABvyZgswGH4y5g/u5oLDt8ShPic8mpsFhtMIv4lg0L0QS5vAhydRHntjUqoX31yrimQQ2EhwT5ddt9vfIUZF/vIdaPBNwkYBMFjk9Nx4nEJKw7dgZzd0VjW0wsrJJv2TJlUaVSbXTq0gJNGrfA0eOHcSrmBM7Fn0VM8iUcPBGPPw6dErG2YESLBvhiZD8EmTlidrNLCrydglwgGp4gAf8mkJ5lwaojpzFPRsLbYs7j5IVkXErPQGhIGNq37oKunXqiWtVaqFihEkJDw7TGtmjeVnvMSE9Dckqy/CUh5vQJzPxpmtyfhAyLBRFmyoa33hkk6y2yzJcEdCaQabFq9uDo+Iv4de9RLNx3DGeTUhAaHIry5SuiUaPG6Ni2M9q07oRSpUoXWrvQsHCoP3VfmHoeGg41LjZp/wu9lSfdIEBBdgMebyUBXyBwPikVC/YcERE+hsPxF3DmUgoyrVZUr1gdN3QZiHZtOqNC+UqIjIyC2Vx8xyo1ucf5Pe/2OAXZu3yZOwl4nEByRqZmfthxOg4/7TqMvw6dRIYIcJmIMqhYsTL6tmmOLh26o0GDph4tW4kxPS48ivSqzCjIVyHhARLwTQL7ziZgzs7DWBF9CsfFnhubnCZeEcFo1rAlOnfsgfp1G6FSxSoID4/wSgOUBwan87yCNidTCnIOCj4hAd8iEJ8inhEXLmkTc3N2HMLOM3FicghCubLlULVaQ/Rp0grdu/ZBlNh59UjKuYIjZO+SpiB7ly9zJ4FiEVgRHYMXFq/HscRL4hmRiTLhZdClbXd07dwb1avV0mzCwcH6fnyVGNPjrVjd6fRN+vao09XihSQQuATUoo0nflmNk0npaNm4DTqLPbh9my6a10NJUqHJwvv0KcjeZ8wSSMBpAmop8yMLVuGILGO+adAoDLruJug9Ei6osmZlQaabRUF4PHKcguwRjMyEBNwnoMT4yYVrsP7kOVzTpR9uGDLSpwRQsyG730zmUAiB4jslFpIpT5EACbhO4NutBzBXVtU1rNUINw2/w6fEWLWGPhau96mrd1CQXSXG60nAwwRUrImlB0/i+d/Xo3Tp8rh73CSUFU8KX0lZWZnIysqgtUKHDqEg6wCZRZBAYQQOxF4QU8VqhIWXwj13PIAqVWoUdrnu59QXhooQR5c376OnIHufMUsggQIJxKWkaZN4MZdScf21w9GsWZsCry2xEyLGQHZozhKrQ4AUTEEOkI5mM32PgFoC/cTPa7BJJvEG9RuKgf2H+V4lpUYyPtZGyMrtjcm7BCjI3uXL3EkgXwJWsQFM27QPiw4cQ/PGrTCo/3BtFV6+F5fwwWyThY1xkHXoBwqyDpBZBAnkJfDdtoP47/K/Ubl8Fdw9ZpJM5pXNe4mPvaYg69EhFGQ9KLMMEnAgsPXUefz7z80SZ7gMJt75sBZz2OG0zz21T+oF0WTh9b6hIHsdMQsggSsEVOziSfNXSuD4NIwaPga16zS8ctJHn2mCLHbkIDdiKfto03yuWlyp53NdwgoZlcDFtAxMmrcCB2VHj2EDhqObRGrzmyQ27+AgTup5u784QvY2YeZPApcJvLtqO1YciUGbpu0waMAIP+Ki+b0hyES58HankbC3CTP/gCdgsdrw7Zb9eH/NDtSoWgcTxk5CeEQpv+GiFoWov2DG3vR6n1GQvY6YBQQ6gb/Fz/jlpZsQFVke48c84AceFfn1mJgsaEPOD4xHj1GQPYqTmZFAbgLHE5PwgNiNL2VatUm8OrUb5L7AD17Z/ZA5QvZ+Z1GQvc+YJQQogXhZFj15/grZhikZtw4bo+324Z8oaEPWq98oyHqRZjkBRSDTYsU7Mom3+ugZdGzTFT27X+u37c+2IXNhiB4dSEHWgzLLCCgCaln0hzKBN3XDbjSp3xRjbr0HoaFhfssgNvYsLFYrbcg69CD9kHWAzCICi4DaoPTDtTtRIaoSxks4Td9fFp1//1hFhHfv3ooZ301FhfAQDG5WJ/8LedRjBDhC9hhKZkQCwIHziWI3Xom0TODOWyeicuXqfotlz56tmDbrE5QJAabe0heda1Xx27b4S8U5QvaXnmI9fZ7AOVkW/eDcFTifmonRN45B8+Ztfb7O+VVQjYyVGH864wNEBNvw5tCe6NewZn6X8piHCVCQPQyU2QUmATXx9YJswbTtTCx6d+6Hnj36+y2IfXu3aSPj8CArPh7RB4Ob0lShV2dSkPUizXIMS0B5VLy9cht+2hWN5g1b4I5RExAcEup37bXJyHjfvu34ZMb7CDFb8Oqg7hhEMda1HynIuuJmYUYksPTQSXy8bieqiL143O33I9hPPSoO7N+BL2ZOQbDJgveH9cbwFvVlp2kmPQlQkPWkzbIMR2Dn6Tg8JIs/EBSKO2+7VybxqvldG9VKvBMnjuDTrz+E1ZKGfw3oImJcj7tMl0BPUpBLADqLNAaBmIvJeGjBSiRn2TD+tgloKlsx+WNSYjxl2juwZqXhHZnAG9m6IXeYLqGOpNtbCYFnsf5NICUjCy/+sRG7zsSjX7cB6Nyxp981SBsZH4/Gh5+/gZSkeDzfryNuoRiXaD9yhFyi+Fm4PxJQk3j/kuhtc2USr2u77hgx/Haf3aC0ML6nTh7FlOnvIC31It64vgdub9cY3Fm6MGLeP0dB9j5jlmAwAj/vOYJvtu5H7Rp1MHLEWP9bFi0245Mixh98JiPjlAt4pk97jG5LMfaFtykF2Rd6gXXwGwKrZMePp39di5CQCNw7drJsUFrJ5bpbMtNhDgqGyRzk8r2euOHUKRkZi804OSURr17XDeM7NZP98uhP4Qm27uZBG7K7BHl/wBA4InvhPfHLGqTZgjBB3Ntq1qzrUtuVzTb68H7848VJWL1ykUv3euRiKT9GxPijz99E4sVYPNKjDe7q1JRi7BG4nsmEI2TPcGQuBieQnmXBYz+vxuH4CxjafwRatujgcouVzfbzbz9EhuzgXL1WQ5fvd/eGc+fP4JNp7yLxUgJe7N8J93VtyQhu7kL18P0cIXsYKLMzHoE0EWNlplh97Ay6t++NG4fdjqBg18YycfHnMXWGEsNE3DxoJBo1aqErqLg4Kf+rD3A+4SweFCFWYhwSxI+/rp3gRGGuvaucyJCXkIDRCHy39SDm7DyE+rUaYNRNY1320U2Ij8Wn095GbGI8bh9xF3r37K8rIiXGU6a9hVMxx/B/fTvioZ6tKca69oDzhfEr0nlWvDLACIjJFcsPn8I/fl+HUqWjcM+4yYgsV94lCsnJlzDrp2k4duqY+Cv3l51D+slknn4fu3gR40/Fte2kiPG9nVtgUo9WCOXI2KU+1PNijpD1pM2y/IrAobgLeHzhaoSEhuNuCTRftWoNl+qfmpqMGbM+xdbdWzCk7zAMv2GUy6YOlwrMc3G8mEmmyMj8RMxRPNm7HR7v3RZhwSXj2ZGnanxZAAH9vqoLqAAPk4AvEkhITcdjv6ySDUpTMLjPUDRr2tqlamZmZmDxkp+xfc8WtGveHkOuu1Fc5fSLAJegbNbT38XxU0cwrn1TPNarDcXYpR4smYs5Qi4Z7izVhwmoZdFPLlyDdcfOYki/4Rg08EaxGzs/drFaLVjw82z8sfp3tJT4FhPGTkKpUmV0a3G2zfodRJ+MxuTurfFsvw4ID+FHXbcOcKMg599lbhTCW0nAXwgoX+Gv/t6HhXuPolnD5hg8cLhLZgYVU3jN2mX4c90S1KlRF+NG36frnnqJCbH4Qrw5lBjf1qYRnunbAREUY395+4Ffm37TVayoHgTm7DiMV5dtRlTZ8rh77EMui+nqtX9i9vyvEFU6Eg/c/QQqVKisR7W1Mi5duoDPv/4AB44d0ibwXhzYCaVD+RHXrQM8UBB7ywMQmYUxCGw/HasFDQoJLV0sMd0lk3dzfp2NyDLlMOmeJ1Gpon6bgmreHD9Ow/7o/bi5ZQO8MECJsexOyuRXBGiy8KvuYmW9RSA+OQ0PzVuJ05dScfP1t6FOHddW0kWLEH4pOzTbMi24+/YHUKtWfW9V9ap8lRh/+c3H2LRtPe6UCbx3h/dE2TCK8VWg/OAAR8h+0EmsoncJJKVnYtL8ldgnbm6D+w5Br14DXCrwlPgYTxVTgSUrCxPvehhNXPTIcKmwPBdrI+MfpmHH3q0Y2qwuXhnURcRYP2+OPNXhSzcJcITsJkDe7v8EPli9A8sOn0Trxm0wdPAolxqkJtG+/PpjxCXEYeTQ0WjVsr1L97tzsRLjad9OwYZta3GrBJb/8MZrEBlOMXaHaUnfyxFySfcAyy8xAharDXN2HMLbq7ahVtXauPOO+xEeUcrp+ly4EI9PvnwHMbGnMPrGsbim9yCn73X3wpSUJHz343TNz3lg41r475DuKBdBMXaXa0nfT0Eu6R5g+SVGYFtMLF5cshGRkVG4a8wDKFeugtN1ycxIx9ezpop72WH07zkIfXpf5/S97l6oxHiGjIy37P5bM1O8N7wXypcKczdb3u8DBGiy8IFOYBX0J3DyQhIemLccFzIsGHnD7ahXt5HTlUhPT8O0bz7CjgPb0aN9L9w2coJuq/DSUlPww0/TNTHuU78G3h7WExVKhTtdd17o2wQoyL7dP6ydFwioZdEPL1iFIwlJuHnwrejW9RrnS5GFI3N/nqkJYpsm7USMx7sc/c35wnJfmSGj8h9++hqrN69G/0Y18dktfVG5dETui/jKrwnQZOHX3cfKu0pAbVCqJvFWRsegfZsuYve9zull0VniRbH4j3lYtvoPNKrdCPfd/RjCwvQZnSox/vX3uSLGK9C9TlV8JBN4lctQjF3tf1+/noLs6z3E+nmMgFoW/cn6Xfh43U40ED/ju2RZsyuCunbtUvz61y+oW7MB7h3/iEv3utMIJcZz5n6NFeuXoWfdqpgqI+OqZZ2ffHSnbN6rLwGaLPTlzdJKkMCqI6fx3urtKBdZARPGOL8s2irxKXbs3Ixv532NsqXL4u4x96Nipaq6tERNHv62eB5WbFiGDjUr4tOb+6AaxVgX9iVRCEfIJUGdZepO4LAs+nhIFn+kZgCTxk10Kbbx4UN7MGP2p7IkWuJT3PUoatSsp0v9VQjPH+d9g7/W/4kONSpi+qj+qB5ZWpeyWUjJEOAIuWS4s1QdCcTKsugH567A2ZR03DL8drSUxRsmkxPb3ouJ48SJaFmF9xGybFbZfmks6tdvokvNlRj/LiNjJcatqpTHFyP7oWY5irEu8EuwEI6QSxA+i/Y+AdmFCS/+sQFbYs6jW/ue6NVjgNOFql2aP53xHtIyUmTHkEno0K6b0/e6c2GWiPE8GRkvXbcUzStHYcat/VEnqqw7WfJePyHAEbKfdBSr6ToB5VHxzopt+G77ITRt0ALjbr8foaHOrWZTO26oUJbxsjHpsP43aR4ZrtfA9TtUcPulSxdIPOWlaFopUhPjehUoxq6T9M87OEL2z35jrZ0goDYofX/tDlSuWBVjb5soe+M5t5otO67wh7Ix6VGMkkUj/a8dqsvGpGry8LfF8/HzH3PRQET4q1sHoGHFSCdaykuMQoAjZKP0JNuRi8Ceswl4cN4KWM0hGHvLeKcn8bQYET/NwIGjB9Cn67Xo22cwzDrsEq3EeNWapVi4dJ4mxt/cNgCNKpXL1Sa+MD4BjpCN38cB18LTl1LEo2IFLmVZcdet98gkXgenGGgr4X78Chu2rkWvjr0w6uY7dVkSrcR48R8yMl46FzXKhMnIuD8ai+2YKfAIcIQceH1u6BanZmbhX0s2YfvpOPTu1BedOvR0qr3KdqtEce3W1WjZpA1Gyag61EkTh1MFFHCREuM1su2TEuOaZcPx7e0D0Uy8KpzwASkgRx72ZwIcIftz77HuuQhkySTeq39u1kJqdhaPiFtuGoPg4KLf4koUf1+8AAv/nI/6NevjHtklurQsAPF2UhuiLlmyAPOX/IRKESGYIX7GLao4H3HO2/Vj/voTKPrdqn+dWCIJFIvAwn3HtB2ja1SrhVEjxsnSZudiPWzcuELEeC6qVamB+yY8jshy5YtVvis3KTFeJ0uhF4gYVy0Vqpkp2lSv6EoWvNaABCjIBuzUQGzSumNn8OTCNYApFPeOnYwK5Ss5hWHjplWYOe8rlI4oi/vHPYyKFb2/S7QS4z///BlzF/+EyNAgTBt5LdrVcK6+TjWKF/ktAQqy33YdK24ncCzhEh77eTVSrWZMHPsQatd2boPRgwd3Y9a8GQgLCcPke59EjVr17Fl69XHz32swT8S4QniwJsadauu3O7VXG8bM3SbAST23ETKD/AikZ1nyO+zxY2rxxxMyMj4Yf0F27hioLYt2ppBj4tb2uey6kZmRifGj7xcRb+DMbW5fs37jSnzz0zSEBwFf3NIPXepQjN2GaqAMKMgG6kxfacqmE+fQ/r3v8cbyrVCC6a2kRP/Z39ZhefQpdG7VBSOG3+HUJN65c6dFjD9BUsolCcE5Ea1addDF13i7RIybNW86SgdZ8bUs+uhRrxrMzsTU8BZA5utzBCjIPtcl/l+hD9bswOmkFHwoq+SWHTrptQapDUpnbTuIejUaYPSoCU4FDLqYGIcvZnyAM7FncMv1o9GxXXev1c8xY2Wr/nLWFJizMjD1pr7oWb+a42k+JwGNAAWZbwSPEthy8jwWibdD09pmBIdlYvKClThwPtGjZUgQNqyW2MZP/7pWdokui/GyW7QzG5QmJ13Cl99MwbEzx3B93yHo3+96BDnhFudu5Xfu2oyZc6cjAlmYLos++jasyZGxu1ANej8F2aAdWxLN0oL5rNqOiHAbPn7OhveeNCEpK032r1uJ88mpHqtSdPxFPPrzKphlMm6CBAyq6cRknCUrE1/NnII90bvRu0tfDL3+No/Vp7CMNsv+d19IRbmUNQAAO65JREFUuZaMNHwo2y71bVCzsMt5LsAJUJAD/A3gyeYfjE3ExpNn0by+Ce2a2TBqkA23X2fCppPn8O7K7R6xJyempYt722ocu5CMwX2GomXzdkU2QS2J/u7HGdi6b6vUqz1Gyy7ReqzC2717C76VHaKDrZn4XCbwBjetgyAz1+AV2WEBfAHd3gK48z3d9B8kzGWsjIRfu9mECpfj4rz9tA0HT5jx+aY9sttFKUzu0dopW2/euiVnZGGzTBZOkf3wVoq5YmDvwRh03QinorD9LhuTrtz4F5rWbYbxYx6Uib+QvNl7/PW2LWvx1ZwvkZ6WjKk398UgEWMmEiiKAAW5KEI87xSBMxLQ58vNe9Gktgl336TCwmcnFVf9i5dsuO5B4H2Z7OssPrfd6hQ8oWWx2pCQmo7YlFTEXEjBhhNnxV4cg60xsUiVXZ9ViixTDq1atIeKPwEU/Ba2yPUrZIfonyW+cP0a9XDf+IdRWrZh8naKPnJA238PlnR8PKIPRrRq4O0imb9BCBT8bjZIA9kM7xNQ8qs2D00VO+3/3WMSF7LcZTaua8NHz5pw85NpmDx/FX6dcEOuXZOV+9qWU+ex+uhpbDx+FicvJmuCnCBbLllkBi9CYsp3aWNC55Zm/L0bWL7lomyr9AHq1KyL/jJSbte2S76j7u0ymfbTr9+hSoXKuPeuyYiM8v7S5Ojo/fj0qw9w6VKi2Ix7ixg7t0glNzG+ClQCFORA7XkPtvvUhSQsPnACDWsB/btdGR3bi1CutkP72PDifWb8+4sLeED2t3u4Z2tsk1HvKhFh5becnJkp9lVAjahVfJ0ODUzo2Bzo19mEHu2BUjJRCGTnvWSdGR/MSsbG3bvx8YzdqFOtHoYMuBGNGjVHlIpDISK+Z+82TBNf41ISJOi+cZMlHrL3J9OOHjukiXF6SiLeH9YLo9s1tiPgIwk4RYCC7BQmXlQYgT8PnsSJxEt4dIgZNSoXvBDk0TFWbNhhwqJ1MSLEMdroN0xWrLVtasKAbib0lrDFNSvbUFkEuVKUDUFyLr80sLsV13SEBJE3YfZvJnw+95gs9PgIlSpWQbsWHdGwXgPMlj3pgkOCMHHMJNTTYWPSo2KmmDLjfSQkxuKdoT0xqm2j/KrOYyRQKAEKcqF4eLIoAikSf1gtBClXxoZn7pbYPoU4EZSVTZM/f8mE/3vPhKqVrOjd0YQ+nYAypa4eVRdVbpiYMVo3sWl/T9xlwkczrfhx2Rn8tXYhFq/MvvuO4ePQpEnLorJy+/wxGRlP+ep9pCYn4I3re+CuTs3czpMZBCYBCnJg9rvHWv3tlv04knAR/zfBLKaGgkfH9gKryQh6+mv2V555VKPplx8CJt0O/Lk2GE++ZcK5i1k4ceo4smRiz5mYyMWtyfGjB7WRcXxCLF4b1BXjOjYtbla8jwSQZ/qFREjAeQKJ4g3x7ZYDkA0uMOaGosXY+ZyLd6WyPd8+NAv7Fmahl7gnb9mzGceOHy5eZk7cdeLEYW1knHwpHv8a2BkPdm+FUGUIZyKBYhLgu6eY4HgbsFmWSR+QxSADupjQ2IfcbCPFfPLfR4D09BT8vGiONsnn6f46pcR4+nuIjT+HJ65ph/u6et804uk2MD/fI0CThe/1iV/USPkLf7x2J2wmCybfYRKzQPGqnZ4JnDwDxCbI4zkTEi7akJwGqCBxpcLFvhxhkolCaDbq8uJCXFOiVSr7cVGpezsbJo0y4cMfdsjOHMvRvXu/om5x+vz52LOYNvMzXLwQi3/07YCnRJCZSMATBIr5MfJE0czDnwn8JVHcVoqnxOhBJnRp5fqknGr7opUmvD8L2HvUpglyWmZ++dgkEE+2OKvVfzd0DcdHL6bL5GF+1+Ymet9IYM5SE5auXozWbTqhjAf2yUsQW/HUL9/FsdNH8WTvtni0V9vchfIVCbhBgILsBrxAvTVNFnJ8vH4XIsJseHi0qVDPivwYxSWa8MQbJsz83YpK4trWJsSEvuJ/3C0MqCdGtFqX3d3OyEK8GBkpH5IFetsyxCacCEz/OR1WWZ035cXMIstt3kDiafQ3YcpPJ3Do8H60E1F2J8XKyPjTae8h5uwxPNarDZ7v715+7tSF9xqTAAXZmP3q1VbtP58gS5nPo2MzE1o2Knqk6lgZ2U4OE14w4bf1Vgwubcbr5WxoFmyDaPJVqa68O+vK0e5iohhXCjhvFeE+C/x9MBMqeFwZOVZYUi54z98HzPwtS7Mlt23dUUQ8n4IKy+TyuUQ1MhYxPnYqWpu8e6aPrFZhIgEPE+CknoeBBkJ2X23ej4tpGZgsbmZFiaIjD1lAhzeny8KQtVbcUcaMXyuJH3FI/mLseJ/9eXmzDRXEVCFrUCCLA51KlSvY8OSdwIkzR7B23V9O3ZP3org4CWr0+dti6z6CiV1a4N/i3hYewrFMXk587T4BCrL7DAMqBxVs/rvtB9FBVtcN7+va6PhsHPDtIqCxBFv7X6S617X7lQRWCjYhRSb9JPaQ02nUdTZtMvCvNUuQnCxq7kJSO4x8JiPj6JhojGnXFC8O6IzijbFdKJSXBiwBCnLAdr3rDVeeFWpVnkV2vnhBTAGhLkaxlFDJsluHDX0izKge5JoY22tbQQQ5Q+zJyjvD2VRfwlj062DCqbMncOLkMWdvQ4K4tE354m0cEzEe264J3ryhB0qFcmTsNEBe6DIBCrLLyAL3hmNiK/hLNhRtWMuEbm1c53Am3qS5tA2KKJ4YqxIj5E/mFGUFnvPlq+hzL9wv43FLBpavWuzUjenpafh8+gc4dPIwbmndEK8N7sbg8k6R40XuEKAgu0MvwO5dtPcYTktozDsGA1Urui6qyt9Y2ZHrFBA0yJs4G9WxYeg1JmyVXTzixFuisJSUJOE9xUxx+OQhjGzVUAujWTbMxZ8DhRXAcyRQAAEKcgFgeDg3ATWJp3aRrlHRhEfGuC7GKjd79DYVVr64KUWKDhZBL85ClPvFLzkoKBPLVy8psPhM2e5pmmyEunP/NgxrXg9viZkiOG+A5wLv5gkScI8ABdk9fgFxtxrVfrZhtxY0/uHbTVBR24qT1EYhyuvsuBuKfD7LhnDxVw4XVzhXU6vGNtStDuw+uBNpaVfPCqpdqT+VRR+7DmzFsGZ18alsvRRZnIJcrRivJ4HLBCjIfCsUSUDtGP3TrmjUqgqMvE4ciYuZKohnRSkR0+0yKVeclCRfDGdEkMuVyQ5k72oe1WTDEOUdEhd3HrHiypY3/br4R+w4sA2DJDDHe8N7MVBQXkB87XUCFGSvI/b/AtYfP4NDcRfQX+IXK4+F4ia19FnFo9iiYlUUI5OTFhNOyo2NappQMcr1DJTlYWgfICk1GTGnT+TKIOlCHDZuWgWTeJKoTUmjIuSbg4kEdCZAQdYZuL8VZxV7xdsrtyE02IrnxNWtmAvdtGZXlyBBNSQ40CEZ5apl0a6m39MkzrHcN6xv8etxfW8JTiQudztkcs+elG/y9Nmfy+aqSbIsG0iToPtMJFASBCjIJUHdj8qcv+sIdp6Jw4QRJjSsLTYDN5KK3ta7rYxyRe+Ouqh5anT8WqIN9aqbcMf1xa9EVFkbWjQ0IfrIIS2ThPhYzJj1iUzibdUiy6nFKgkygclEAiVBgIJcEtT9pMxMiYE5c9sBbRLttus8U+nxI2QEKrr+farz691OWc0YGWtCkoxs33hCJvQkqJE7qXUjCfeZeB5nz5zClGlvYYcEsn96rMTYGGbS1g7GurIM0J2K8F4SyEOAgpwHCF9eIRAsu190rFkZaenAjAUmbUHGlbPFe9ayoQ1DugVhvS0EF2yFi3Kq6O7mdBNGnLfh7wwrxt9gxpBexSvX8a66NcSGbbPgjQ9elsht0bj/piD88wHk2KUvpbmwDNAxYz4nATcJcB2omwCNfLuSy8cl5u+2mFh8/esJtG5kxqPjiu9lYWf11pOy1dJTJvQ7DTQLNaOdjHgbiW9xTflTpuVo+bdJvgQ2iCLvFnuzTVzc/vuwGQ/eZpWQn/Zciv9odytOz7yAtx83iTnGqo26l28GQuRkuxqVip857yQBNwhQkN2AFwi3RkhUs1eu64Kbv4nDW9+m4NpuJrQWf153Ut2aVgzokYXfNtjwZ4IN8yTeT7qYbe25qoD0pWWNdGWZBBwo9t6nxksIznbufxHY65yRbkYF8aV+WUbF9420aAtWTpwxYc02G65tVBtVyqgF2kwkoD8BCrL+zP2uxCaVo2SbovZ4+tc1eFwCy/8xVXbxcMPYFREutuCnLHgmQWIcJwKXJJTmxWSZ7JMVzWoFXm3xd44sbUNl2bS0emWbtjLPk9AeHWvDbbLTSZtmajyenWYskPgYEm95lMStYCKBkiJAQS4p8n5Urll83e7u3Bzrjp3BT1ui8cpUE16YKELpxrtHuc8pwVV/2ck+Pra/9t5jlYpWVJFFIvakwnn+sVbqUiYcbao7nLBfwEcS0ImAG+McnWrIYnyGwAuyZVH9qLL46Htg697CJ+R8ptJOVORYjAkHT8n2UdK2WmoZIBMJlBABCnIJgffHYuuWL6vtI5ecbMak/6gdov2xFVfXeecBteu1DQMa14aymTORQEkRoCCXFHk/LXdEy/p4qEdrbNlvw3PvecYVrqRRzP5dVv6JC96tbRqVdFVYfoAToCAH+BvA1eYre/L9XVuindhaZ0qs9yVr/dt0EX/BhCXrbehapyrULwAmEihJAhTkkqTvp2Urt7DXh/RAZoYZj7wOnDrnv6L87UIgVVzuRrdt7Ke9wWobiQAF2Ui9qWNbutSpgn/KJN/xsyZM/o+Imngq+GNasUmC1osPX3xqOs4lpeb4QvtjW1hn/ydAQfb/PiyxFozr0BRdxWl4sfzkn7PEP99KY4eaEFXGhlf+3ISbv/4Ns7ce0LaZKjGoLDigCfjnpyigu8x3Gq9203jrhp4oExyOJ960Yf8R/zNd3DTAit1zgXuHi6dFVjweXrASN371q+Zzna52U2UiAR0JUJB1hG3EoppWicJ/ZEfmpFRxhXvNhMSL/veWqlzBho9fsOH3jyW052AzVh89jdGz/sA9c5bhUOwFI3Yb2+SjBPzv0+OjIAO1WjYJYH/6YgosVitWbrNi6o8SDEi/RXcew642YG3b1Iav/2PFrx+Y0appJpZGH0PfqfOx7NBJ2pY9RpoZFUaAglwYHZ4rksC83Ufw+ootCC4na6Cr1cUrn9uwcIX/mS4cGzq4lxULPwC+eNGEkLBMvPDHBpyRLx0mEvA2AQqytwkbOP8DEhnoX0s2Ii0kApnjHxTfsTuRHlwWz7wLqOXI/pyiZEPW0UNsWtD6fecS8MXGPTLy98Ohvz93QgDWnYIcgJ3uiSarCa/Hf1mNExeSEDTgeljr1IOlVl2Yrx2CAydtWlQ4f9cvic+PlybZ0KqBGR+v34k/Dp7wBDrmQQIFEqAgF4iGJwoikCFi/Pzv67H2xDkEd+gOSz/Z30nF45Q/y7WDYG7XDfNX2fCvT8zw9/1CIyVu8sfP2SSAvVV+DWzSfJUL4sLjJOAuAQqyuwQD8P5F+49j9vaDMFevC8uNo2BTsTQvJ/XcJseCqtbEe7OtWLzG/99iXVtL/OSBJhyITcRn63fbm8pHEvA4Af//tHgcCTMsjMDuM/GaqSItJAzmW++AtVzUVZdbo8rDdOudSLKVxn2v2LDzwBXBvupiPzgQEgK8/bQNzesC76/ZgdVHZO8pJhLwAgEKshegGjXL0xeT8ZAsnLhgscE0chyy6hW8u0ZWg0Ywj7pTfuKHYOzzwHE/n+QrHWHDe88CpUpZ8U/xujgvy6yZSMDTBCjIniZq0PwupmXgmUXrsON0HMyde8PapkORLbW07YigXgOx64gZD/8PiEv035GyRRbtVYgEalUxYceZOGw4LvtNMZGAhwlQkD0M1IjZpcjM3NO/rsWv+44htENXWEeI3diJ/ZtsMsmXdf0wmPsMwsLVwPh/mhAn4S79LW3bZ8Zdz5swZLINe4/a0LJKBTSVfQaZSMDTBLg9gqeJGiw/i9WmTWTN3R0Nc/1GyLhpNGyhoU630hYSCtvAIQg+G4NFa7bj4f+a8eGzVlSM8m2fXrUL9naxfX84y4Tv/7BKRLggtBAhfn5YM9zerjGClVcJEwl4mAAF2cNAjZSdWggxVbwKXl++BbbK1WEbdx9sZeV3u4vJWkp8x8bcjZAfZ4q4bcTZOGDGKybUru6borxplwn//gxYs92GxEs2dKxZBU/3aY/OtaugfESYi63n5STgPAEKsvOsAu7KpRLD4Y2VW5BZNgrmsffCUqH4OzJbS5dB1q3jEBQciuVb1qH7nRa89IAJPdsBzerbNDfmkgScJCujt+03YYps4DpniQ1hYpJpU60iHhjcCsNb1IeDZ19JVpNlG5wABdngHVzc5qlJq8nzV+KSJQhBo8cjs1ad4maVc581ohRso8YgqHFTnFnwHR74TxIqRZlw5xAzXnrQhjKlS2bEvGilGW9+ZcPf+4DkVBv6NaiFR3u3QfsalVE2THzemEhAJwIUZJ1A+1MxKuTkQ/NW4nymFcG33YnMZi09Vn1lf7a2bIOgjWthjd4LZITjnVmp2HbQhHeeMqFFAxtU5DVvp0vJwKbdJvz3C2DZZqsIbyg61qiER3u1Rb+GNb1dPPMngXwJUJDzxRK4BxNT0vHAvOWITriI4EE3IqtdZ4/CCM7MRPDM6UiP3ocBMhJ9aWBnzNi8D1/J8HTgAzZMvtWM5yZavWbCkCihmP2bGZ/NtWLLXptsPWXCiBYNcH+3lmgtG7eWCuFHwqMdzsxcIsB3n0u4jH3xBfE1vm/ucvx9Oh7B3fsia/CwXMui3W29KSMdtjkzkbF3G3rXq44vR/ZDWdl15PUh3dG2eiW8tXIrXvrsElZvMWsr41o28pwJIy5RJum2mSS+hglbD1q1ybnesv3UU9e0Q0eZrGMiAV8gQEH2hV7wgToo97b/+20d/oo+haCmrWEZfotnxVg8NszzfoBly3p0q1UVU2/qq4mxanqQ2YSxHZqgR91qePXPzViwKRqDHwIeu10WlIyxItQNM64aEU+fZ8KnPwE7D9tgzRKbtewFOKFTczSvUl4m73Swj/hA/7IK/kGAguwf/eTVWqqFHy9I9LbZOw4htFYDiW38AGxhnnPvUiNj8/wfYFu/HF1rVcHM0QNQoXT4VW1qUDES0269FtM2Vcc7q7bh2Y+SsUUWZbzykBVi3XDa00GF/Tx93oT1O4B/TwV2iBBXLh2B6xtXxz/6tkczEWImEvBFAhRkX+wVnev0n2V/Y+a2gwiuWR/W8fd7VoxFHYPmz0HWhlXoLF4LX468Nl8xdmzy+E7N0Lt+Dfx76SbxWz6G9TtNePE+E+66UYa7RSRlE37vWxO+XWTDweM2hJiD8VC35rijfRM0rlyOCzqK4MfTJUuAglyy/Eu09DSJa/yGLPqYsm4XzDXrAfdMgqW8bMXkoaRGxkqMLev+0jwYZt4+EJXLRBSZu1mcfhtXKofPxcb88dqd+Ex267j7XylYss6M1x6xoW6N3LZlNSKOOQ8sXWfCK58CR8/ZUL1sKYxuU1Nb0FGnfNkiy+QFJOALBCjIvtALJVSHD1Zvxyfrd8FUox5sEx6A1ZNiLCoZvGAOMjesRHuZsJs+qr9TYuyIQtl3H+/dDgMa18ZzyqSy5DQ27TXh5ftNuG1w9mKS2AQTPpoF/LBURsQnxJdZ3Oqe7dsaN7dqgAYSDUiJOxMJ+AsBCrK/9JQH65khocumrN2lLYkOrlAZ5vETkVWpsudKkJm0oOVLkLVmmbbaTdmMq6utN4qRlJ62EXe0+XcNwZvLt+KLTXsx4eU08SE2o3Y1G16fJlHkLgK1y5XFxM51NAGv4sQovBhV4S0k4HUCFGSvI/a9Ar7dcgBviouZubyIsGxOmlWlmkcrGXT8KCxLF6F2VFl8dku/YouxY6VUMJ+n+3bA4KZ18Oxv6/H+7LNQhouqZUrh1eva4AaJHq9EmQNiR2p87m8EKMj+1mNu1lft+KF+/meUkQmuO+9DZp16buaY+3bzJRmuzp6OsIwUvDjkGo+GqQwW97j2NSvjx3GD8Ymye8voeWKXligX4Xz0udy15SsS8C0CFGTf6g+v1iYpIxMvyG4XGaYgmEeOQWb9gnf8KE5FTBkZMM35FrZzMTKa7YibxI7rjaTiSzwj7mtMJGA0AgzqarQeLaQ9yw6dwrrjZ2Bq1AzWJs0LubJ4p8yb18O6ext6ySq8u7s054Ra8TDyrgAmQEEOkM5PkBgV/1y8Hpkm+Xl/swSZD7t6YYY7KIIP7IX15+9RrVQo3h/eG1GMG+wOTt4boAQoyAHQ8RkWK16RRRbHL6XANHgorB6exDMnJsD602yUtmbhg2G9UY9+vwHwrmITvUGAguwNqj6W51TxNf5h5yGYq9aEtUtPj9bOJP7GJvE3tp47BbXCrg9DV3qULzMLLAKc1DNwf6dkZOHtldvw7upt4uJWCaZR42AtxhZMBSISf2blb2zZuh5969fEi/07IySI3/EF8uIJEiiCAAW5CED+ejpTzBRP/boGP+06DFO1OsC4e2CpWdujzQlbuwIZf/yi+Ru/cUMPirFH6TKzQCRAQfbjXj8jNuHvth/EvF3ROBJ/SRPEJhIDoqd4OWyLicWf0TEIriX7wd39oEdjVCArCyGrlyNDtmGqViYcb4kYq9gTTCRAAu4RoCC7x6/E7lZifOu3i7H7XDwiJV5PrapmWKwW7Dl/DutPnNXqZW7aBtYxE2CN9JxYKptx+MKfkLZmOWrLcugvR/VDJwmpyUQCJOA+AQqy+wx1zyFLYkW8+MdG7IuLw703mvHOM1aUCrdo9ZAAbpgx34Qn3rEhRcTTFu459zYVvS1kwY8ixsvQuGI5TBt1LVpW81x0ON1BskAS8DECnIHxsQ5xpjpqdLzp5Dk0rQstHGUpB81VG2CMHWrDgC4m2KL3w7x7uzNZFnlNUGYGzGr7pfUr0FpEWIXSpBgXiY0XkIBLBCjILuHyjYsTUzOQmJqOprVNqBilQuzkTuGy2ccbj5tQJTITth9mIijmVO4LXHxlSklB0LRPYdu8Bl1rVMQPYwejEW3GLlLk5SRQNAEKctGMfO6KTHE3yxB7cYVCTMON6lgx9XkgApeAmZ/DnBBf7HYELVqAjP07NNe2Gbf2lwhrRQeZL3ZhvJEEApgABdkPOz9YfH1DJBxlalrhlb/+GhsmDjfDdPo4TPO/hyk5qfAb8p4VG3TQhjWwrP4THapVxAzZ766a7MTBRAIk4B0CnNTzDlev5loqJBjq7+T5TKhJvII2TlbHX3vUivBwE976ZjPMqaliYL4blsgop+pnPncGtkXzNde2d4f1ytkl2qmbeREJkIDLBDhCdhlZyd9QTozE6u9sgg1xiYXXJ0Im/F64z4a7h8muzYdku6bPP4T5dAwgo9/Ckkl8jU0L5wIX4zG5Rxu0ll07mEiABLxLgILsXb5eyb28RFJTm3ieOG3Cum1Fd2EpMfm+8w8bXpxoRvDZI8AnbyNk5Z9QPsUFpaB1q2DdtRUjWtTHvV1bgDvTFUSKx0nAcwSK/jR7rizm5CECyg85NTMLSWk2jHveip+XmdTiuUKTco17bqIVU541o27pRGTNnwXzp+/BdESWVmdl5rrXdOECLCuXoErpMAkE3wGhjE+Riw9fkIC3CFCQvUXWi/meS0pFjPgiVwsyoazFhPEvA1/+VPR0gMwDYvwIK/74FLjrenlxcBfwmYjy1PcRtHEtzLLjh0qmvTtgizsnOzc3RCNZAMJEAiSgDwEKsj6cPVpKbEoa4uRvSCkTfq4KlBdvi4ffsODDWUGQXZqKTA1r2zDt31asmQHc0CEFFc/vgXX2F8BLT8H8zRcI+W0BygYH4/FebRGkNq5jIgES0IVA0cMqXarBQlwhcCoxCSmivB0jTegcYsOPVUy45Tzwfx9ZYLWa8ehYq1PZdWllw5y3gUPHTfhrE/DT0mRs2LEOaZk2jGjTCJXpb+wUR15EAp4iwBGyp0jqmM/xC0lQ03EdQrIL7SCiPE+CC9UQMX7yHSve+dqEtHTnKhQmOzq1bGTD5Ntt+OtLG75/Pfst0Ur8jplIgAT0JUBB1pe3R0o7m5Si5SMD5JzULsiCRZVt6BhmwgtTbHjuPfnxU7ATRc59eZ+cjc8eXSsvDiYSIAF9CVCQ9eXtkdIs1vyVtnGwDQslEmZbkwkffJ+FR/4bhBRZC+JKOiJhL4Jl9q+mhNZkIgES0JcABVlf3h4preLl8G7p+QyBq5jFplwZ6BJuxmfzLXjqbXNRa0By1Sn6BFAmNARllC2DiQRIQFcCFGRdcXumMBWL2Cyj4D/THWwWDlnXCrLhVxkpdwkJwudzrXjwVRMuJuV/rcNtmofGifM2lA0L0f4cz/E5CZCA9wlQkL3P2OMlNK4cBTVKXpAMJOVvvUAFkxXzK1lxg7jGTf/FhvHPm5GWVrgoJ1wE4uUvMjxU+/N4xZkhCZBAoQQoyIXi8c2T9cqXRffa1bAh3YYPkoKQUICXW0UxX8yvZMP1MtH3y2oLbn3KhCOnTDgpOzwdPw15DhwWE4Vye9t/1ISte01abIzyEiejrJgtmEiABPQlQD9kfXl7pLQwCeP23+u74YgMaV86F4d5ySbcKHNwQ2V5dBvRUbEa55STIVEoHog0Y0OGDb+tt2LPAyaoFXuyKbX4LOf+U4tKZK9UDG8UJRHk+F2dA5FPSEAnAhRknUB7upga4gUxZ+wgbW+9VUdj8HJCKv4pwYKUUSJKllSXlhV2cVk2pGoBhCza8dIy6rWlRqCMmCQkSrIIs/zJtcoerVbkBclj2eoheKBbK09Xl/mRAAk4QYCC7AQkX72kqvgKf3zTNTiWcAn7zyVio+w2fSDuAuJlWbVVhLi+jKSrly2NumLiaFW1AurIYxVZfadsxEqElXirxyt/EsdCXjORAAmUDAEKcslw91ipyme4oXhdqL/rm9f1WL7MiARIQH8CNBTqz5wlkgAJkEC+BCjI+WLhQRIgARLQnwAFWX/mLJEESIAE8iVAQc4XCw+SAAmQgP4EKMj6M2eJJEACJJAvAQpyvlh4kARIgAT0J0BB1p85SyQBEiCBfAlQkPPFwoMkQAIkoD8BCrL+zFkiCZAACeRLgIKcLxYeJAESIAH9CVCQ9WfOEkmABEggXwIU5Hyx8CAJkAAJ6E+Agqw/c5ZIAiRAAvkSoCDni4UHSYAESEB/AhRk/ZmzRBIgARLIlwAFOV8sPEgCJEAC+hOgIOvPnCWSAAmQQL4EKMj5YuFBEiABEtCfAAVZf+YskQRIgATyJUBBzhcLD5IACZCA/gQoyPozZ4kkQAIkkC8BCnK+WHiQBEiABPQnQEHWnzlLJAESIIF8CVCQ88XCgyRAAiSgPwEKsv7MWSIJkAAJ5EuAgpwvFh4kARIgAf0JUJD1Z84SSYAESCBfAoEhyCZTvo3nQRIgAYMQMMhnPCAE2VyqtEHedWwGCZBAfgSM8hkPCEEOqlgpvz7kMRIgAYMQMMpnPCAEOaRWbYO87dgMEiCB/AgY5TMeEIIc2rAxzKXL5NePPEYCJODnBNRnW33GjZACQpBVR4W3bW+E/mIbSIAE8hAw0mc7YARZfYOGNWuRpyv5kgRIwJ8JqM+0UUbHqh8CRpBVYyM6d6MoKxBMJGAAAkqM1WfaSCnYSI1xpi2qA4MqVETa9q2wJic5cwuvIQES8CECymaszBRGGhnb8QacIKuGq45UfxmHDyLz5AlY4mJhTUkGbDY7Fz6SAAn4CgFZ9KH8jJVrm/KmMKIQ21EHpCDbG28XZvtrPpIACZBASRIIKBtySYJm2SRAAiRQFAEKclGEeJ4ESIAEdCJAQdYJNIshARIggaIIUJCLIsTzJEACJKATAQqyTqBZDAmQAAkURYCCXBQhnicBEiABnQhQkHUCzWJIgARIoCgCFOSiCPE8CZAACehEgIKsE2gWQwIkQAJFEaAgF0WI50mABEhAJwIUZJ1AsxgSIAESKIoABbkoQjxPAiRAAjoRoCDrBJrFkAAJkEBRBCjIRRHieRIgARLQiQAFWSfQLIYESIAEiiJAQS6KEM+TAAmQgE4EKMg6gWYxJEACJFAUAQpyUYR4ngRIgAR0IkBB1gk0iyEBEiCBogj49J56GUcOI+PgfmTFngcslqLawvMkQAIkkJtAUBCCK1VGaOOmCK3fMPc5H3zls4Kc+vdGpO/Z5YPIWCUSIAG/ISADuayzZ7Q/S3wcIjp28emq+6TJQo2MKcY+/b5h5UjA7wgoTVHa4svJNwVZzBRMJEACJOBpAsoE6svJJwVZsxn7MjXWjQRIwC8J+Lq2+KQgcwLPL9/rrDQJ+D4BH3cO8E1B9v1uZQ1JgARIwOMEKMgeR8oMSYAESKB4BCjIxePGu0iABEjA4wQoyB5HygxJgARIoHgEKMjF48a7SIAESMDjBCjIHkfKDEmABEigeAQoyMXjxrtIgARIwOMEKMgeR8oMSYAESKB4BHw2uFDxmsO7SIAEnCWwJSkI+1PMOJVhwsUsE6zO3lhC16nRY2SwDTVDbWhayooOZYwXAZKCXEJvLhZLAiVFQAnxssQgJIoI+1NSXxiqzupvt3yRqDZcG2UxlDBTkP3pHcm6koCbBBbGB2P9xSAtl9q1a6Ndu3Zo0KABypcvD7PZty2YVqsVCQkJiI6OxrZt23DixAnMjQ1GjIzwh1bIcpOMb9xOQfaNfmAtSMDrBBzFeNiwYejcubPXy/RkAeoLo2LFitqfqvumTZvwyy+/YOGOw9hlSsWzfZp5srgSyYuCXCLYWSgJ6EtAmSnsI+MBAwb4nRjnR0uJshLpe++9F+vkguZVInFj8xr5Xeo3x3z7N4rfYGRFScC3CSh7q0pqZHzNNdf4dmVdqF3Hjh3x/PPPa3d8suGQC3f65qUUZN/sF9aKBDxGQI2O1USYshn7m5nCGQgjR45EmzZtcPpSGhbsjXHmFp+9hoLss13DipGAZwgo1zaV1ASeUZMa+au08ohsiOzHiYLsx53HqpOAMwSUn7FKypvCqMk+8t997oJfN5GC7Nfdx8qTQNEE1KIPlZRrm1FTrVq1tKadS0r36yZSkP26+1h5EiiagH0Fnq/7GRfdkoKvCArKnrS02GwFX+QHZwLO7W3+jiM4Fn+pwK4JCzKjStkIVCwdgfa1KyEyPLTAa4s68cmqXfhx62EMblEHj1/bFsE+7nhvb8/Go2cxbf1ejGzXEAOa1bYfzvVolTf+zzuPYsXBUzh3KRV9G9fU2lm7fJlc19lfePt6ezl6PB44l4j/LdmKlIxMPD2gPTrUrqxHsSwjAAgEnCCr1T6/7T6GDSI6jqlymQj0blQD+88mYPfp+JxTd3Rqgv8M74ZyEa4J8+bj5/Dcz+u1fLacOI9W1StgSMu6Ofn62pP0LAsWyJfVlJW7sP1UrFa93g3z9+lMy8zCw3NWaV82I9rUx7DW9fDgdyvwym+b8OuDQ9GmZsVczfP29bkK0+HF879swNJ9J7SSTiQkYfUTN+tQKosIBAIBZ7K4WUZ9SjSUADumZwa2x5dj+mkfrok9W+ScmrX5AMZ+tQQZFvsPv5xThT65mJaZ63ze17lOluCLhJR0vCGjvUYvf4v7Zy/PEePCqvTCwo2aGKtr3ry5J0Z3bAz1xZWUnokbPlmII3EXc93u7etzFabDi/Pyi8Ce1K8ti9W/fybb28LHkicQcIKskAeZTWhaNSoX/VKhV34s3NqhUa5zqw+fxo6T2aPGXCcKedGrYXX0a1JTu0L9pB3UIv+f/oVkocupoyIoggM/3jsYqs5FpeMJl/Dl2j3aZfUqlkWl0uHa8051sn+2K1FWphp78vb19nL0fHxqQDuUCQvRinxtWDft/aRn+SzLuASuqJBx25hvy0LEVlxQainmhbxpl5gxOtWtkvdwga9DJf+5E4cgLjlN7NHZolXgxSV4on2tSlB/Kl0vJhX15VNYenfZ9pzTVcuWynleyeEXx+dr9uAfAzto7fb29TkV0PHJ0Fb1MPDl2trI2PGLXMcq6F7UCy+8gJiYK4suypQpg169emHUqFEwmbK9ON58801UqlQJEyZMyFW/BQsWYO3atXj66afxj3/8A71798b48eNzXXPo0CH85z//wejRo3HdddflOhdILwJWkAvr5IiQq7Fkisli8d7juW6rHVUGzatVwN8nzuGPvSfQuHI5zZ56+mIK1MSPY2pbsxKqRV4RMHUuXswF64+cwa6YeGSJbbtb/WroXr8q8pavbLArDsVgx6k4qLe+mkBrJxOOeScJlR14oUy0qVGvMiPUjCrtWIUin9tHfYVdqCYp7amsw4RnREj2LLf93NJ9J3Fbx0Y5pg113BvX28sr6FExWSeM1byAmnxsK18+18hcgX1k73jfPpk/2Hj0HNSjmthtI32mfjWoL1d7UrZjx5n80qEh2jUXUjOw/ugZ+2XaY4OKkahfKRJ/Hz+P5TL5WUW+tNQ8Qt73gZrw/H3PceyMiYOqbyN5H7WQ95Uq6zEfmQxetmwZwsLCNDHNyMjQxPnBBx/E3r178dJLL2ntXbFiBRo3bpyLgXqxf/9+LF26FP/73/9QvXp1PPnkk9qKwZYtW2rXWiwWPPLII0hMTDTUsu6rQDhx4GrlceImo1+iRrV5Uzv5ID/3y3psPnYu59RdXZtJcBMTpq/bm3PstaRuaFKlHB7+YRXOJ12xNSr7tLJf29OyA6dw19dLNbvr/b1a4tD5C3hz6Vbt9Ld3DcQNrbInAPeeScCEb/+UycZEDG9dX5tcHPjRz9rM/vz7rheRy/7prG7816JNOeaC9/7ajoMvjUF4Pl8u9jq4+pgs5ghlkrCn8OArIhyWpxxlW/X29fZ6FPQYHXsRd3+7TLOLK0+XmvIFeo+8Vumxfm3x0vXZ0c7Ul+0bwv4t+VNfSuO7NdMEUvFUv4pU39UpX1a7b6qM/u0TeuqAMttsffY2JKam47+Lt+Sywd/TowWOij39z/0ntXvVvyfmrsGz13XQfkGo16rs26f/oV2jhLi7fCmrXxh2zg/1aX3VF6+6ryRSv3798OKLL+YU/dZbb+HDDz+EGj3b3c5yThbwRMWd+O233zB58mQsWbIEwcHBmDFjBjZs2IC//voL4eG++2uygCZ59PCVr36PZuvfmU1dvTtXA9SIqrN8MBeIADqmrzbsyyXG6tyyAyc1V7HXhnV1vDTXc/UBveXz37QP3YTuzfH6jd3xjLhP2dPjP62Gcqe8JBODN05dpIlxjXKl8eXYfvhgVG8ok4ry3FCTjWpkbU+Oo1f1gV6fx5PEfl1xH09dSHb61hNia/b29YVV5qz8Sunz3jxNIJXQfX3nAOHcLecW7QtLvgRV+ufCDZoYq+cvDumMfw/tilkTsn82qy/gAR/8rPWFOj/nnkFQfZE31a1QFvPuG5LrsLK1q35Qwu/46+P1P7aIy1x2/N6v5T1kF+xfHrhB698D8kXatV7VXHn54ovk5GTNROGsGKs2REREYMqUKdixYwe++OILLabxM888g3/+859aPApfbKeedeII+TJt9RP7fFKa/GQ9i0XiFmdPN7VtgHdu6am9VPZC9cGyj17UwSWTh0P95Hzkx1WacN7RKfsnW7V8PrTqevWT9Kl5a9RTLfURsVepnvy8tadUMVFYbFa8s2xbzihb/XS2myjUJKH6Cb7yshnD7gerRoHfbNxvzwYdaztv8865qZAnZx28Cwq5TDulzDbevr6wOvxLXPDs/aQmV+1zBmoyV/3aUClT+kK5+Dl+ASuGKlUoFaaNVpW5Q/3SeWPpFk2o1TklvjH5fDmVl3sck/riXHD/9QiTXxLqvfOP+SpIZHY6mZgkv6SisCb6ipnjFzE3KQ8fZbL6r3xJX/v+fPvlPvGobMEqKLwyMRw/fhxbt27Fr7/+6nLdunbtikmTJmlR2hYuXIhOnTppI2aXMzLgDRTky52qbL7q56P6iX+3jFqVyHUTe27DSuUK7HY1UrJP9Clf1OT0rCL9lZUt8WjclYUpyu6skrJZviqjajVaeqBXK018f9tz5YtBfdjtoypHG7MSZbsg/+uGLmgo+SlzwZ1dmuYyZxTYCBdOWBxG40Xdpurr7esLqoMyH8zefDDndLOqV5YM/2d4d7wrX3TXNa+DFiKYyizhmKqXu2LnVyNrJcgqzVi/D6/c0FUmsByvLvy5ElwlxipVcZgAVa8vpmWoBziK+DPz12q/sP7vuo7aRKsyhTj2tXZDCf4rXbo0qlatqgmymshTgvzRRx+hffv2mn25oKrZ1M+9POm5557DokWLsG7dOmzevFkzXeS5JCBfUpAvd/uka1ppvrSuvAuaV7vyQVejV2cWj+y7PDqzl1PFYaLvoWtaQ/2ppEwR9pGceq1GcY4jOXVMpYMOwVTUh/vRvm2yT3jhf17f7cKKUCv2vH19QeUfcmCirnH0BrlWRsvqz56U94xjsv8KUcccPSjUaPvMxWRUL+CXj2MerjxXi2qmOcxBqMk99afmJ16+IdvG7Up+3rxWBbZ3tCE/+uijUHZlNZmnPCOqVKmCc+euzLHY66K2XVLeF45JmS5Ufn///Tfq16/veCqgn1OQde7+vMu248RMkt+Mf1pm7h11lR176u19r6qto2hcddLDB/KKkaP92ppncYTyQPH29QU1T/k+OybHyVXH4+q54yKPvOfso1v78XNiusjbJvu54j72aVRTWwlqX9Vpz0fNT6w4dAprnrgl1xeD/bwvPNarV0+rxqlTp7THJk2aYM6cOcjKyso14lX24kaNGvlClX2+DpzU07mLlFA5pt2n4xxf5jxXtmrHiSDlhaHcpfL+uRNrI6cwJ58ou6rjZJPdhKJuzxS7omNqJD/XvX29Y3mOz5U3hWPaIe5kBaX64iVRUFK2fMekbMeeTsoE8mDvVvjzkRtzzF/2MpRpa85W39kF49ixY1izZg1Wr16N33//HRMnTtSq2qdPH+3x2muvxdGjR/Hwww9j48aN2sTdq6++qnlQ3HjjjfZm8bEQAhTkQuB441TeFYJfbbgyCZe3PGWDtCc1iZTXt1kJxqnEK54PaoJKeWU0+ddMfHF5NZ39fmce8zH1XXXbyPZXXPeU7609XZSf9Pak2tizQTXtpbevt5fp+Khsv45JuSXaJ/gcj6vnrWrkjruhJl3tyW7nVa/VfEFURO5JO/t17jxO+OZPzUdZzQOoCWLlqaFc6exJfRH7Spo/fz6GDx8OJa7333+/5jc8e/bsnDjLXbp0wbRp0zQzxJAhQzRzhrITv/feewUu9nDFQ8NXOHizHgEryI5iogAX9IEtDL7jhzfvdXkntOzxDvo3rZXrA6cm5ZTfqT2pRSATZ/2FrbJU21HM1PlHJKCPfVR6RrwYbvrsN7wtE1T2pCaoVH7qJ/rT89ZCBb5xJcWn5Pa/dhQkez63iC+13e1LfQHY2xXtIBzKhc98efbL29fb6+X4qFZGqtgajunhH1bmchFUbm/KdjtOJj8df4kclwlRe9p3JtsbQ71+blBH+2FkOkxuZmRdcTvM+4XmOJmlPHFypcsvlSfKVzJhaE9q0c8nt2WPONUxb4zK7WW58qhW2sXFxeX8qdHy4sWLrxJaJdZqdHz48GEcOXJEW6E3bty4fItSC0VUHkxXCAScICtPCrUoQ/nxOqa526JxOLbw0YhaweUo3NtENAsSvRUHrywzVeVsuxxBTdkl372ll2PRULPrgz/+RVvE0FhGt0p0W9eooLlAqRV+9qQi1NV8fgb6vjcfzf89S1uM8Kr4zNpT3qA+p/NxzbJfm/dRCfx3f1/xTFDnlfuf8oV2TGricNaEgTmHlBeCEuXvt2T/tFbhOodLBDh78vb19nLyPirfX8dJRRV2tftbP+GB75aj/evfQ9lob5BVc8q75c2beuTcPv2yOKpfI/aod8p+r1Y+qqQWDTkuDlK/XNQKQJU2HcsdQVBNGNq/tPPGQtly8sr7T9VNfZmqPlDp+OUvUvVFoRYD+WOKiopCZOQVV05/bENJ1NnUo1u3PF/drldjzfx3XL+pkDsSv5lWyFn3TqlVUWoWu6CkFgVMltVRedNBGQF2eWNO3sPaa7VYQ4207EmNeJXI5k3qg3+vrN5SSX0h3DNzWS4XOHVcxYB4rF+bnBV2aiT/8qKNmtuVOm9Palny/27skcuzQ7lmqUUlKilb72+ThhXppvW31OP2aX/k+Dvb83d8tK9GczymQpjeN3u5dkjZtdVPa+UZoNpo9/nV83rHsuzPlVBO+n5FzsIL+3HlW65CqjouYVa/LO6d+ZfGQZk8lDiqL1+1ok+Nju1tKv/0F/Zscj2ueOwmbSFKroPyQom5ClGqVujlTWqSVvWZ+iWiJntVeepLRP3CUY/Tx10rpp+iAz7lzTfv6xeOZptaXnnllbynDPVaud+ptP3h7EU9BTUuatzdBZ0q1vGeI54o1n353RRwgpwfhJI6pn7Fqg+iGo1FSbzlZuJGV9AknQqTqRaDqOXKLWX0XJB/qhoVK7tyxzpVihRjd9utbNh7ZGm3MrO0k5F8aRnRFZa8fX1BZSuBU+xUUj7JjkLseI8yK6iJtIPnEzVBVG6NBXF2vM+d52ohkvKHDpdYIHtOJ2hfBMok1KhyZM6Xsjv5q3spyLkJ+rIg0+0td1/p+kqZWdXo03ESp6AKqJ/+zoTHVG5ZnnbNKqhOSqw6ymSUs8nb1xdUDzXaVLbZopKyezeQYEDqT6/UxWGJtArsnze4v171YDm+QSDgbMi+gZ21IAH9CNg/5Gq3HKMmtZxbpaDLk8n+2k57X/lr/VlvEiCBIghEBmdPE6kVc0ZNJ0+e1JpWpYznXRP1ZEZB1pM2yyKBEiBQMzRbkKOjo0ugdH2K3LQpOyZJSwl968+JguzPvce6k4ATBJqWyjZVbNt2xWfdidv86pJffvlFq+819Z2f0/DFBlKQfbFXWCcS8CCBDmUsiBKzhQqdaR9JejD7Es/qxx9/1JZpVy8bjhubZ4ezLfFKFbMCFORiguNtJOBPBK6Nyp70UiNJI42Uv/zyS7z22mtaVzzY1f8DGFGQ/elTxbqSQDEJqFFyt0gLQtKTtE1I1ajS35Nqg4rHrNLtber4/ehYtYN+yIoCEwkEAIGhFbKwa+dhraVqVKlGy8OGDdM2HK1Vq5bT++KVFCrl2qa8KZTZRdVdhfVUSYnxs32alVS1PFouBdmjOJkZCfg2ASVczatE4pMNhzRBs4uab9c6/9opm7EyU/i73dixdRRkRxp8TgIBQEAJmPpbsDcGK4+cx27ZYeVcUrrs4+h2WBuv0lOLPpSfsXJtU94URhJiOzgKsp0EH0kgwAjYhTnAmu3TzeWknk93DytHAiQQSAQoyIHU22wrCZCATxOgIPt097ByJEACgUSAghxIvc22kgAJ+DQBCrJPdw8rRwIkEEgEKMiB1NtsKwmQgE8ToCD7dPewciRAAoFEgIIcSL3NtpIACfg0Ad8U5KAgn4bGypEACfgpAR/XFp8U5OBK/h1k2k/fqqw2CRiegK9ri08KcmjjpoZ/Y7CBJEAC+hPwdW3xTUGu3xBhLVrp31sskQRIwLAElKaEirb4cvLZ4EIRHbsgqEJFZBzcj6zY88Dlbb59GSbrRgIk4GMExGaszBRqZOzrYqzI+awgq8opgP4AUdWViQRIgATcJeCTJgt3G8X7SYAESMAfCVCQ/bHXWGcSIAFDEqAgG7Jb2SgSIAF/JEBB9sdeY51JgAQMSYCCbMhuZaNIgAT8kQAF2R97jXUmARIwJAEKsiG7lY0iARLwRwIUZH/sNdaZBEjAkAQoyIbsVjaKBEjAHwlQkP2x11hnEiABQxKgIBuyW9koEiABfyRAQfbHXmOdSYAEDEmAgmzIbmWjSIAE/JEABdkfe411JgESMCQBjwhyZmaWIeGwUSRAAiRQGAFPa59HBHn3gWOF1ZnnSIAESMCQBDytfR4R5PmL1xkSNhtFAiRAAoUR8LT2eUSQl6zcgtkLlhdWb54jARIgAUMRUJqntM+TKah2rVoveyLDjdv240TMeURFlkbF8pEICvKI1nuiasyDBEiABDxCQNmMd+47gk+/XYTvvDAINfXo1s3mkZoyExIgARIgAbcIcBjrFj7eTAIkQAKeI0BB9hxL5kQCJEACbhGgILuFjzeTAAmQgOcIUJA9x5I5kQAJkIBbBCjIbuHjzSRAAiTgOQIUZM+xZE4kQAIk4BYBCrJb+HgzCZAACXiOAAXZcyyZEwmQAAm4RYCC7BY+3kwCJEACniNAQfYcS+ZEAiRAAm4RoCC7hY83kwAJkIDnCFCQPceSOZEACZCAWwQoyG7h480kQAIk4DkCFGTPsWROJEACJOAWAQqyW/h4MwmQAAl4jsD/A4lZKVVm13u0AAAAAElFTkSuQmCC;" vertex="1" parent="1">
          <mxGeometry x="80" y="40" width="320" height="660.67" as="geometry" />
        </mxCell>
        <mxCell id="9UIbFYWhF634vm1xN3ZN-4" value="" style="shape=image;verticalLabelPosition=bottom;labelBackgroundColor=default;verticalAlign=top;aspect=fixed;imageAspect=0;image=data:image/png,iVBORw0KGgoAAAANSUhEUgAAAVsAAAJXCAYAAAA95fcLAAABR2lDQ1BJQ0MgUHJvZmlsZQAAKJFjYGASSSwoyGFhYGDIzSspCnJ3UoiIjFJgf87AzCDPwMVgwmCUmFxc4BgQ4ANUwgCjUcG3awyMIPqyLsisN/9m2HzUyJa3nngi9YWddiamehTAlZJanAyk/wBxWnJBUQkDA2MKkK1cXlIAYncA2SJFQEcB2XNA7HQIewOInQRhHwGrCQlyBrJvANkCyRmJQDMYXwDZOklI4ulIbKi9IMDj4urjoxBsZGJo6kHAuaSDktSKEhDtnF9QWZSZnlGi4AgMpVQFz7xkPR0FIwMjYwYGUJhDVH8OAoclo9g+hFj+EgYGi28MDMwTEWJJUxgYtrcxMEjcQoipzGNg4G9hYNh2qCCxKBHuAMZvLMVpxkYQNo89AwPr3f//P2swMLBPZGD4O/H//9+L////uxho/m0GhgOVAHeWYP7J/sz0AAAAYmVYSWZNTQAqAAAACAACARIAAwAAAAEAAQAAh2kABAAAAAEAAAAmAAAAAAADkoYABwAAABIAAABQoAIABAAAAAEAAAFboAMABAAAAAEAAAJXAAAAAEFTQ0lJAAAAU2NyZWVuc2hvdNuMDr4AAAI9aVRYdFhNTDpjb20uYWRvYmUueG1wAAAAAAA8eDp4bXBtZXRhIHhtbG5zOng9ImFkb2JlOm5zOm1ldGEvIiB4OnhtcHRrPSJYTVAgQ29yZSA2LjAuMCI+CiAgIDxyZGY6UkRGIHhtbG5zOnJkZj0iaHR0cDovL3d3dy53My5vcmcvMTk5OS8wMi8yMi1yZGYtc3ludGF4LW5zIyI+CiAgICAgIDxyZGY6RGVzY3JpcHRpb24gcmRmOmFib3V0PSIiCiAgICAgICAgICAgIHhtbG5zOmV4aWY9Imh0dHA6Ly9ucy5hZG9iZS5jb20vZXhpZi8xLjAvIgogICAgICAgICAgICB4bWxuczp0aWZmPSJodHRwOi8vbnMuYWRvYmUuY29tL3RpZmYvMS4wLyI+CiAgICAgICAgIDxleGlmOlBpeGVsWURpbWVuc2lvbj41OTk8L2V4aWY6UGl4ZWxZRGltZW5zaW9uPgogICAgICAgICA8ZXhpZjpVc2VyQ29tbWVudD5TY3JlZW5zaG90PC9leGlmOlVzZXJDb21tZW50PgogICAgICAgICA8ZXhpZjpQaXhlbFhEaW1lbnNpb24+MzQ3PC9leGlmOlBpeGVsWERpbWVuc2lvbj4KICAgICAgICAgPHRpZmY6T3JpZW50YXRpb24+MTwvdGlmZjpPcmllbnRhdGlvbj4KICAgICAgPC9yZGY6RGVzY3JpcHRpb24+CiAgIDwvcmRmOlJERj4KPC94OnhtcG1ldGE+CrgQcuQAAEAASURBVHgB7Z0HfF1Hne//KpZtyZZlW5a7LbfYcS8pjtN7II2QRiCUUN5CyO6y+96yb4FdymP3wYNQdoGwy1J3QyAJpJGGk0BCColjO+524t6LbBVbVpfe/I408mh8ru65TXOv5jcfy/fec+ZM+c7Mb/5nZs6cvGVLl3YIHQmQAAmQQEYJ5Gc0dAZOAiRAAiQQEKDYsiKQAAmQQB8QoNj2AWRGQQIkQAIUW9YBEiABEugDAoWx4njlV1+NdYrHSYAESIAEEiRAyzZBYPROAiRAAskQoNgmQ43XkAAJkECCBCi2CQKjdxIgARJIhgDFNhlqvIYESIAEEiRAsU0QGL2TAAmQQDIEKLbJUOM1JEACJJAgAYptgsDonQRIgASSIUCxTYYaryEBEiCBBAlQbBMERu8kQAIkkAwBim0y1HgNCZAACSRIgGKbIDB6JwESIIFkCMTcGyGZwLLpmvaODulo75C8PJH8fPYp2VQ2TAsJ+EigX4ptY1OzvL52ixyvb1SC2ybXXnKuElylunQkQAIk4IhAvzP5jteflCdfWiFv7T0hR2WkvP7OEdmx54AjvIyWBEiABDoJ9CuxhdA++vyfpaqlRK674Ta59tob5OZb3y//9dhy6VDDCnQkQAIk4IpAvxFbDB38+4PPSkvJeLn2+ltkWOmwgOm69Wtl0/Z9cqymzhVjxksCJEACkvNiC4v1aHWd3PPV+2TGokvkhhtulkGDBklra6s88btH5aEHH5UFS66WR597hcVNAiRAAs4I5PQEGYR2/Ts75adPvCx3f+bzMmlSZQCyobFBlv/+WfnjH1+Tm97zYdmzZ7scPHpCWtvapLCgwBlsRkwCJOAvgZy2bHfvPyxPvrpR7voff9UttE1NTfLii3+UlavWy/nLrgxKFisRsCrhZEOTcOTW38rOnJOASwI5K7YYo33lrS0yb8n5UjFqTMCwvb1diewKef31VTLrjEUyYECRtClrtrWpVupOnJD/fOhpNeRQG8q79ni9rN28VRAuHQmQAAmkm0BOii2GD1auf1uqGgfI3HkLpaBraGD7jm3y2GNPybQp86SkZGjAqrm5UZ5a/qQcrMuT7Ufy5ZmXV0mbEmU4iDOGFvYdrpJ/+eYPZNW//5v8wz/+P/nDayuD44En/kcCJEACaSCQk2O2x2qOy7qdR+Xiy29UojokwNCoxmm/973vy1mLL5HS0rJuNCdP1qvvBXLOOVfJwIGD5ZFnH5TKceUyblS5fP7bP5F9h6pkSEONfGZkvUwZmCfzGg7KH360Q/bsfa/cfqO6pmhAd1j8QgIkQALJEshJsV2x4R2pl8EyfvyEIN9YeXDff9wnkybMVEI7ogeLY8cOye23flSKiztF+dp33yH/8J3vBiL6nhvulN17d0rZygdlzIB6KVQPmY1QRG4sOCG/ffhn8ouTJ+SD73uPDBo4sEeY/EECJEACiRLIuWGEQ1XH5Kk/vy0fvPPDQV4xpLD8uWdlx7b9Mn36nNPyP2PGPBkxoqLH8Y986C/ljvd9SopLSmXWzHmya+ql8rv6IVLb2jl9BtG9ZVSerH3st3LgYFWPa/mDBEiABJIhkFNi29bWLv/234+qp8LuUHsddC7h2rRpgzz33Ity+aXXR85/Xl6+2qBG75WQp4YYLpV9s2+UR1vHyWu1HdKIId2OPBlUWMgnzyJTpUcSIIHeCOTUMMLaLdtk0MgpMmf23CBPGI995tlnZe6ccwzx7C274efy1K5gS866UHZXjJMN+9+RN7eoByDqDkvlxVjp0HNYIjwEHiUBEiCB3gnkjNhi1cB/PPi0fPaf7g1yhOGDZ555Stpai6Rs2Mjecxnx7KRJ06R13CSpm7FYVq14QS5fuFiKBw+KeDW9kQAJkEBsAjkzjLD3wGFZfM6FMmRI50TXkSOHpab6hIyuGN+99Ct2NqOfKSwcICNGVsj8xRfJ2u2HpL6hMfrF9EkCJEACMQjkjNiu2rhVZs6aIwcPHpCdu7bLs8ufkTdXrpbm5iY5cmS/HD68Tw4fOaA+98tJtYpADbrGyHK0wxVqSOGN9bvkyDFuYBONGH2RAAn0RiBnhhGmTBgr6zevkpXHjsmRqiNysr5eRg9tkSO7Xg7exNChJrTaO9rVE2Pt0jFguEyZfrYMG5baeOuYURXyhtqEvKGxUaZPHs81t73VJJ4jARLolUDOiO2i2dNl7oxK9Qhu/CT/acVa+cXvXpIl575LioqSXyM7Zdp8eeGtTbLjcJtai/u2zKqskIvOnq9EvdNqxssfOlc24FOvbuiVN0+SAAl4SiC+cmURmChCi+Ses+BMuf/JV4N9EVJJfnn5GMFfS0uzbN68Rg4f3RhYzy+v2ip19Q3S0FAfDGMMKMiT0iHF8sn33yBTJnTu05BKvLyWBEig/xHImTHbRNA//tzLMqFyQbCvbSLXxfKLDW3Ky0fL4aoaeWnlNskfMk0mTr9QJs64SDoGVsgVN7xfioaPl+aW1lhB8DgJkIDnBPql2BaqoYbq6sPS0tqStuLF0MErqzdJbXOJjBtXGey/MLCoSEaOKpP58xdI5ZiRUja0JG3xMSASIIH+RaBfiu1NV14opQVH5Y8vPJq2J8AKC9QOY3PPkRkz5gfjs9gxbPWaV+TWW26VTZs2yvCSfCkdWty/agdzQwIkkDYC/VJssYftILUyoWTz8/LOO+vTAmv06HFy2SXXyuDBnYK6ZctaZdHOlnFjx0md2uxm7IghMkhZunQkQAIkEEagX4rt86+ulCGbV8hnJuRL9asPyr79u8LynvSx6pqjUnVst9xy862yb98+aaw9LNMnjeOKhKSJ8kIS6P8E+p3YVqk3Mex+/VWZ31YjQ9QqgfcPPioH//SgbN++ObQ06+uPS1NTQ+i5sIMdymJe/dar8pGPfCSwcver95uNHqbGbss63+Ybdg2PkQAJkEC/Elssf31JvWWhbuWfZVzXHf3EgR1yV8EOaV5+nzz+2C+ktrY6KHXsrYChgPvv/5bs2L5Bvb2hLVJteHPVq3LhRefKzDNmSV1drbz60u/lwiVz1YMVXGcbCSA9kYCnBHJqnW28Mtr4znZZ+9tfyR0j2tU72jvFD/+PLFSCW94kP9j3mvz8J2ukoKhEitSG4JedM1uW/+T/ytd+9Bu1z0KVjBw5upcoOuTQoX0yckSxXLDsgmA/huXPPiHXXrBQyko792vo5WKeIgES8JxAvxFbvKjxxad/L+e0VUuR2q/WdCfaOuTZ5qFy+cfvlG9ecUH368xhjeLJr6uWzZPHXt4SbDIe60mwEyfq5MjRvXLVVZdKRcVoWb9xrRzasUE+ee0Hzaj4nQRIgARCCfRUpVAv2X+wtbVN7v/tU1L/8nI5Uy3BMl2LGlp4uWWITLj2Frnm8vOD/Q0KCvKVZXpqA/GLzlkgpUVKTNVGNmEOT5C9s3WdnHXWAlm0cJHaCGeHPPPIL+WvPnhjEE7YNTxGAiRAAiaBnspknsmR7zv3HpR7v/8zaX76Qbmp4nRDfXVDgeQvvUyuu/oS9S6x8KVZsGY/dss18sorT0l7W8+nwNrVWO6LLz0l5567UC695FKpqamRF9TwwZ3vvkDKR5x6sWSO4GIySYAEHBHIabHduHWnPPnTn8rstcvlyqFtohYfCIYMjql3ieHNNgea2uW1kWfIbbfeKENKBveKeOLYCrn+wtmyc/fWbn/YvvGxx/9bbr/9PXL55VeofRCa5eknH5WzppfL7BmTu/3xCwmQAAnEI5CzYtvQ2KQszD/ImK2rZc7gDjmpRPZj65vku7tapFqNHWBfrs/uapf/86XPyvBhQ+NxCM5/5OarZfXKP6q3P7RK1dFD8tQzv5a/+Z9/JcuWXRhs3fi7Jx6R0QMb1eqDOVKgXqVDRwIkQAJRCZx+3x31Sof+mptb5EkltK2vPiuLhudJlbJgv7S9Re6dpV6Ro3LU3J4n3ztUKD/792/K0JLoj9AOUC94fP+1y+SpPz0pw9UTYV/4wj/IlMqpap+FY/KH55+W4pbDcvP1l0tRhG0eHeJh1CRAAllIIOfEFqsOHn9yuWx79AG5vrRd9jV1yIMHW+Ufp0Fo80QZuPJmY6FccOutMkltOJ6Iw9jtufNnyJqdR+Qv7v4bKSkuUQ8wrJL1b/5Jpo8pkWuvuZIWbSJA6ZcESKCbQE6J7dGaOvnlr5+Q1peekPeUdUiNGi54qbpDrikvlDFFecHQwduNHVI1Y5HcfumFSVmg5SOGyeIzK+X111+T5oYTUntwu1y7bL6cUTmBj+N2Vxt+IQESSJRAzogthPYn//lfMmbti3JeWV4wGXawWWRWSZ6cUdz5AMNBZeWuGjFDbn/f7TJmVHJv3C0dUiJzK0fL2rd3yhS1feLicy+VoWpjcDoSIAESSIVATogtHq399ePLZfo7r8uCUvUgQleOZxWr9bLqhxo9CFYf7CsaJvOuulqmKys0WZevhhJmTh4nU8dXBEvF8jkRlixKXkcCJGAQyAmxPXysRlq3bZLxHY1KaLXUigwyFgRgydfDeaPkV1dcmPLtPl6/E/UVPAZLfiUBEiCBmAQMuYrpx+mJVrU37fMvvCyj9m6ScjUuiwmw49aeMc3tHfKD2qHyzX/8m5SF1mlmGTkJkEC/JZDVYotX0by9bZfUrV8lk/NbApu2qqVdVhhqi/W0v68Rufj222Xi2FH9tqCYMRIggdwmkNViu2vvAXnsv34p4/dskDEDO4cPdqnVBvqpXAjtyzXtUr/kUnnf9Vfmdkkw9SRAAv2aQNaK7ZFjtfJv375PFu5fK3PUagNIbWDFVrXJ5EGdy7xerm2XmkWXyF0fuo37yfbrasrMkUDuE8hKsT1Wc1z+6n//s9x8YovMHKynxDrkt4db1VKvfCkpzJc3j7fL/nkXye0fukMqykfkfkkwByRAAv2aQNaJbZVaefCPX/mm3CM71dsWOoW2Xdm0r6rhgjq1IdfNowtkZ5PIislny1988i4ZPWoEJ8X6dRVl5kigfxDIKrHF5jL33/+wXFO3RcYqoYXD6oPN9e2y9WSHXD8qX9o78uT1wlHyoQ/cIsP5hoT+UQuZCxLwgEDWiC0eXNiwZZsM2b1JKge0d4/R7m/ukNVqyOCCsnwpH5Avb6jvQ5deJPNmTvWgeJhFEiCB/kIga8T2pLJqt6xeI6VH9gVvxdWA8XTYktJCmaKeFjuu9qldPmCsfPjm6/RpfpIACZBAThDImifIsONWc36h1KvtEVuVlQuRxUACNpgZo16w0KIeXPhFVb58+ot3Syn3KsiJysVEkgAJnCKQNZZt8aCB8p4br5Gq+RfJ2sb8YJkXkgnBbVBPjP346AC5/O57ZMncmadSz28kQAIkkCMEskZswQtvVPjLT31Y1p55iXy7eogcaCuQ/Wpnr8faRspln7xHrrr4PK48yJGKxWSSAAn0JJA1wwg6WXizwhf/9hOyY+918uBvn5aThw/Kxe++Si5ddhY37taQ+EkCJJBzBLJObEEQ2xpOmzRe/u6eu6Tm+AkZWVZKizbnqhYTTAIkYBLISrHVCSwsLJDy4cP0T36SAAmQQM4SyKox25ylyISTAAmQQBwCFNs4gHiaBEiABNJBgGKbDooMgwRIgATiEKDYxgHE0yRAAiSQDgIU23RQZBgkQAIkEIcAxTYOIJ4mARIggXQQoNimgyLDIAESIIE4BCi2cQDxNAmQAAmkgwDFNh0UGQYJkAAJxCFAsY0DiKdJgARIIB0EKLbpoMgwSIAESCAOAYptHEA8TQIkQALpIECxTQdFhkECJEACcQhQbOMA4mkSIAESSAcBim06KDIMEiABEohDgGIbBxBPkwAJkEA6CFBs00GRYZAACZBAHAJ5y5Yu7Yjjh6dJgARIgARSJEDLNkWAvJwESIAEohCg2EahRD8kQAIkkCIBim2KAHk5CZAACUQhQLGNQol+SIAESCBFAhTbFAHychIgARKIQoBiG4US/ZAACZBAigQotikC5OUkQAIkEIUAxTYKJfohARIggRQJUGxTBMjLSYAESCAKAYptFEr0QwIkQAIpEqDYpgiQl5MACZBAFAIU2yiU6IcESIAEUiRAsU0RIC8nARIggSgEKLZRKNEPCZAACaRIgGKbIkBeTgIkQAJRCFBso1CiHxIgARJIkQDFNkWAvJwESIAEohCg2EahRD8kQAIkkCIBim2KAHk5CZAACUQhQLGNQol+SIAESCBFAhTbFAHychIgARKIQoBiG4US/ZAACZBAigQotikC5OUkQAIkEIUAxTYKJfohARIggRQJUGxTBMjLSYAESCAKAYptFEr0QwIkQAIpEqDYpgiQl/cvArV1dXKkqkra2tv7V8aYG+cECmOlYOeuXbL/wIFYp3scHz9unEyeNEneWrtWTp482eNcrB9nTJ8u5eXlsU7zOAn0KYGOjg5Zu3691NfXB/EWFBTI/LlzZfDgwX2aDkZ2OoEVK1dKS0vLaSegOdCeeO5YdbVs3rIl1FtRUZGctXhx6Ll0HyyYOGHCl8ICRSUrHTpUmpubg78wP8PLymRKZaUMHz5cClXlhP+h6q9BCW5ra2vYJTJKCWylglRaWir5+TSsQyHxYJ8TgEW7f//+7nghvnl5eYI6TueWQHFxsZw4flxa29p6JGSY0hDoSDwHQR0xYoQMKCyU4yoc00GDogi2eU2y32Oq3cCBA2XkyJEya+bM0LAHDBgQnENlHKgyAwcoENMzZswIvaakpERmKIu2TF1TqDJORwLZQiDMcmqzGne2pNW3dEBjRo8enXS2cZcydMgQmTRxYtJhpOPCmGKrA4eoIrG2g3Ci5w9zsW69hqhr6EggGwmEWbAj1B0bXXYQgPGXqoNehWlZquFGvT6SeQlT2+7lw2W2M9pYIhzreNTE0h8JZIoA7rQwRnvg4MFg2AyWFIbH6EggXQQiiW26ImM4JJDNBIaoW00Mc9GRQCYIZJ3YYmLtZENDsKoBlnCJGgfGWHDYZBqs7fYYS3RwLayVFkzUqcmOMNftx5rpxK1GWHxmGLHixnX6VgUrM+rVH/xikB6ThxikNx1mv+EH+dCTkvHuAJqamqRBMWpSk5eYyMFQT5H6w9BOWLrBFP5sZ+YTYdXW1gasBg0aFKTVTkfYuKYZJtIBF+ZPnzP9R/mOCVpwbFR5xt3UQJU2TMSG5dMMD9eBKziBTbFiM1hda+cJ10ThE5YnXIs6psNEOuvUBAwmi1GWKI9YDnVCpw9+wLxYXQNOVWrpGSZ+UGfiuVhpx3UoX6QNfmK5WH7MfJnXIqxU26fZRmJxNeumGX/U70jnCdW2Ghsbg3LAEKYup6hhpNtfz5af7tATCA+Vb/uOHcEax7DLMGOIAW4TWG/+YaXMmzNHVrz5ZlhwwTGI+OxZs+TNVat6+Bk3dqxUTp7c45j9I1bcZcOGyfRp02Tb9u1SXVNjXxZMHparicdmJfBbt26VGgic4dDgMMGItNkOwrx7z57QcOEXFXSMuv1VK0x6iNHqNWtCBRA8MS75tkqHvWQvSMcZZwQCgLBRaVe99Ra+xnQL588P4g3zt/Scc3qkKWYgXSeOnzgh77zzTiCytl8IEla0jBo1yj4VpBP5OaGutx34TJs6VcDfdLH46HrQW95Rx9ARYKmkLRxgC0sZ8ZoO9WLrtm2n+Ycf5A3hoF5GEdtYaUdYE8aPD1ZTrNuwAT9DHfKIyaMtirXpMDFujlmns30iXIQPMVy7bp0Zbfd31E2kP1EHo2LX7t2nLVtFGcSauE80jmT9x1z6ZQaI9ba2BQkrASsPYrm9+/addgoCGDYOhh5+w8aNgVWAiyBYc2bPFlQEWFuwTrFkA98xkaErL6xeWBJ2JYdFcaYqTPTOSGOYn7Eq7Omq4aFCY9UFwkZviCUiWL+n4zgtE10HYKWih0bYpkNncOTIEYFYhLmjx44Jlqxg3R8qm+2Q1xrVGCsqKnqIE/KPdaBo+EgbxhenTpkiFUpwEA4sOVQ0+IPlMVLlQ3dMYAZrGNeaDuHs3rs3dGkf0oFyGa3SAQe/SDcW/NsOLOYq0YF1BrGACCIu/KGezD7zTElkgmOfWoL1tmr8eqnPHHU9OjB0NggTdRFrJ2E9mp1S1dGjsl7VI7CAQweNeoDGfViVCfiAP86DieaD+gZm+jqdP+QLK2d03sFWp0n7QZh7FEO7feB8g0or4himwtcOeUAatX+sN0cHgHaBckQ5waHegmc8hzZ1TOUJ6TCd7nTBHXlFvm0/6AjgDxyRRtRbOAgd4td8km2fEPHAglf5Mh3yhfBRV1B/dV0x/SA95rIulA/yYDrbD5huefvt0+oo4kHbxh2DzQBl63zpl5mpsO/6thMiddqfWrMY1QWAlPDAOtAOViUqCf5MCxMCBotROxSaeV4fRyXRVgH8TAzpIXGrh0KAgxWnK/ZUtW5YH9fhhX3i1jSskNDAYLXOVFbhPCWIaKy2CxqbahwQSwiRfbsJFrbFC4vWdEgj8ol0jx0zxjwVND7zegjSGMsPLoBgYdnerK602vmGuOA2HE6LBqzm05zKyyBVVrpx4rsWwcmqLBNZhYIGBctEOzBGo0LYNstDhw5pb0E6IdDaIS9IKzpciKZpJR06fDiYCNN+wR+iE8vpvKNTth06H4g5OpswywkTbqaDBawdwsODPUgjhkbQqaDxJ+LQAcIosR3CRFhIO/KvO03TH9oI/MBogDDiO8oNrPQwTSrtE+GHpU2nAWlD/Q1Lm/aTyOdBVR/su0l00mcvWSJLFi3qYaknEm66/MZd+hUrItx2bti0KfRvozoe1cFqNoXWbKgIAz236QATIqEdKhvE0nS4hdQigeNmD6n9wXrUDpYxwkVvq0Van+vtE5UTf7aD1QnLEhU4TOghBAvmzQsaOKwqWywRnpl+9MZYdK8drAXTwgQD28GCMh06B9shr7iDgDWPtIZVenSqpgtLKzpBWB6mO6qsTOQTVlVUh0dkMTxjOqRLOy0A+rdpZdrXgb/pH4JjOoiembcwPqZ/fA+rGxBadKwQSwxP2PUVZaUf/bXLsU6VKSwu7XQHoX9H/QwrN3QophUX1gZgJGmHzhlptcUx1faJPMVzYVzjXWOfR9pxh2E6dKKwnOFguOEOwqVLWmwBET1g2F+YxReWSVQG22LDLY3p0EPbBWZfE2a1mWIUdkuPY8HkmYoMt59wYZU2OJHAf6g4Zh7M7zoYdA5mnrQVqM/j02yEsADQmE1nCgkY2c4WP/s8fkOkzXSgQtrOHqJBXBiCsZ2+BcVxsEUHCp5Ie1QHS9WOz+Rndypa+GGBm50R4tN3KjpuDGfY7kDEx9Ht68zfEFszjzAWbKfzpIcO9Hkcx5ilaY3BwkabstOvrwn7RJ1D52I6hG2KKRjZzjRaDitxhjPDSVf7tOPNxG+0YQiu6WA8mQ51Pcw4Mv1k8vvprTRibLg1xNhOmEMhYdwtnsNYje3Mxq/P4ZiusDgGqxoVVwsOLArbskHPjttINATzdlOHic861ZvjVg7n0UjCen/TfzLfdRp7uzaKH9yO71a31xAV5Bdjutph6MJ2plVjn4v1Oz9MGFVZ2m6MitsWKtzC6Yk5WLVwdmW3w7F/h01qmaKD77gdxDg5LFUtbGEdi90B2b8Rt2392+lJ5ndoWXYx1HdCpiigU9q0eXMwlAR+EO9Y7aq39KBjs8c0MU6NoRe0FZSP7dCOME6NNgLhRRimGKWrfdrxZuJ3WFrNjjoTcSYaZtJim2hEYf7NW2V9PqyymhVA+wNcbRGiIaFhm9YsxBm3RphEQ0WCqGoR0GHAokADRmPFpFg2O9xO45ZfO+T/oBrfRJ7tlQTaT6Y+UYlhZZrWJAQEPCEW6OhwO51oZQ8TP9NqRH5gfY+yrMcwsbXrkf0bYYVNUOJ4Jh1u0+3bXcSHvGPSFMMuuN1N9NYa49q2UQJrD/MCKCeUD8aHMUlkOli/ejhG33Lr8+lqnzq8TH6GGRxhupHJNMQLO+lhhHgBRzmvb+NNv2EWWZjFZc8chz07jZ5dC/AENdECITAdLAH4gUvUCjPD6cvvaDhYuYHlVZhIQqcSddgmnekMG7qByOqGneiQDMo9rMGYVmCs9Jt3PdqPXY9s0YY/hB0lfB1mOj5RVhgjj+XQYWE5FyZZE3HInx5WMa+D4OLODcIzTQmvLUCID+cxzGKPa6ezfZppysR3Ww8QR5huZCLuqGE6FVt7gT8SHdYo2kNuZYss6wZjmva4HCxZLEGDlYXBcns2GQ0Ns8UQ4UQtiaiA0+UPt4K43YTQaosSwwnYHs6F2MICsxsuJh211WaO/UVhgHK3w8N1eilUb2GETW7Z9cgWX4SH+MLi7C2uVM/Bwp6p1lHD4owVN+rlLmPVQtQ4w9Ydozxwh4exYMSHOmM6iDHuDMJWY6SzfZpx9tX3sDLvq7jD4nEqtmG3mfYkAhIdZn3o8TozU2HWLa7VFSnWzLg5/mmGly3fUWmwrAlWiHYYQsE6SVtU9PlMf0I0wiwpTMTo5UyJpiFsiZg9DhkWZpR6FFavwuILCz+dxzBcgPJEncT4M8Znw0TXnLyKGj+W8dl3b9rq13casTrBsL2lo3BF2qK2z6j5SMafbWghDD08kkx4mbjGqdiakx86c+YsfKxjsFLDxuBiDQXoCoaxXbsyoqLHEmEdv+tPWOh240M+XAmt5hGrk7LH/rT/eJ8oV9thYieehaLH7s1r7XoU1vDsZVrm9Zn4jlvdNWr1AR5CgEN9xMoD3J3YHRcELKyDiJeusDLB+Lpua5gEtsUdd3xhE9P6GjNOmyvO2cditU8znHR/D0trlLuidKejt/AiiW1YoZ8+R30qmliNwz4OsbAnpuxBeVQ6ezwm1mwtKox9m4RKbFYueygBFoZr0TpFLvxb2FimOaZnrlMODyEzR3F3YXdUKAN7iVbU2PUdiOkfltmOnTvNQ8F3NCQMq2CiEJOH9gMPdkNrtNYBIxBb4E6LJEMH9DyCDh71c4p6mMbsbDCsFWZQ6GtifaI8bOE0uSJMu43E6hzT0T7NtqfTbK8c0Na3Po/PMM0xz9vf7XqI8/aEOLTFtsITjceON5HfccUWIOwEIgLcLtriqSO2BVMfD1vvitlZ8xYAwmLOrtvLgWDRhYHVcejbJf3brkj2tfZ5fV2UTzRomw06BpOL3VEgXFsIWqwHB+DHDhfHTId1kVhwjiV2GMe1HeLAbLu2OkIF24rXXOSvwws7ps/h0x66Af9kOy9YJ1j+ZDtYt9hLADPnqHfId/ejy8o6hMOTf6bDWKTZkOy6hycPzXF6s87pcOy8h9Vrs9PDdWHlbR/DcFDYUixzaEzfjem0RP0Ee1NcIXb2I/Jm2BBmPFgTy6XaPpEe+84DdRFr5TGkgjmTTSGvrAEjs/xsgUZ6zWO4S7GHQjC3oYeh0B7CXo2Ddha2BjkWj1SOx9wbAdZStVoytUMN1NuVBRFCUIIK2jWxgVsiNG7c7mJwXzdyM3EQbg0IhVygelkURrCMCEtQup6mQaXGhBd+Bxt2dB3HsbCNPcw40GAxKw6IKAC78aJnRyGjwDH7muzkEvKByTc8N2475AlLztAQIYaIz3S4pUX+UQmRV4SjuWh/YI68oAEiPPOhAe0HEx8QIPDDzLEt8uCApVJ4gglx2OWICog48JAF1q7uU350Geg4cA3G7uAvzGneumFg2ZJtWYVdF+sYrFQwsYUNnGERYvUI8o36hkdk9eQYfoOntmaQHvyhDqBeoh5pB4sW9QJc4dAoMZEUmneUgfoLJltVWZqMcS34IF6Ml0Lg0RHYDuHCD+qePg8xwbW4Duk0r4VAYqOWZCxbxI0y148JQyxtAwOdDM4jL6j/WDYWy6WrfZrzDYgL9Q3103yS00wDtAJ1FsMeqAtB3VTtxnTQKOQV9RfpxBg8xNU0VFBu2iixy1eHhTqFsrCHGPX5dH3GFFtkFEuLkIhYDoKFzKFSoHfEY7pIeKxMIRwINABAjPAHh8YJCxPXQZggAqgM+NPLTzC2heecw25LgkCM/1CJIEIYbjBvzbQXDIFg3AxDGDoN+lzUTzzuqZeN2dfgMUwIOfIZZsHAPyofChc9vF0RcR4NENfjlg8ChMqkVyHgPBxYzFBM8MADvtsVF8IHK2dd1wY2nVf1/B8cYI1iA4+w4QiUCUTO7rR0KEhXwFvlGcKGckrFITzkGXUijAvChoBgHwIttDo+NDrMyENcUW9hzaKz0+UERrgO1yMe7cDHtmJxDvlC/cbQE+o2ftsOfFDXMF+wPsbuWmgnqNMobzR81A0IHowZCA7quc4rynq2Wk9tWt12nPF+o+MJnuJT8aJ+4LfpkHekB20Nbco+b/rF91TbJ+oF6rNtQaI8UF8mq3aqywjtFVqCDkLXfVi+YTqE8kD9RYcBDUI+oCPQGNN4gT90dtiUCGmApiBudDKIB5a+Oa5t5z9dv/OWLV16eg1KV+hJhAMrDLDwh3Vy2IdU91xRg0OviEaCBgCotkPPBwFBw4R1nSsODUTfDsMiQgUy8xfsCaEaGCoeGm0qDTYRJribwS0axN0exkkkHNsvGgmsGli1KDPUA+Q5njggHNQB1CEIHcQCnWos69yON1O/ITgQFYgI8oA0ojzbuhq/voMwO4Jk0wJmyH+sSWNwRacU63yseFNpnxBM1FFwQDniDw4dFixd3LlGKdtYaTOP67ggbmZbQKem247pvy++Z53Y9kWmGUfyBNCIW5VI4PZOiwJu0SEi5559dg/xTz4WXkkC/Y9Az/uL/pc/5iiNBLDWF2OLcLBCMGYK6wxCa6/6SGO0DIoE+gWB3LmH7he4czcTEFUttMgFbvtw+6efGLNXJeRuTplyEsgMAVq2meHa70LF2DD+zJle7GeMSRZMwmE8lY4ESCA2AVq2sdnwjEEAk272MjkIbdjyOuMyfiUBEugiQMuWVSEyASzTwew1lttgrTBmk7F0BkJMRwIk0DsBim3vfHjWIoBF5GFvarC88ScJkIBFgCaJBYQ/SYAESCATBCi2maDKMEmABEjAIkCxtYDwJwmQAAlkggDFNhNUGSYJkAAJWAQothYQ/iQBEiCBTBCg2GaCKsMkARIgAYsAl35ZQOL9xDaH2FEIb0jNpR3D4uWL53OHAHbNwk5rhV3bBOoNgVLNAbaZxM5yzeqvQO1Khr2UsdSP66hTJdt5vfdiu2LlymAzFRsn9ro1n5jCdn94OwCemoLDo6vz584NNtbG3pl4tXiYW7RgQeAn7ByPnU4A+wTrDbbts9i+Eds4+uyw5/CatWu7H5vGW04WqjqWiuBij9ft6tVDum7bfLEvNDcasqkk/tv7YQRsnmy+jkQjhLiaDhatWRmxR4DeGBz7xk5Tr6YOc3Y4YX5cHEP6sbF22KbMLtKj4xynNoKeozbPtt8ugPPZylKnvS8+8Tokc38K7NdrvwzUTEe8csbTgOvUpueo23hCcJ4yIOwODRvcY4N17GVLlzwB78UWjTrKjlXY9cp2utLjNgth2C8dtP1n0++t27cHb+IIezuDy3Ti7QvYNX98im98cJmHTMZtv/MMceHWP5brrZyxa9s7xuuCsKEQNtrGHcR06w7ipNpsfGfIizdjxcvjpxPwXmyBBONS8VyYpWW/syjMQo4XrovzeA0LXrmTzQ7jkXSnExil3vJgO/tFh/p8vHLGNpnaYMA123fs0JcGrwLq/tH1Ba/w4d2FTSX6b+/HbKOiwus6MEaLCoxbb1iy9ltLo4bl0h/G58JeDe4yTYw7OgG8N2vmGWcE7y5Dh4SxVPtdbAgtSjnDsjUdhiMgphj/DdtSE37xOh39OhvzWn6PT4BiG59Rtw9sJ4i3++aqwzupNm7enKvJZ7q7COAFhebryG0wUcsZrzYyXZR31rVbcxnm9fzeO4GYYovbCywxieUwTqk3k7b94XjYchH0pBj7QWVA74mX8KGXDPMbK34dL9IVNo6K47Hix7lkHNIddvuUSDy43rYkdFrAItaL7sAWvPDuLzi8FBDjaonOPmMCZP3GjT1uGxEeGGqOSENYuEhDjxcvqjJD2cVKM8JNxOFOAS8+BB+8bgd5TMYFb4xVnPAJ4TBf9KfD660c8GJIOLwdGfUUflE/o+Y1kfqt04NP8Ef5YlUL6hReTKk3Y8fbMfDGWJSLLifzWnw3yy2RcsawV6V6MzMmSpH3SrUCR5c/8mIOMeg4ky0bfb3PnzHFFuM3eANtLIfXO89Ur4UO84fXXpuvvkahhfnTYWOJFZaX6ILG8Vj+MU46S72SGG8GXbtunQ6ixyfCSvWV2maAq9esCa3oeCU2KmsUV6Ned70phlWJin72kiU9gkFDxxIovE7edmgkMxR7iEkUBzFbE4MVXmGu3ewzzwxeI61/Iw0YNsFyrDCHcWys5tAiFeant2No0HivGdiYDsuZUIZRHTqCt7du7bFaRF+L22yUka5buL1GpxPmsApit+Kt32Bs+sErwfE25jCXTP1GOPH4QngRNt7GC6GNtbwQ7QHtIplyRh3Gn+3MlTf6HNeWaxLJfRYoUfxS2KWwMFB46OFtd4Zq6ONVAcHKxDvecTtS1SXMek2etlbRY29QlRuD8XDwj0qNAq5VjQzvcEcDwHc0XlQwOAgJKppd6Oj1sYE1Gjh6fFgD5jvicS3GtexbJByP5ZBHvPrcdGYYSDP8gIfphipG5goEvCYZnYDpMMOLtEJAkF4s1dHphWhOV8MSWNNrPiCBfG9Ur5zBixThStTr3LFeF+PEOIaGhwkuNLAoQgfLFNd0qE8InOkw84+yhvUG/jo8+IMQ6+VtOI4XPCKtCEtbYuiQcX2USUYzXjBYr5Yc2bwQDxbX2+WBa8EBDd50sPxQv5AmOAzzwAiAQ53Dq7ORFz2+ri1elBXEznRYBoXVGbAqUS9Np5dXgZfpkq3fCAMTTnr8HPUD6Z5SWRnkEx0Q6gEcDAdwQX1DO7HvJDFBBoszmXIOIgj5b5da7oVOTDvEf6YSdd0+9XF+RicQczUC4E5Va0fD4OK2RR/Hp7awcMuFiqFvL1H4W7ZsCSqwThKsDDRM/JlWIayJbWo5knZoFGE9rj4PSwXCi2UqmXZo5BDNVB1YNXZVYIS3QAloIJiKp+n27tvX3TnhODowMIU4w1KDQ0PEO8DClgIFHoz/UJYQoTDLbKIKG+fwZ058wJo1LU7cqQxRHJAOs9wgcpuVKNsibkQf+hXh28vOFs6fH1j4WOuJvMZz6PxgGWuHckJHjLphPpCCDgNM4XAOwqvFV1+LTzCdPWtW8JAAXstuj2Hi5ZZmmlOp31izirs37bAhOzp48IUlO0tNgpkuSLfqDFFfYrlkyjksLHA1V6ugXmBy2OYRdi2PxSYQU2xxCQpeN24zCCysNl2NshLgbL+4DTYrJxqQ2aAx4WQ6WBvagsBxVJ54rq8qQNiMb7y0mechRhBH8IAQBB1ZyOtkYEFjDM10ujPDMVig2kHoqtUMcrodxiy1Va3DNhs56gWETTukQ4uZPtbbJzpWs5zhFx2rrhvI75QYD4mY4dpDLKbViY7NFGyb6UDVmdsOnYi+U8H1sOJtt69LtHE8lfrd0DUGr8NHGzItbQivyVz764v6ru9mECc6WQhtoncuOr38PEWgV7GFtzCLDrdu+rYNfvTYrjlDioqDJ09MZw+uo9HagmpfY16fq9+10GJIBEIb1oh13vRwjP6NT3DSzvyOY7qj0+fT8bnXEnuEaTdyU/RxHsJj1gkci+UwDmw7e61omBia18Ay1PVOH7cFYYAhqLBaMdHYmzM7EPiDJW873MbDpVq/w4YpMKZvphHijztFPSRnpyVTv3X5zFPDRhDbvo4/U/lyHe6pVhwjJWhkaAi2CEBwYckG1pXqleHHFAI9LmkGawsrzuGY2UhR2XB71l8KGEKLp3j02HO8sWSM6druSNfYLY5jjNB05q2+eTyV7xhDN11YuZllrf1ijC/Mrz6vP01B0cdMK1Qf6+2zKYQT0m0+DGE/WYUxXG099xa2PodhKtvhzgRCm2r9DssvyvItte8BJp8nqE4Z4p/IRKGd1mR+I3/omHDnhTFiuvQRiCu2iArWrS22B5V1ArHVExmY/DGdObiuj4cJKG7XbIeKnEijsK/Ppt/2zDfGGDHZZVuKOs327SWOm49Uan/6Ew0DVp45wabPJfOJjg9hmi4s7LBywxBIvM4E4YaJbVh4Zhrs72FiBwMAf7GcPcEZy58+jnHSMIdw0lG/MeyBPTdsh/FS/OEuqK8tS132tpVvp5G/EycQSWyDtY+qlzetLnyHJQGrC9aMOV6GZNi3SThmjknhN1x+SIVGZe4vYtuZy1P/ozJvVc+jn6kmYsIacxi3+fPm9bDYToWmvil+YWLYw08CP8ImusIWsoelPYqY6cZsJyksPNuP+Tssnbi7mqRue2O5KFa3fS06ATvNway/tVoB1yVavzEpiRUZ5ryGGT/GmdHGsHonUT5mOIl8H6CGrDB+HmZ5JxIO/Z5OIO6Yrb4k7PXVO7vWJGJFgF0ZUGi2s/3gfFhDLoowE22Hna2/cRtoW224XcQYZ5gL44YlW7ilDf1LM6uw4YGwDjFMWOwx07D8petYYcjkaauyykMZdbGzyyHZtCCfYeWUaP3G3Q060rC2pdOGoQ9zGEkfz9Qn0oSx4mQ6pkylqb+EG1lssRzFdnpsD8ttbGdPhuE8LALb2VYDzvenXhUzyrBgbIeZ9LDF84ON1Qb6GnucVh/PxCcamS1KYVvrhZVbWJnbaUTYYQ05LDz7WvN3WB0J42lek+h3dCh2upB2DIeF5TWR+o1wMZyCzm2KErfFCxfGXMZYEzLUkGheovpHHjC0EZaXqGHQXziByGKLShG2phXLt8IqXtjkQtitn30MY0VhY7vhyc+NoxDcsFUdeGjAbsxY3G47WDZhlqRuGLb/VH9j2Mh05gSmPm6nG8fD6oH2b36G5dGezDL9h30fGMIJacLywTCHCcooa5LNa8PSpFcopFq/kU5Mhuk4EB72kYXo2kNy2o+Ztkx8x5IvbKaPh0TwqVclZCIuH8OMLLaAUxHyAEGYAMMvbqnsJU72pAIahz3OZ86+2hYWwrUnRsKEIBt75cnKerGtMeR9m7GwHfkLW2wPi81c+wh/sDbxMAEaRiqNsUWlAQ5ra/FILzq/sEed7XKyrW1M5oTdWgeBW//ZT4HhtL3uFk9+2c60sDFOHbbtJcbD7Y4Awoa8mWtk7bDx2+Zopwl+kE+4dNRvhGNP6EF0z7AeaND7JMB/si6snM2wwAwPWWh2+MTTbbYxZF7D74kRSEhssdjcnrgy19baUWOg3bRiMKlmzkTbDQoWoNmAUKHt+BAG1uLCUkHPu0k9oWY7NK5EBNcWcIRnHzPTrePDY6WmszsTnNPWFMQB+xnYDqs8zDE5MLYfDsE1qPhYyYCHDTAEsWr16mCNLTZ5jjpWGrYCAmFhImaLChsPbuAOBkt+7E7UFB40QLPscGsdJtB2XvVvWPl2WpAGzRy3sVguZzusKTYbP5Yn2Q6dL14bg6e9DilLDbucYf0q6qHZkdvX4TcY66ExCC/CMJ1+NF0fS7V+Ixzwtx9ZxvI109DQD1rAv15CiO/a2R2hzRb+wspZX49P/Ti9eQzfw1ZL2H74OxqBmHsjxLocAqifWsLsb9h4rb4WfoPlLWpCSDcSCBJuU/EbVoiefccxjG2alUyHY98aomLgufJYC/rR4PBEE5Yh2dakDlN/ImxYPK2qJzcdZoghYrAqEB8ans6D9odKjkYMawRP1R1Qjdt2EH10GBAkTOAgPm09aL8QMjOtYIFJNNtqx9Iq+IUgIFxYWdrS0mH19onhGdtCRr718/Zz1EY0eoIMaUAHowUQgoA0Ioxd6lFbbdkiX3hmPuy2OlZadCdqPpSAYRJ0nkifnUYdDvxAlFGmGG5CWlFGZkcAv8gTLHWwRvohPngM1xQh5FkLqxk+OjNMXiIec+gGccLi1HxwTSr1G2Wpl02iLoMrOjuIPOJH+uHQfnCHiLTAf9iTeujQwUM/CJJIOQeRqP9wV4I8226q2qshrE3a/vg7PoGExRbiogsFs5bxGhkaI9bgQqjQK6MyoVHhTwstrCLsHhVWqBgThrDYDQN+cd1kNduvHy1FhYP1AesYE3qwEs3GEYYDS29sywD+ULmxMQnEDGtlbStW+0EDwCL0MAsbftC5QKhgKb65atVpQgs/cPXqtnlM174HaCzwj88wywKigY4pzALuDC38f5QFrtWdpfaFMsXyInPMFXGjIwU/dGooA3Qo+1WD1EKLOxEIdLw6oOMxP3EN7ooCa9Xo6BAPwsUG2Vp0kWY8vopyBWt0BMgLHMoc4YBxWDkiD+gMbOs/TGwxZtqu0mIucUQcEDzwMcUax+GSrd9abDGkgs4XdQ1tAsKrJ/pQB9AuUBZoN/aa7c4UdG7RiI5R340kUs46DMSBOm9auKj7YUM++hp+JkYgb9nSpT23PopwPQb2YXWdtXjxaUu+erscY26oFPjDcqJi1VBgOcJCiOfQkHDrisYIS1EPL0DEUUHQAOMJa7w4svG8ZgYLDfnDY7JhjT6RtOuODxYR+INlb2WARohOAyILYUAacE1Y55hIOrRfCA8e5shXHSjKEeHqzg5DGlHzC0FCh47lhOhA0HlARMKcvq02z0FQIayo27pzR/xa2E2/Yd91WUWp37hzgvWqHwbSfLHMD/Eh7XYHERZnb8cSLWeEhXaG9oR8a0u5tzh4LjqBXsUWDQsVAg1LFzwaPfbVxPhXIuN00ZNEnySQeQK9iW3mY2cMPhI4/cmDLgroabFptna618dtDpzukfV5fpJAzhNQFjEdCWSKQEyxtZekYGwNtxUYr8XEWNRbu0wlnOGSQCoEwp5cDBvzTSUOXksCJoGYYmuPx2ESSk9ExVtCY0bA7ySQjQT0bL+ZNtTvsA3WTT/8TgLJEgifPVChYZjAFFxMGuAP6zrjLadKNjG8jgQyTQATaJjgDVuvipUfePjB3hw/02li+H4QiGnZYub7nLPOCpYeYZkMJsgwU6xXAfiBh7nsbwSw6gLLA/EXy3HkNhYZHk+FQK+rEVIJmNeSAAmQAAmcIhBzGOGUF34jARIgARJIlQDFNlWCvJ4ESIAEIhCg2EaARC8kQAIkkCoBim2qBHk9CZAACUQgQLGNAIleSIAESCBVAhTbVAnyehIgARKIQIBiGwESvZAACZBAqgQotqkS5PUkQAIkEIEAxTYCJHohARIggVQJUGxTJcjrSYAESCACAYptBEj0QgIkQAKpEoi5EU2qAfN6EsglAkUdbTK4Tb0mSP0Nbm+VgeqvUG0mXtDR3vXXIeotXdIuedKmNrNpy8sP/lrV96b8QmlQfycLBkiD+mvOK8ilrDOtfUQg7+GxqgbRkUCaCXxr8tI0h5h6cEPbmqSiqV7K1OewlkYpw5/6PrS1SQlq+poBxPh44UCpKVB/AwZJrfqrLhwkR4qK5bg6RucnAVq2fpZ7v8/14PYWmdhYJ6ObTsjo5nqpUH+D2nu+rj5TECDcgZArMZfG2h7RNOYXyOGiEjmEv4FDZM+gUmUVd74puIdH/uh3BCi2/a5I/czQADUMAHGdpMRtUkOtlLc0ZCUICP6kIJ113emrGjBYdg8eJrsHDQvEt4XDEN1s+tMXim1/Kk3P8oJx1qknq2XGyWMypaE6GGPNRQToGPC3uO6gYAx4x+Dh8k7xCNlePJzjv7lYoDHSTLGNAYaHs5VAR2AZLjh+KKcFNhZdTMqh88CfFt41Q0crq7dUXZIX6zIezwECFNscKCQmUdR4a6vMOXFYFqg/jIf64EzhxUTbmiEVskH9NaqVD3S5R4Cllntl5lWKIbJL6vbLInWLXaSWYfnq0MFcXL1bzqvZK6tLx8jK0nEU3RyrDBTbHCswX5KLda5n1R1QInvAa5G1yxsdzrm1nZ3P6tKx8qb6wzpfuuwnwFLK/jLyLoVn1lcpK25X8ICBd5mPmOFO0d0n89SwyovDJ8umkvKIV9KbKwIUW1fkGe9pBIarGfkrju0IlnCddpIHQgngibd3VW2VuUp0nxsxRarVMjK67CTAvRGys1y8S9Wc+iPywYPrKLRJljzWGIMfONJlJwFattlZLt6kqlAt8r+8eqdaaUCRSLXQC9vb5eqqbTJBCe/zwyulVT2tRpc9BCi22VMW3qWkpK1Zbjq8WT1Ke9K7vGcyw+i4RqnHkx+pmCX1BUWZjIphJ0CAwwgJwKLX9BEoa22U9x9YT6FNH9IeIaEDA19wpssOArRss6McvErFMCUAtx3aKEOUZZtNrh5bJGK7RPWJBwcaCgq7tlTEdop5wXdss4iNZrD1Ir4PbmsNHrjA9ozYmrFEfWaLG6r4gvOvR8+WWrXrGJ1bAnHFNhu3yutrZDW1tXKivj6I9rNf+Ge56ZYP9HUSnMT32pz03/hAlG5WQwdDWt0IbVvhADlROkLqh5Wrv5FysmSYNJaUSmPxUGlPwxhnvhqDHnTyuAyqr5Pi+lopqT2q/qpkSN0xKWjteyEGZ/B+YPScoBNxUpEYaUAgrtj6zqn+5Mluof3kPX/njdBmotxhCV5X9U6fPm7bNLhEakaNl9qRY6VG/dUroc3kHgMQ7JNDyoK/Yz0gdkiJEtyyowdkmPorO7JPBjZ0duA9vGXgB54+A/ffjD4zsM4zEAWDjECAYhsHUt3x44EPnyzaOEiSPo1HTbFEKdNu6JyFUn7pNVJ+yTUyZNa8TEeXVPjtauXA/jdekV1P/kbqXnlBBh3el1Q4US8Cd/B/pWxi1EvoL80EKLa9AIVV29bWJnPnL6ZF2wunKKfGNJ+Qs2szJyiDxoyT0TfcLmNueJ8UV06PkiSnfvLz82XC0guDPyTk9ScekU0/v0/Kt62XkpamjKQN/LepbRsPFg3JSPgMtHcCFNte+DQ2ds7kvvuGm3vxxVPxCXTIpcd2qgml9LvSeYtl4l33SMWV16vRgUzEkP40h4V47vU3SeG4SfKJj39M5heqJ+mkXsa3pncDdNBBOTwwZo76xu0aw8ohk8dyt3ZmkkpX2M0tnRMaS85e1gex9d8osDfrWPV6mnS60vlLZNFPH5MlDyyXiqtuzGmh1VyWLFkin/v8F2RNXrF8p3CMPKTGWA+oV+ek06EcUB50fU+AYtsLcwwhwI2fwHGuXjDFPXVuGocPBo4aLXO++Z+y5Je/l7KzL4gbd655uOWWW2T+/PnB8NXm9gHKCp0rT5ZPVw8npO89Zeksj1zj6zK9FNsI9AvUeku65AhgrDZdT4iNUWOy5zz+mlRcc1NyicmRq66/Xg2JKKeHsbaoHb1+Nm6BbEzTzl4oD5QLXd8SyHmxbVG3+g0N6R3b6tsi6N+xzTxRlXIG8wYMkFlf/o6c+S8/kMKhw1IOL9sDOPvss4Mk6mEs/MCetc8oC3f5yKnBAxap5iEd5ZJqGny7Pq7J9uqf/ywDVGUfNGiQ5KunaPBZUlIiw0pLZfBg99u5bd+5U2pqauTcrgraVwXY0tws//C/Pi0f+fjdarXCou5ojxw5JL979CFZ8fqrMm/BIrnrE/coZp2cmpoa5enfPSJ/eO4ZGTtugtz5kf8hEyZO7r52y+YN8oS6ds+uHXLxZVfJe2899fBEb+F2B5CFX6Y21qSUqnxV3+Z9979kxPmX9RrOxo0b5Sc/+Ym89dZbMnz4cFm0aJHcc889UqrqaTz3hz/8QZ599ln52te+Fs9r3PN//dd/Le973/vkvPPOCyzTt99+OxgWiHuh4WHChAnBLz2MZZySdeq1OHVqv4Mbj2xJ6QWXKJcXzYD5PeMEIlm2lZMmybw5c2TO7NkydsyYQNxWr1kjR4+5H2ifpCrmmTNn9gB14ODBHr/T/aOh4aR89m8/KQ/894+luvpod/Ctra3ykfdyl/jqAAAg6ElEQVTdID+67zsybvxE+eoX/14+8aFbus9/41++KH//N5+UURVj5PFHfi3XXnGu1FR3Mjywf69ctmye/PnVl1TnViR/+RcflB9+75vBtfHC7Y4gy77gabHhKb4vbM7/+1Ekob3wwgtl3bp1cvXVV8v06dPl5z//uVxxxRWR7nq2b98uy5cvTwu9vXv3ykm1ZBDu05/+tDz00EMJh1tQ0PtuXbsGl8lT5TMSDte8AOWC8qHrOwJxLVskJU+tCdSuuLhYZp5xhmzctEm2qF4b30eOwFM50V2HerY8T1nJibqw62Bdmxb27j175Fh1ddApJBp+FP/btm6RD952rdTXnz7m9dhvfyVvrV4hm3dWy9DSYXLzbR+QKy5cKGvfWinDyobLff/2DXnw0efk/Isuk7/73JflnPmV8tCvfiGf+NRn5N6vfVnOPvd8efjxF4JkzJ2/UP7vVz6nLOdPy5OP/yZmuPMXLomSbCd+RrWktpvXxA99Ssove3fctD/11FMyZMgQefzxx2XgwIGB/1tvvVWuvPJKefHFF+Waa66R4+rhFNSTwsLOKt/U1BRMQqE+a4dObceOHVJRUSHDhp0artDXYgz18OHDMmXKlKD+YvjqoOrY8Vu7n/3sZ0E88FtXVycjVNuAP7OOar+pfG5VrzpfOXSMLDmevGFRrspnT8GpfKaSHl4bn8ApFY3vt9sHhLJycuftb7USNu32Hzgg69avl9dXrJBtylrAbRCelDl46FBwfO++fbJ5yxZ57fXX5a21a7stAFxfr/YegICv37AhOLdv/36BuMLhc+euXbJDDRlsULeLEHk4VOg9ypJ4c9WqwA/iQRywLJCOajW8AIe4tqr0pMPt2PaOXPWuG+X3L646Lbi3N2+Uy6+6NhBanDxzzvxguOCtVW8IRBpu6fkXB58DBw6SK6++Xt5847Xg96YNa+Vd170n+I7/Lrvy3XLixHHZuX2r9BZu9wVZ+KW0NfnF+YUlQ6Ty038fKVcYNjhx4oT8WQ15ob7BLV68WF566SVZunRp8LuysjIYKgh+qP++853vyG233aZ/SlVVlSxbtizwP3XqVPnqV7/afW7u3Lny0Y9+VCarOo/x1PPPP1/uv/9+we3+WWedFVyHoSw4+IXoY0jihRdeCIY27rzzzu6w0vnlteETpTmFtcXDUiifdObDl7CSElvA0T21FjQILayFeaqynTFjhhxSFgCsTDg0gOOqMUAMYTVMGD8+EMSdu3cH59Hzr1G3gOPHjZO5arhimrIUdqlz+INDHGhMU9XxWbNmCSwQuDYVLo43q/FTuDGjR8sI1fAwpox0DC8rC44H/3UJ96kDyX274urr5Ev/fK8aFxx5WgC7dm5X+RvT4/jo0WPlyJHDsm/PrkB4zVvE8lEVcujg/sD/1nc2S7la1qTdiJHlwdcqdW1v4Wr/2fiJN+Mm60ZcdKUUlgyNdDmsWAwjvPe97w2sTNy+P/jggwLRLDPqgO68wwJFPbruuusEQwr33nuvfPvb35Y//elP3V43KCNgreq0Mb67RRkMn/vc54LvOL5PdfAQVu0Qz5e+9CW56qqr5O6775bf/OY3+lRaP5vzCmSHeiIsWZdK+SQbp8/XJS22eNwQwoHVABA/WJg4dvjIkeAYoFYdPRocw60U3ERlCUAMJ02cKBWjRgVjv7B+YY0OUrd/+tZt6NChwQQcBBwzspiMwh4Fteq2rEDFMU6JMlyJugWEX9vZQxQL1brF6dOm2d7S/rteWaJFXbexOvABRUXSpCxwDDsUqe+mKyoaqKzzhsAqhxWrb4HhB5OScJhU6y3cwFOW/lfY0WllJpO8QeOir23GJBgE7bHHHpOPfexjwdjtpz71Kbn88stlT1eHHyUNmNxCHfzQhz4UDEuYAvrhD39YxisjAWtgYSXffPPNwfcxag5jwYIFsl7dSblwdYWdwybJxJ1K+SQTn+/XJC22EFkIZbEaB4Mg4jusXYgE/s5UFuiMLoHTo7MQY+20sMLihVVhCg386FlkWL0Qawg7hhAwPDFUjc9pZwurPu7is0JZsXW1nbeTOv6jVUeChyJgteK76WpqjsnkymnB+B+s3Frj2rq62sArJtp6C9cML9u+t6Zwi9u4v/OuKEqe3njjDTmgOuYLLrhA/umf/ikYPoAFelR19j/+8Y9Dg0B9Nd00VVd1nUQ9Peecc4LxWO1n7Nix+mtQV+FfO7vu6uN98ZnKUE0q5dMXeetvcZxSvwRzpvd3hWWpKy6WheHWXf+Zt3B28HqiApYqbrtOKlE1nZ64wDmI9yJlPZSquDA8gXFdDCFkm5s0uVLWrH6zO1nHj9fJ9m1vB8u7sMQL1qseNoAnTJxNrpwa+J8xc7Zs2rCu+9q3N20Ivo+fMEl6C7f7giz8gg24k3XHXlourfXHI12OW3p72RYsUIyv7u4aikJAepUAvtsW77Zt27qHp3CnBgHHGK125vCPPub6s6ijTaacPDVnkmh6UimfROOif0lub5CWrllbVECMv2IIAA4ztabDEixYpmEOM7xwsIaL1RgrLOVGNearHcZ/4QYrAT+iJi8QF8ZzMQQBYa7tmpDQ/rPh87233RmI671f/7LsVmtlv/DZvwzGac+74JJgpQGEFWtzMen179+/V63FfUXtJnZHkPQ7P/wJ+emPvidY0bBx/Rr5ly//g1z/ntukdFiZ9BZuNuQ7VhpqU7jFbVXDLju///VYQfc4/oEPfEAeeOAB+fznPx+IJG7pv/vd78rTTz8djMPC80y1PBDLsLB64Pnnnw/GdHsEon788Ic/VEv5quVb3/pWcLeFMdxUHO7OsM7WFPxUwrOvPa96jxSlMFSTSvnYaeHv+AQiWbbacoUYHlFjslg1gO+YCMMtFCxPWLMYr8WkFpa8YAzXXvKiLQtMmGF5FibEYOGO77pFw22fdgijvLw8CB/CC/9w47r8Ik44iDScTiOOI15MmuENC3BYAaEn24IDafwvT/QgiRqTnlQp3/zXH8m3lNiet2iabFCied+PH5Di4pKgs/j+j+6XlStek/PPOkN+8K/fkK9/675gxQKSc90Nt8gH7/qk3P3x98uVFy0KRPb/fP27QUp7CzeNWUl7UFUDTi2rSibwPb+4T6peeCrupXfddVcgkA8//LC8613vkosvvlh+8IMfBBNdmDSD+8pXvhII8RzVYWPS6o47Ojs5HTjGYTGphjW6X//61+V73/tesLJAnzeHq/RdmT4X6/Oyyy6T5557Tm666aZYXpI+Pl1tJpPKsi9EnGr5JJ14Ty/Me3is2j6/F3fLgc6TEDFUOExKwRrFzD+GDbSDuG1SooYlXHAQ3xmq4qJiQixXrl4dWMAYHmhSfhHONDVbrCsxrNftao3jaLVaAUMHWNalr8cEGqxknMMtHqzcyepBC1yDJWEQXAjzVNVgMImGpWHwg3FjjO9iaRjGlvFQRiJur1p+BvfaWzuDz6j/IY14WAHjsLZD3vA0WHl5RTB5aJ8/ebJe2tT1WKdru97Ctf2m43cqr8XRr1O6a796oiuFBxuiPkGm86s77JEjT18tgg4ZxsJoVXd1vdPX6c9DasUMro0qqPq6WJ/o+BGX2VZi+TWP4wk4uAldk8HmuckNNSk/QVY9YJD8dNxCM1h+zzCBuGKrG03UdEB08RDEACWy2mmxhXiWqdlevZJBn9efsHghshB2bbniHAQKFRaiikYQq6HocLQga38IF9/1b+0v3meyYhsv3Fw5nw6xvVjtn5qqBYa9EWZ+4Rsy9uYP5gq6lNKJTgHrd+FssZ134rBcdmxH8NLJVCLBAxEvjqhMJQhemyCBSMMIiYSJ5U2m0Pa4tmuyC1ZnmIMIw/I1hRb+tEhq6zrsWvOYLcgIV4dh+uP3zBPYMqRzvXAqMXWoTnbzFz8jmz53t7Qe7xwaSiW8bL8Wj/zCme1koFqzfE3VVrny6PaUhRZhp6NcEA5ddAJpF9uwqLG8Cw5rZWFl0vlDAK9gOVyU2titpnXw8V/LGzecJ4efeUQf6pefK9QTmHBFyqKHm1lfJR/Zv0Zmq890OJQHX42TDpKJhZFxscWwAv7weC/GevVEV2LJdOu7rS35J6Hcpjw7Yn992Pi0JaRJjXdv+F8fl5Xvv0pqVryctnCzKaAnnngiSM6sgla54+B6uVZZtCVp3DQmneWRTdyyPS2nBlYzlFIMK+gVBBmKImPB4jYO42f79u5Ra12nZCye/h7wO2rTFLzeJZ2vxqlbu1JW33Wj9Jd3kOk68PBDD0remj/LZ9rqZFJN52Po+lw6PlEOKA+6vieQccu277OUvhj1bdzKFa+mL1AvQ8qTP6jJmEwMINWtWyUb/vaj8uqVC2T7v35VTu7cmpOEke5HPnarFH7lHvlwa5VM6ki/0II/ykHNguQko1xPNMW2lxLUy3WeUlsc0qVGAGOEK9I4nGCnpklt6LPrP74tr193rrx5++Wy84ffkBOb19nesuo30od0Ir1Id9nrL8gw9VRYphz4c6w2U3Tjh5vxYYT4ScheH1gLjEm99WtXySMP36+e9vpA9iY2B1L2WtkEGdd0XCY21mU0tcc3vCX42/G9r8mgMeNk2FnLpGzxUilbcp4UT5up4nZh2alH0rdtkZqVr0nNqj+r8eZXpOlQ1yL2jNLoDHzPoFIBfzp3BNK+ztZdVjITc73aG1dvI3nfj38tC5ecm5mIsjDUdKyztbOFtwPccWiDlKXwoIMdZiK/m5TQHsgboP6KZL/6rJJCOZZXKNXqrzUNIlyonhEa3tEqI9RfuQpxXEeLjFVDAmPV58Denx9KJBsJ+a1RDzA8MHqONKTxDb0JJYCeAwK0bONUBFi3eJiiYvQYeerR/5aO9hZZ1A9foR0HQ9pOo8H/pmKW3H5oowxpTf+4ZLyEQvAqlfjhz3Z1aquQ+rwCqVefJ4Pv+YEAtykRblMPxbSpZy0LlFFcoNaLF6hwIKwlam+CYjUaXYI/NQRQmpGRaTul0X+fKCwKeFNoozPLlM+4lm2mIma4/ZtAvCcPy1ob5daDG2Vo2+mi17/J9F3ujqsXQz40ZrbUFJ56rL7vYmdMNgFOkNlE+LtPCEAAfjl2btoeeOiTROdQJHhwAXwptNlTaBTb7CkL71JSryyvX6mxxA1DRnmX90xmGDzBFXzpsocAx2yzpyy8TElrfoE8O3Ka7FWz5ZerDVYK+Th30vWgVe0B8vyIKbKhhJ1X0hAzeCHFNoNwGXR0AhCIA2otLgQ300vDoqcqd3xiaddzSmirBwzOnUR7llKKrWcFns3ZPaaE4qHRs+VMteHKxdW7pDiN+wFkc75TSdtJtbrjxeGTZVNJ6rurpZIOXhufAMU2PiP66GMCEI7tg8vkrLr9sqjuYEqvfunjpPdZdM3qZZqrS8fIm6XjpCmFd731WYIZkVoqSEcCWUgAAvJK2SRZqcQEoruQohuUEkT2rS6R5Qsbs7Di9pIkim0vcHjKPQEIystKdGHBzVFvKVig/lw9feaSBp4CWzOkQq3cqBCKrMuSSD5uim3y7HhlHxKAwMDKXVk6ViapvRUWHD8kUxqqpVA9zdVfXat6am3H4OGyZuho2a0mwNzs6dBf6fZ9vii2fc+cMaZEIE8Jz7Dgr0g9Hjv1ZLWccfKoVKqXIPYH4YXA7lTj1W8Xj5TtxcOlWT0+TNc/CFBs+0c5epkLCNFmNZmGvwFKeLFkbFJjrUxqqJXyloacYVKlVmHsHtzZgWAJVwsFNmfKLpGEUmwToUW/WUsAArVd3XLjT9S/wWrDIIjv6KYTMrq5XirU36D2zO0VGxVMo3qI43BRiRzCn3prAsS1Ib/zXWNRw6C/3CRAsc3NcmOq4xCAgOFWHH/alarNb0Y1n5SytiYZprZ4xEQbvg9tbUrLG2t1PNgh7HjhQKkpUH9qYqtW/eH7EbVfQR03hdGYvPuk2HpX5P5mGEIXS+yK1KvCB6s/PEiBT7w6HGPABWoLxc6/DrXpYofaQLFru0W1BKtN/WGMFcvUGtQfHjDAZ7P6oyMBm0DesqVL++90rp1b/iYBEiABRwS465cj8IyWBEjALwIUW7/Km7klARJwRIBi6wg8oyUBEvCLAMXWr/JmbkmABBwRoNg6As9oSYAE/CJAsfWrvJlbEiABRwQoto7AM1oSIAG/CFBs/Spv5pYESMARAYqtI/CMlgRIwC8CFFu/ypu5JQEScESAYusIPKMlARLwiwDF1q/yZm5JgAQcEaDYOgLPaEmABPwiQLH1q7yZWxIgAUcEKLaOwDNaEiABvwhQbP0qb+aWBEjAEQGKrSPwjJYESMAvAhRbv8qbuSUBEnBEgGLrCDyjJQES8IsAxdav8mZuSYAEHBGg2DoCz2hJgAT8IkCx9au8mVsSIAFHBCi2jsAzWhIgAb8IUGz9Km/mlgRIwBEBiq0j8IyWBEjALwIUW7/Km7klARJwRIBi6wg8oyUBEvCLAMXWr/JmbkmABBwRoNg6As9oSYAE/CJAsfWrvJlbEiABRwQoto7AM1oSIAG/CFBs/Spv5pYESMARAYqtI/CMlgRIwC8CFFu/ypu5JQEScESAYusIPKMlARLwiwDF1q/yZm5JgAQcEaDYOgLPaEmABPwiQLH1q7yZWxIgAUcEKLaOwDNaEiABvwhQbP0qb+aWBEjAEQGKrSPwjJYESMAvAhRbv8qbuSUBEnBEgGLrCDyjJQES8IsAxdav8mZuSYAEHBGg2DoCz2hJgAT8IkCx9au8mVsSIAFHBCi2jsAzWhIgAb8IUGz9Km/mlgRIwBEBiq0j8IyWBEjALwIUW7/Km7klARJwRIBi6wg8oyUBEvCLAMXWr/JmbkmABBwRoNg6As9oSYAE/CJAsfWrvJlbEiABRwQoto7AM1oSIAG/CFBs/Spv5pYESMARAYqtI/CMlgRIwC8CFFu/ypu5JQEScESAYusIPKMlARLwiwDF1q/yZm5JgAQcEaDYOgLPaEmABPwiQLH1q7yZWxIgAUcEKLaOwDNaEiABvwhQbP0qb+aWBEjAEQGKrSPwjJYESMAvAhRbv8qbuSUBEnBEgGLrCDyjJQES8IsAxdav8mZuSYAEHBGg2DoCz2hJgAT8IkCx9au8mVsSIAFHBCi2jsAzWhIgAb8IUGz9Km/mlgRIwBEBiq0j8IyWBEjALwIUW7/Km7klARJwRIBi6wg8oyUBEvCLAMXWr/JmbkmABBwRoNg6As9oSYAE/CJAsfWrvJlbEiABRwQoto7AM1oSIAG/CFBs/Spv5pYESMARAYqtI/CMlgRIwC8CFFu/ypu5JQEScESAYusIPKMlARLwiwDF1q/yZm5JgAQcEaDYOgLPaEmABPwiQLH1q7yZWxIgAUcEKLaOwDNaEiABvwhQbP0qb+aWBEjAEQGKrSPwjJYESMAvAhRbv8qbuSUBEnBEgGLrCDyjJQES8IsAxdav8mZuSYAEHBGg2DoCz2hJgAT8IkCx9au8mVsSIAFHBCi2jsAzWhIgAb8IUGz9Km/mlgRIwBEBiq0j8IyWBEjALwIUW7/Km7klARJwRIBi6wg8oyUBEvCLAMXWr/JmbkmABBwRoNg6As9oSYAE/CJAsfWrvJlbEiABRwQoto7AM1oSIAG/CFBs/Spv5pYESMARAYqtI/CMlgRIwC8CFFu/ypu5JQEScESAYusIPKMlARLwiwDF1q/yZm5JgAQcEaDYOgLPaEmABPwiQLH1q7yZWxIgAUcEKLaOwDNaEiABvwhQbP0qb+aWBEjAEQGKrSPwjJYESMAvAhRbv8qbuSUBEnBEgGLrCDyjJQES8IsAxdav8mZuSYAEHBGg2DoCz2hJgAT8IkCx9au8mVsSIAFHBCi2jsAzWhIgAb8IUGz9Km/mlgRIwBEBiq0j8IyWBEjALwIUW7/Km7klARJwRIBi6wg8oyUBEvCLAMXWr/JmbkmABBwRoNg6As9oSYAE/CJAsfWrvJlbEiABRwQoto7AM1oSIAG/CFBs/Spv5pYESMARAYqtI/CMlgRIwC8CFFu/ypu5JQEScESAYusIPKMlARLwiwDF1q/yZm5JgAQcEaDYOgLPaEmABPwiQLH1q7yZWxIgAUcEKLaOwDNaEiABvwhQbP0qb+aWBEjAEQGKrSPwjJYESMAvAhRbv8qbuSUBEnBEgGLrCDyjJQES8IsAxdav8mZuSYAEHBGg2DoCz2hJgAT8IkCx9au8mVsSIAFHBCi2jsAzWhIgAb8IUGz9Km/mlgRIwBEBiq0j8IyWBEjALwIUW7/Km7klARJwRIBi6wg8oyUBEvCLAMXWr/JmbkmABBwRoNg6As9oSYAE/CJAsfWrvJlbEiABRwQoto7AM1oSIAG/CFBs/Spv5pYESMARAYqtI/CMlgRIwC8CFFu/ypu5JQEScESAYusIPKMlARLwiwDF1q/yZm5JgAQcEaDYOgLPaEmABPwiQLH1q7yZWxIgAUcEKLaOwDNaEiABvwhQbP0qb+aWBEjAEQGKrSPwjJYESMAvAhRbv8qbuSUBEnBEgGLrCDyjJQES8IsAxdav8mZuSYAEHBGg2DoCz2hJgAT8IkCx9au8mVsSIAFHBCi2jsAzWhIgAb8IUGz9Km/mlgRIwBEBiq0j8IyWBEjALwIUW7/Km7klARJwRIBi6wg8oyUBEvCLAMXWr/JmbkmABBwRoNg6As9oSYAE/CJAsfWrvJlbEiABRwQoto7AM1oSIAG/CFBs/Spv5pYESMARAYqtI/CMlgRIwC8CFFu/ypu5JQEScESAYusIPKMlARLwiwDF1q/yZm5JgAQcEaDYOgLPaEmABPwiQLH1q7yZWxIgAUcEKLaOwDNaEiABvwhQbP0qb+aWBEjAEQGKrSPwjJYESMAvAhRbv8qbuSUBEnBEgGLrCDyjJQES8IsAxdav8mZuSYAEHBGg2DoCz2hJgAT8IkCx9au8mVsSIAFHBCi2jsAzWhIgAb8IUGz9Km/mlgRIwBEBiq0j8IyWBEjALwIUW7/Km7klARJwRIBi6wg8oyUBEvCLAMXWr/JmbkmABBwRoNg6As9oSYAE/CJAsfWrvJlbEiABRwQoto7AM1oSIAG/CFBs/Spv5pYESMARAYqtI/CMlgRIwC8CFFu/ypu5JQEScESAYusIPKMlARLwiwDF1q/yZm5JgAQcEaDYOgLPaEmABPwiQLH1q7yZWxIgAUcEKLaOwDNaEiABvwhQbP0qb+aWBEjAEQGKrSPwjJYESMAvAhRbv8qbuSUBEnBEgGLrCDyjJQES8IsAxdav8mZuSYAEHBGg2DoCz2hJgAT8IkCx9au8mVsSIAFHBCi2jsAzWhIgAb8IUGz9Km/mlgRIwBEBiq0j8IyWBEjALwIUW7/Km7klARJwRIBi6wg8oyUBEvCLAMXWr/JmbkmABBwRoNg6As9oSYAE/CJAsfWrvJlbEiABRwQoto7AM1oSIAG/CFBs/Spv5pYESMARAYqtI/CMlgRIwC8CFFu/ypu5JQEScESAYusIPKMlARLwiwDF1q/yZm5JgAQcEaDYOgLPaEmABPwiQLH1q7yZWxIgAUcEKLaOwDNaEiABvwhQbP0qb+aWBEjAEQGKrSPwjJYESMAvAhRbv8qbuSUBEnBEgGLrCDyjJQES8IsAxdav8mZuSYAEHBGg2DoCz2hJgAT8IkCx9au8mVsSIAFHBCi2jsAzWhIgAb8IUGz9Km/mlgRIwBEBiq0j8IyWBEjALwIUW7/Km7klARJwRIBi6wg8oyUBEvCLAMXWr/JmbkmABBwRoNg6As9oSYAE/CJAsfWrvJlbEiABRwQoto7AM1oSIAG/CFBs/Spv5pYESMARAYqtI/CMlgRIwC8CFFu/ypu5JQEScESAYusIPKMlARLwiwDF1q/yZm5JgAQcEaDYOgLPaEmABPwiQLH1q7yZWxIgAUcEKLaOwDNaEiABvwhQbP0qb+aWBEjAEQGKrSPwjJYESMAvAhRbv8qbuSUBEnBEgGLrCDyjJQES8IsAxdav8mZuSYAEHBGg2DoCz2hJgAT8IkCx9au8mVsSIAFHBCi2jsAzWhIgAb8IUGz9Km/mlgRIwBEBiq0j8IyWBEjALwIUW7/Km7klARJwRIBi6wg8oyUBEvCLAMXWr/JmbkmABBwRoNg6As9oSYAE/CJAsfWrvJlbEiABRwQoto7AM1oSIAG/CFBs/Spv5pYESMARAYqtI/CMlgRIwC8CFFu/ypu5JQEScESAYusIPKMlARLwiwDF1q/yZm5JgAQcEaDYOgLPaEmABPwiQLH1q7yZWxIgAUcEKLaOwDNaEiABvwhQbP0qb+aWBEjAEQGKrSPwjJYESMAvAhRbv8qbuSUBEnBEgGLrCDyjJQES8IsAxdav8mZuSYAEHBGg2DoCz2hJgAT8IkCx9au8mVsSIAFHBCi2jsAzWhIgAb8IUGz9Km/mlgRIwBEBiq0j8IyWBEjALwIUW7/Km7klARJwRIBi6wg8oyUBEvCLAMXWr/JmbkmABBwRoNg6As9oSYAE/CJAsfWrvJlbEiABRwQoto7AM1oSIAG/CFBs/Spv5pYESMARAYqtI/CMlgRIwC8CFFu/ypu5JQEScESAYusIPKMlARLwiwDF1q/yZm5JgAQcEaDYOgLPaEmABPwiQLH1q7yZWxIgAUcEKLaOwDNaEiABvwhQbP0qb+aWBEjAEQGKrSPwjJYESMAvAhRbv8qbuSUBEnBEgGLrCDyjJQES8IsAxdav8mZuSYAEHBGg2DoCz2hJgAT8IkCx9au8mVsSIAFHBCi2jsAzWhIgAb8IUGz9Km/mlgRIwBEBiq0j8IyWBEjALwIUW7/Km7klARJwRIBi6wg8oyUBEvCLAMXWr/JmbkmABBwRoNg6As9oSYAE/CJAsfWrvJlbEiABRwQoto7AM1oSIAG/CFBs/Spv5pYESMARAYqtI/CMlgRIwC8CFFu/ypu5JQEScESAYusIPKMlARLwiwDF1q/yZm5JgAQcEaDYOgLPaEmABPwiQLH1q7yZWxIgAUcEKLaOwDNaEiABvwhQbP0qb+aWBEjAEQGKrSPwjJYESMAvAhRbv8qbuSUBEnBEgGLrCDyjJQES8IsAxdav8mZuSYAEHBGg2DoCz2hJgAT8IkCx9au8mVsSIAFHBCi2jsAzWhIgAb8IUGz9Km/mlgRIwBEBiq0j8IyWBEjALwIUW7/Km7klARJwRIBi6wg8oyUBEvCLAMXWr/JmbkmABBwRoNg6As9oSYAE/CJAsfWrvJlbEiABRwT+PwAyyxvlE+6JAAAAAElFTkSuQmCC;" vertex="1" parent="1">
          <mxGeometry x="510" y="40" width="347" height="599" as="geometry" />
        </mxCell>
        <mxCell id="9UIbFYWhF634vm1xN3ZN-5" value="" style="endArrow=classic;html=1;rounded=0;exitX=1;exitY=0.471;exitDx=0;exitDy=0;exitPerimeter=0;entryX=-0.012;entryY=0.518;entryDx=0;entryDy=0;entryPerimeter=0;strokeWidth=3;" edge="1" parent="1" source="9UIbFYWhF634vm1xN3ZN-2" target="9UIbFYWhF634vm1xN3ZN-4">
          <mxGeometry width="50" height="50" relative="1" as="geometry">
            <mxPoint x="700" y="440" as="sourcePoint" />
            <mxPoint x="750" y="390" as="targetPoint" />
          </mxGeometry>
        </mxCell>
        <mxCell id="9UIbFYWhF634vm1xN3ZN-6" value="" style="shape=image;verticalLabelPosition=bottom;labelBackgroundColor=default;verticalAlign=top;aspect=fixed;imageAspect=0;image=data:image/png,iVBORw0KGgoAAAANSUhEUgAAAWIAAALoCAYAAABCn/9ZAAABR2lDQ1BJQ0MgUHJvZmlsZQAAKJFjYGASSSwoyGFhYGDIzSspCnJ3UoiIjFJgf87AzCDPwMVgwmCUmFxc4BgQ4ANUwgCjUcG3awyMIPqyLsisN/9m2HzUyJa3nngi9YWddiamehTAlZJanAyk/wBxWnJBUQkDA2MKkK1cXlIAYncA2SJFQEcB2XNA7HQIewOInQRhHwGrCQlyBrJvANkCyRmJQDMYXwDZOklI4ulIbKi9IMDj4urjoxBsZGJo6kHAuaSDktSKEhDtnF9QWZSZnlGi4AgMpVQFz7xkPR0FIwMjYwYGUJhDVH8OAoclo9g+hFj+EgYGi28MDMwTEWJJUxgYtrcxMEjcQoipzGNg4G9hYNh2qCCxKBHuAMZvLMVpxkYQNo89AwPr3f//P2swMLBPZGD4O/H//9+L////uxho/m0GhgOVAHeWYP7J/sz0AAAAYmVYSWZNTQAqAAAACAACARIAAwAAAAEAAQAAh2kABAAAAAEAAAAmAAAAAAADkoYABwAAABIAAABQoAIABAAAAAEAAAFioAMABAAAAAEAAALoAAAAAEFTQ0lJAAAAU2NyZWVuc2hvdHBaF5IAAAI9aVRYdFhNTDpjb20uYWRvYmUueG1wAAAAAAA8eDp4bXBtZXRhIHhtbG5zOng9ImFkb2JlOm5zOm1ldGEvIiB4OnhtcHRrPSJYTVAgQ29yZSA2LjAuMCI+CiAgIDxyZGY6UkRGIHhtbG5zOnJkZj0iaHR0cDovL3d3dy53My5vcmcvMTk5OS8wMi8yMi1yZGYtc3ludGF4LW5zIyI+CiAgICAgIDxyZGY6RGVzY3JpcHRpb24gcmRmOmFib3V0PSIiCiAgICAgICAgICAgIHhtbG5zOmV4aWY9Imh0dHA6Ly9ucy5hZG9iZS5jb20vZXhpZi8xLjAvIgogICAgICAgICAgICB4bWxuczp0aWZmPSJodHRwOi8vbnMuYWRvYmUuY29tL3RpZmYvMS4wLyI+CiAgICAgICAgIDxleGlmOlBpeGVsWURpbWVuc2lvbj43NDQ8L2V4aWY6UGl4ZWxZRGltZW5zaW9uPgogICAgICAgICA8ZXhpZjpVc2VyQ29tbWVudD5TY3JlZW5zaG90PC9leGlmOlVzZXJDb21tZW50PgogICAgICAgICA8ZXhpZjpQaXhlbFhEaW1lbnNpb24+MzU0PC9leGlmOlBpeGVsWERpbWVuc2lvbj4KICAgICAgICAgPHRpZmY6T3JpZW50YXRpb24+MTwvdGlmZjpPcmllbnRhdGlvbj4KICAgICAgPC9yZGY6RGVzY3JpcHRpb24+CiAgIDwvcmRmOlJERj4KPC94OnhtcG1ldGE+CrxSGGIAAEAASURBVHgB7J0HnBvF+f5f6c7n3nvvvfeCbdwNGBtTTAu9JISQhJD+B34hCUlIIyEhIZSQQOjVBmxwAYy7ccPGvfd67j6ffXeS/u8zutWt9iRdk3SS7nn9OWvL7OzMd6VnZ995Z9Y1bMgQn9BIgARIgATKjYC73M7ME5MACZAACRgCFGJ+EUiABEignAlQiMv5AvD0JEACJEAh5neABEiABMqZAIW4nC8AT08CJEACFGJ+B0iABEignAmkhzv/4jceD7eL20mABEiABEpB4JIbHwl5FFvEIbFwIwmQAAnEjwCFOH6seSYSIAESCEmAQhwSCzeSAAmQQPwIUIjjx5pnIgESIIGQBCjEIbFwIwmQAAnEjwCFOH6seSYSIAESCEmAQhwSCzeSAAmQQPwIUIjjx5pnIgESIIGQBCjEIbFwIwmQAAnEjwCFOH6seSYSIAESCEmAQhwSCzeSAAmQQPwIhJ1rIn5FiM2ZvD6f+Lw+cblE3G7eb2JDmbmSAAlEg0BKCvGFizmyfN0WOZt1QcXYI5NGDVYxVkWmkQAJkEACEki5puLZrPMyc8EK+Wr/OTku9WX5tmOya9+hBETPIpEACZCAn0BKCTFEePqnyyQzt7pcOeV6mTRpilw77Wb534y54lNXBY0ESIAEEpFAyggx3BHPvjVbcqs3l0mTr5PatWob3l+vXyebdh6QE6fOJCJ/lokESIAEJOmFGC3d4yfPyAOPPyMd+46SKVOulSpVqkheXp58+NF0efut6dK7/0SZPm8xLzcJkAAJJCSBpO6sgwiv37Zb/vPhIrn/wYelVas2BnL2hWyZO2e2zJ+/VK6eervs27dTDh8/J3kej6SnpSXkhWChSIAEKi6BpG4R7z14VGYu2Sh3fvN7ARG+ePGifPHFfFm1er1cMmy8ubKImED0xPnsi0JPccX9srPmJJCoBJJWiOETXvzVFunZ/xJp1LCJ4ev1elWAV8jy5aulS6e+UqlShni0FZx38bScOXdOXnj7Y3VjnA55LU6fzZJ1m7cL8qWRAAmQQDwJJKUQwyWxav1WybxQSXr07CNp+e6Gnbt2yIwZs6R9255SvXpNwzEn54LMmjtTDp9xyc5jbvlk0WrxqGDDINxwVxw4mim//dM/ZfWzf5efP/oH+XzpKrPdJOJ/JEACJBBjAknpIz5x6qx8vfu4XDr2KhXcGgbRBfULP/30P2RAv1FSq1adALbz57N0OU0GDZoglStXlfdnvyVtmjWQZg0byMN/eVEOHMmUGtmn5MH6WdK2skt6Zh+Wz5/fJfv2XyM3XKXHZFQK5MUFEiABEogFgaQU4hUbtkmWVJXmzVsYJoiQeOa5Z6RVi84qwvWCOJ04cURumHaXVKvmF+xJV9wkP//rU0Zgp065Rfbu3y11Vr0lTSplSboOvqunRK5KOyfvvfNfefn8Obn1xqlSpXLloDy5QgIkQALRJJB0rokjmSdk1rKtcusttxsOcFPMnTdbdu04KB06dC/EpmPHnlKvXqOg7Xfc9l256cZvS7XqtaRL556yp91o+SirhpzO83flQZCva+iSdTPek0OHM4OO5QoJkAAJRJtAUgmxx+OVv78yXUfL3aRzR/jD0DZt2iDz5n0hY0dPLjYbl8utkwFZc0+41G0xWg50u0qm5zWTpad9cgEuZJ9LqqSnc0ResakyIQmQQGkJJJVrYt2WHVKlflvp3q2HqS/8v5/Mni09ug+yCWvJUbh0drb+A0bI3kbNZMPBbbJyiw7+OHNU2lyKiIxgV0fJc+cRJEACJBCZQNIIMaIbnnvrY/nJ//3Z1AguiU8+mSWevAypU7t+5FoWc2+rVu0lr1krOdOxn6xe8ZmM7dNPqlWtUsyjmYwESIAESkcgaVwT+w8dlX6DRkiNGv5Ot2PHjsqpk+ekcaPmgfC10iEIPio9vZLUq99IevUbKet2HpGs7AvBCbhGAiRAAlEmkDRCvHrjduncpbscPnxIdu/ZKbPnfiIrV62RnJyLcuzYQTl69IAcPXZIPw/KeY12UCdvmVA1UjfFl+v3yLETnCyoTCB5MAmQQJEEksY10bZFU1m/ebWsOnFCjmUek/NZWdK4Zq4c27PIvIHDp51rXp9XR9J5xVeprrTtMFBq1y6bf7dJw0bypU4wn33hgnRo3ZwxxUV+nZiABEigNASSRoj7dusgPTq20WHLRRd54Yp18vJHC6T/4MslI6P0McBt2/eSz77aJLuOejTWeKt0adNIRg7spYLvb23jpR/+CAx8WlEYpbkMPIYESKAiEyha1RKITnFEGMUd1LurvDpziZlnoizFb9CgieAvNzdHNm9eK0ePbzSt7kWrt8uZrGzJzs4yrpFKaS6pVaOa3HfzFGnbwj/vRVnOy2NJgAQqFoGk8RGX5LJ8MG+RtGjT28xLXJLjwqXF5EENGjSWo5mnZMGqHeKu0V5adhghLTuOFF/lRjJuys2SUbe55OTmhcuC20mABEggLIGUFOJ0dV+cPHlUcvNyw1a8pDvgjli8ZpOczqkuzZq1MfNZVM7IkPoN60ivXr2lTZP6Uqdm9ZJmy/QkQAIkkPxv6Ah1Da8eP0JqpR2X+Z9Nj9rIuPQ0nemtxyDp2LGX8Qdj5rY1axfLtOumyaZNG6VudbfUqlktVHG4jQRIgAQiEkjJFjHmIK6iERTVN38q27atjwiguDsbN24mY0ZNkqpV/WK7Zcs6bQl3k2ZNm8kZnVioab0aUkVbyDQSIAESKCmBlBTiT5eskhqbV8iDLdxycslbcuDgnpJyiZj+5Knjknlir1x37TQ5cOCAXDh9VDq0asbIiYjUuJMESCAcgZQT4kx9A8fe5Uukl+eU1NBohpurHpfDC9+SnTs3h2SQlXVWLl7MDrkv1EaftrTXfLVE7rjjDtM6Pqjvw2tcW33FdfxvjQ51DLeRAAmQQCQCKSXECO9doG/XOLNqmTTL9xK0rOyTO9N2Sc7cZ+SDGS/L6dMnDQ/MVQH3wquvPim7dm7Qt3Z4InEK7Fu5eomMGDlYOnfqImfOnJYlC+bIiP49dFAJ44gDkLhAAiRQIgJJFUdcVM02btsp6957Q26q59VeSL8w4v/66SrGDS7KPw8slZdeXCtpGdUlQyd7HzOom8x98XfyxPPv6rwVmVK/fuMIp/DJkSMHpH69ajJ82HAzv8Xc2R/KpOF9pE4t//wXEQ7mLhIgARIISyBlhBgv/fzi4zkyyHNSMnS+Ybud8/hkdk5NGXvPLfKnccMlPf8dd2jFYkTchGE9ZcaiLWYC+XAj5M6dOyPHju+XCRNGS6NGjWX9xnVyZNcGuW/SrfZTcZkESIAESkwgWLFKfHhiHJCX55FX35slWYvmSlcNI7NbrrorFuXWkBaTrpPLxl5i5otIS3Nri7ZgcviRg3pLrQwVWp00KJRhZN227V/LgAG9pW+fvjrp0C755P3X5Hu3XmXyCXUMt5EACZBAcQkEq1Zxj0qgdLv3H5Y//+O/kvPxW3J1o8IN/DXZaeIeMkaunDhK3z0XOrwMreC7r7tMFi+eJV5P8Og4r/qOv1gwSwYP7iOjR42WU6dOyWfqkrjliuHSoF7BS0oTCAmLQgIkkGQEklqIN27fLTP/8x/ptm6ujK/pEQ2SELghTui75/C2o0MXvbK0fie5ftpVUqN61YiXpmXTRjJ5RDfZvXd7IB2m2JzxwStyww1TZezYcTqvRI58PHO6DOjQQLp1bB1IxwUSIAESKAuBpBXi7AsXtWX6uTTZvka6V/XJeRXgu9dflKf25MpJ9UdgfrSf7PHKrx/7idStXbNYjO64dqKsWTVf3/qRJ5nHj8isT96UH/zwezJs2AgzveZHH74vjStf0CiJ7pKmr1eikQAJkEA0CBR+lo9GrjHOIycnV2aqCOctmS1967okU1u+j+3MlT930dcmaY1yvC55+ki6/PfZP0nN6sUfdlxJXxZ686RhMmvhTKmrI+UeeeTn0rZNO5234oR8/unHUi33qFw7eaxkFGMqzhgjYPYkQAIpRCDphBjRER/MnCs7pr8uk2t55cBFn7x1OE8ebQ8Rdok2jGXlhXQZPm2atNLJ5Eti8BUP7tVR1u4+Jt+6/wdSvVp1HbyxWtavXCgdmlSXSZeNZ0u4JECZlgRIoFgEkkqIj586I6+9+aHkLfhQptbxySl1QSw46ZPLGqRLkwyXcUdsveCTzI595YbRI0rVcm1Qr7b069pGli9fKjnZ5+T04Z0yaVgv6dSmBYcwF+srxUQkQAIlJZA0QgwRfvGF/0mTdV/I0Dou0zF3OEekS3WXdKrmH7xxWFvHq+t1lBtuvEGaNCzdm51r1aguPdo0lnVbd0tbneKy3+DRUlMnfaeRAAmQQKwIJIUQYzjymx/MlQ7blkvvWjoII59Gl2oaD6wr6pEwURIHMmpLzwkTpYO2XktrbnVPdG7dTNo1b2TC3dzslCstSh5HAiRQTAJJIcRHT5ySvB2bpLnvgoqwJcMiVWyBCwhbe8fVUN4YN6LMLgS8kqm4r2UqJmcmIwESIIGwBGxSFjZNue7I07mFP/1skTTcv0kaqB8YnXFnHfPz5Hh98s/TNeVPj/6gzCJcrpXlyUmABCokgYQWYryeaOuOPXJm/Wpp7c41beHMXK+ssCkx4oXnnBK59IYbpGXThhXyIrLSJEACyU0goYV4z/5DMuN/r0nzfRukSWW/S2KPRkVYI5khwotOeSWr/2i5cfL45L4SLD0JkECFJZCwQnzsxGn5+1+ekT4H10l3jYqADJvWb6ZHWlfxh6otOu2VU31HyZ23Xc/5gCvsV5gVJ4HkJ5CQQnzi1Fn53s9+I9ee2yKdq1rdcz5572iehqu5pXq6W1ae9crBniPlhttukkYN6iX/lWANSIAEKiyBhBPiTI2QePRXf5IHZLe+ZcMvwl5tCy9RF8QZnRjt2sZpsvuiyIrWA+Vb990pjRvWYwddhf36suIkkBoEEkqIMZHPq6++I5ed2SJNVYRhiJLYnOWV7ed9MrmhW7w+lyxPbyi3feM6qcs3Y6TGt5C1IIEKTiBhhBiDNjZs2SE19m6SNpW8AZ/wwRyfrFE3xPA6bmlQyS1f6nLNISOlZ+d2FfzSsfokQAKpQiBhhPi8toa3rFkrtY4dMG9ftgBj1Fz/WunSVkfRndV5hudWaiq3X3ultZufJEACJJD0BBJmZB1mPstxp0uWTmGZp61jCDCcE5jMp4m+WCNXB228nOmW7/zifqnFuR+S/ovHCpAACRQQSJgWcbUqlWXqVZdJZq+Rsu6C24SqoZgQ42wdSffv45Vk7P0PSP8enQtKzyUSIAESSAECCSPEYIk3aXz327fLuq6j5C8na8ghT5oc1BnWZnjqy5j7HpAJlw5lhEQKfOlYBRIggWACCeOasIqFN2r84qF7Zdf+K+Wt9z6W80cPy6VXTJDRwwZwUnYLEj9JgARSikDCCTHoYurJ9q2ay48fuFNOnT0n9evUYks4pb52rAwJkICdQEIKsVXA9PQ0aVC3trXKTxIgARJISQIJ5SNOScKsFAmQAAkUQYBCXAQg7iYBEiCBWBOgEMeaMPMnARIggSIIUIiLAMTdJEACJBBrAhTiWBNm/iRAAiRQBAEKcRGAuJsESIAEYk2AQhxrwsyfBEiABIogQCEuAhB3kwAJkECsCVCIY02Y+ZMACZBAEQQoxEUA4m4SIAESiDUBCnGsCTN/EiABEiiCAIW4CEDcTQIkQAKxJkAhjjVh5k8CJEACRRCgEBcBiLtJgARIINYEKMSxJsz8SYAESKAIAhTiIgBxNwmQAAnEmgCFONaEmT8JkAAJFEHANWzIEF8RabibBEiABEgghgTYIo4hXGZNAiRAAsUhQCEuDiWmIQESIIEYEqAQxxAusyYBEiCB4hCgEBeHEtOQAAmQQAwJUIhjCJdZkwAJkEBxCFCIi0OJaUiABEgghgQoxDGEy6xJgARIoDgEKMTFocQ0JEACJBBDAhTiGMJl1iRAAiRQHAIU4uJQYhoSIAESiCEBCnEM4TJrEiABEigOAQpxcSgxDQmQAAnEkACFOIZwmTUJkAAJFIcAhbg4lJiGBEiABGJIgEIcQ7jMmgRIgASKQ4BCXBxKTEMCJEACMSRAIY4hXGZNAiRAAsUhQCEuDiWmIQESIIEYEqAQxxAusyYBEiCB4hBIL04ie5pxrevKoKY1pVPdqlK/arq4XS77bi6TAAmQQIUj4PX55Hh2nmw9mS1fHjor8/acLBGDYr88FAJ8S7dG0rBapRKdgIlJgARIoKIROHY+V17ZeLTYglysFvF9fZrK5Pb1KxpL1pcESIAESkUADdYfDGguHepWkX99dajIPIr0EVOEi2TIBCRAAiQQkgAasNDQoiyiEMMdwZZwUQi5nwRIgATCE4CGQksjWUQhhk+YRgIkQAIkUDYCRWlpWCGGgrNjrmzweTQJkAAJgAC0NFKrOKwQI0SNRgIkQAIkEB0CkTQ1rBAjTphGAiRAAiQQHQKRNDWsEGOwBo0ESIAESCA6BCJpalgh5oi56MBnLiRAAiQAApE0NawQEx0JkAAJkEB8CND/EB/OPAsJpByB1efSZMt5txzIccmZPJd4U6SGaJ3WSvdJ8wyfdK7mlX41PDGvWVyEeN2B4/L5tgNhK1M9I13uGdZN/rtss5y+kBM23aDWjWRo2yZh99t3HD5zXt5cvd2+SQa0aiiXtGsqK/celcU7Dwftu6pnW2lTv/SRIgt3HJKnv1gn1TMqyYOje0uv5uGHhOv8IPI3TVsaa1Ovpgxu07hQ3bo2risTurYsTZYJccysDXv0mhySVXuPSRety6hOzWVc5xZSozLnNkmIC2QrBAT4s1NpckrFNxUNNxTUDX8b9EaDuo6p44mpIMdFiNPcLjl0OkueXbSh0HUb3r6pXNWrrdkOH8rC7Qfl0y37C6W7c2hXuaSYIoyDkdcS/WHP2bQvkBcEEkLs0n2vfLlFth87HdgHISuLEH/v7QWy+/hZk9/xrAsy41tXBPJ2LmCmpsdmfhnY3LBGVbm0YzP5YttBOXYuO7B9gN54Guk+iJRll3VrZW5Ga/dnyvtrd1qb5Yb+HZJWiP/6+Vr55awVpi4/m9BPVu87Jnf+71Pp17KhzHlgiuD7Q0sMAh+dSJdlZ9JMYVq2bCl9+vSRdu3aSd26dcXtTg1Pp9frlZMnT8rOnTvlq6++kn379sl7melyUFv+V9bLi8mFiAu57k3ryRNXDZVr+rQvVIl/f2OMaQ1jx22DOwvWnTauS0t58ppLBMJUXGtUs6r8bsrQkMn76w/8B2N6h9xXmo27jp8JiDCOX6A3k7MXcsNm5RNtEufbL64YKJv/72Z5/ubRepMIbu3fOaSLvHrHeNn/+O0yWluIMIg46vb3aSPyc0juj42HTgREGDV5YGRPWX/whKkUBHmnsqUlBgG7CE+ePFnuvfdeGThwoNSvXz9lRBikcUNBnVA31BF1hX20boc88cVmsxzt/+IixFahR3YInvzCtPhUVOxWu2qGjOzQzL5JxuaLUNDGYqwgr3BWp2rlcLtKvL1yur+FYD+wmrpbirJvDe9u3BiRelORR3V9PH/l9vFBLXZsSwX7Ol90URe4IVCvzo3rmKrhSaG1umJo5U8A7girJTxu3DgjUuVfqviUAIJ81VVXydKvt8jr6/bKjE0Ho37iuAqxS4r3iOl8FHUn+KNp01rVBaJhGfzYzjpY+/AJHzHsmt7t/AvF+B/CPrVXO20RFyNxEiVZdzCzUGnfuGuifPKdyfLVz2+QjLS4fkULlYUb/ATgJ4WhdThy5Ej/xgr0f//+/eXhhx82NX5meXDfUzQwFN1si8ZZYpTHtqOnZOmuI7Ij87T0alZfRmhLGo/t0TJ0+MHPjFZbJRWEnnoO+LTrVgtuTavLWSb1aG06G3HusdrJFMkg0mgN99POw5LYtL7tpVXdGmEPyVPf1pe7j8oi7TiECwNlxV8o23zkpEmLTzDr1byBSWsXvs+2HpBcT0GPMToikR9cMR+t3yPpWo9r1d2EJ4Jlu4M7P9vVryVtG9QynW/ztaMWvu7Lu7eWJrWqBYqzM/OMbD1a4Kc/dzHXXEvcsNEhabdoltf+HcE1/mzrftlz4qycz8kT3FTRqdtGy2+ZPb21rSJ9ojWMjiv4hNE6rKh23XXXyYcffijr1q0zreKrugY/uZeFS1IKMQTnL5+tld/OXmUeZ7+jfsXHZ6+U3a+dVR/z6JC+6JJCmr5ul3z3rQUCcbh5QCfJUUH647w1puX771vGyAiHwMGHi6gP2KUO14rz3HBFwGdeUuumvnb8hbKsi3ly+8ufBnXs/X6uyP9dPjDIH57r8coftB5/0j+4Au5QP/QnG/caPy1cReDXqq7fHfDmqm3yli3yBJ2ZP5/QX771+vxAEeAPR11+N3u1rD1Q0Lq9W6Ngdqtg2zteH3pvsaAz7qfj+xmu/X//ViAfa2HA7982i0efuMvc/GJR3tfvnGDOge/Qrz72dxKibqj30198bRUl8LnrV7dKNF1ZgYyTZAEhajB0zFV0wxMBhHjBrmMSTSEu1+e+U+cvmh8vfsD2vxNZFyNe7+cWbTQijES/UxHAj/u3k4eYY+5+9XNBC6ws9uHXu02vPUT4yh5t5B83jJTnbhptWmmIapjyr5mySjuS7DakTUFHW88IoWv2Y6K5/NH63YLW3aOXDQgK+YLQZOcW9PQ++tFyI8I4N0T611cOltfyhWnlnqMy7m8fBDoan71pVFDLFFEhdhFGHhDx5nWqy/vfvByrAfv3ko1GbNEZaQ9Be2LOatPyROt65U+nCTpi7YZtq356vRFhbI9FeXEjf1tvMJYI4zxLfnitiXTB9bYMrf8/aycxylqRDXHCMERHVHSzngg22J7kosGkXIUY4WOj/jq90J+9ZeWs5NGz2fLwh8sCm61H2O7NClqKzyxcH9hf0gWI7w+15WbZlJ5tzCLcD2M6FbgcfvjuYvHYHLZ4fIWfGK3KUJ13Vn6x+kRkyqz7r5SHxvaRRy8fEHSafSfPmXVwtYcQIhQOVk9dLVZ8Nm40f5i32mzHfy0drpBfThokGx+5Saxjv3lJd3VRuAu5a1AehPAhZNBZnv2nzmkIoUj7BrW1pVnQoQrBxrZ26tKAxbK8r6zYas6B/1DWqpX8D4eDbC4RuE7u0rBJuKUqsmGwBgwhahXdWrTwa8DRc5EbiyXlVK6uCfSO/0+jAZx23+vzTSypczvWV2irzW41tBMLvj2IgWWIHb6YV+DbtLYX53OJDvSwx/K2sAmRPc4YIgG/JX7ElnVtUte0Dq31eH52alQncANoVLPAD4synMkfJDN97a6gIjWtXZCuQ8Pa6m/3+3nhYvnVpMFGLIMO0JWpvdtK09rVBY/3J/SJBiIeyopTnlDH2bfFsry44VpWv3oVa1Eqqd/bsoMa+346O0ciRd9YaVP5EwMcYCWJE37iiSdk61b/zQ5x+9WrV5eePXvKzTffbJb9Ocb//y+++EJmzZolv//9783J165dK127dpWMjIIGQaRSpaX5Oy09Vo97pMQl2FegXiU4KFpJa1bJkI4qAM6/SF98dMzZrdvjr0vzh/8r3fXTbgdOZdlXi728RTsA7Wa1lLDNvox1Z1qEWjlbkEiXKLZeY3btZr952cPtIFKHz4TmZ/mPkU84EbafoyzLsSzv5PwnHZQPA3As262ddnarXrlc2yr2oiTV8ueffy6bN28WtCCbNGkip06dkscff1z69esnJ04Efw/jWbEzZ87IoUOHzCk3bNggY8aMkXPn/E+M8SyH81xJ9y07lR38SPD23ROlh0YzOA2ugpPaYiupnbD9KHGsPVosIz34vnVUfbJ2u3tYV6mSnrhIj6lbJ5w53SlH1UWBlm95WizLi9Gcf/70K+PH3qA3qCN6LRHDvEyjcCy7dVDnoCctazs/i0dg+PDh8qtf/SqQeNOmTTJ16lT5+c9/Ls8++2xgO4Rw//790rp1a6latSDq6ezZs6b1fPr0aYGAYr/TsrOz5cCBA9KmTRtJt/32fNpixYi4nJwcadWqVaDFO3HiRBk7dqyGkPoCNwTkX6tWraDjneeJ9XqwssT6bFHIv7lDHCC2CIly/hU1SCJcUZwtWlwwyy7kBrs72qk/0269NQTMGoxg354oy20jzKVh79BDeRNhIEUsy9tWw9MW//CaQGfkmL/NkH5PvBWI/Pj+qF7y+6lDE+XSpUQ54AK45ZZb5J133pG8vDwjhhBqCOwll1xiWs/PPPNMoK49evSQa665Rjp06GBa0oMGDZKDB/2DKY4ePSoPPPCAOWbw4MHSvn17mTdvnjkWAn7ZZZdJ3759BfuaNm0qn3zyidn36quvyogRI0wLHTcF2IABA2TlypVmubz+SzohbusQvzmb9xVit007Ae0daYUSRNgAP6/dstT/bJndr4htdtF9T+d9GPiHt03HY1mjNqzzRfvT+eRg96NbfmScs5ne7BIhXCvW5d1/Msu0iOHnf0yjO5658VJZ/bPr5djv75LHtFPS6YpCVArmwGj5yEsm3C/T8fQU7euVivlBHGForb7//vvy1FNPyUsvvWRaxE8++aQ88sgj8uWXXwaqvmPHDlmwYIHAjdCgQQP55je/afb96Ec/kqVLl8rs2bONCwRhZTfccIMcOXJEPv74YyOsaIHDDQHx/9Of/hTIE61kdDxawr1t2zYZMsQfdRVIFOeFuArxifMFvjjUM1MffzHwwGmIjLBb5rmC4wa2ahQ0iu2dNTtkpg4ugCEs6c1V22WQCiIC9J1ijP2WOfdZ5UAUhhWJgbS7tOfcMvskQZhkx2o1ZqlP9ftvLzSTCKET7wfvLgpZLyufcJ/OmefQURTOnNjsLXerLtax3vzoDjxq20PJ9tr8oZsPF/jG/9/E/tahERkGEulCScpj9/fYr4PzRhfL8mIei0nPfCRwSyDyY1q/DmYgDlrKdt+5vY4vL98iiC9HOTFR0YtLNtl3c7kYBOrUqWNSnT9/Xj766CPjUoAorl692rR8a9SoYcTVymratGnSvXt342eGoEJ84WOeOXOm3HjjjaY127BhQ3nooYfMIUuWLBGsw9Dahq8avmlLdM2OBPwvbkKMHvZ/LggOK0Nc6nRtSVo/YgjI7E17zY/DzgrhaGiNwGpWqSRPXTfcvltueWmuaY12+/Xrct8b8wXxrwiBsqIArMTLdh8x0RQ4H6ZctBvWsR0uDUwwZAnWc4s3GIG/oLG409ftNIcgTO2xKwYFDj+rP0y7iKBe9tZmIGGEBURgfK4j2ew2Q3/0Tp+4tX/FngJfJrahY8s65zqdmc1u1pSf8Jv/8ephgV3/yR+AslU7KHEDgWGejxv7dzTLcFcsV2Z2m69ltK6XfXtJyrN6vz8GG9EuGAVoN0yZalksywv/sGXff2ehaeV2+uWrptMXTzaIl4bo2g1RFHZ7e812+yqXi0Fg9+7dJhVG6e3du1cyMzPlxz/+ceCvefPm+v0qaJz17l0wOVfnzp3NsVY0Rq9evQJnbNu2rVmGSI8ePdq0tDHwAlEa8B//4Q9/CKRNxIW4CPGrGrPZ/hf/CwoLs2BgAEaP37xuVof9+V258cU51q7AJ0Su669fM6PpsBFDZd+993LzCG0lslqrb+o8Bddr6wbCcoc+RtoNAxbu0fM9u2h9UDwt0mBE1Qs6CAGG0WuLHvL7D9FigsD3+u2bZoY1zPm75EfXBg3VhX/6Oh1+bNmPxvUt9Fhr7XN+opWOR92hf3rXucuIYNv/+5/c8OLsoH0Qq4n/+DBoG+p//b9ny3+WbpKn5q8L2oeBC3hSgEFkEd+LmwlucBCdseofhSHm9517LgvMk9Fb6+wUn2l6Dtzs7FbS8vx0+lJ5ZcUWE+1iDxVEnpf+9X25zFa3WJQX54E/3274jqEsqC9YYkQh3BDW9JxIe6vODmjdoLFuf8LCOi0yAfiFn3vuOdOKRecYIiowSAStWOvvd7/7nRFPKyeIqWVr1qwxi5YAoxVtGSI0YPAnb9++XSDMcGng+Pvuu8+Eq6FDMFHNNWzIkILbj62UM6/tYVtLzEX8EHYcOyMYIIC4VWdHWzRKDTfJxsMnzOMqfInOeSbs58D0jVUz0sygBPv2RFzG0wda7tuOnTKiDN+40yeaSOWOdnnxhHbFPz+ULUcKXDKh6gvhxRBny12Bpw48vWAgEtxT/7pxVKjDUmrbI7srm/rYIyCKqiCiE+rVq2c61CDA8N2++eabMn/+fJkxY4YgouK9994z00wipvfaa6+VuXPnyre//W354IMPTOcdOvEg2M8//7xUqVJF7r//fhPz++9//9ukW7Rokfztb38zLd5f//rX8umnn5r5gxcuXCh33nmnmRcCov3CCy8I9sPfDL80fNFff/21iXMeOnSovPbaa2YiI3vERqT6WX7utd+dEClZyH2T3g32CliJEjfWyiphhE/8ONBhZu80i5C8VLvweNyoZvNiHdvDNrqvWAeUYyK4YOC+sUaxlWNRinXqaJf37/rUABHGzfW3U4YEngLgTt938qxOur9L5mlHMFrK2TkedYn5Hx4R5rc1X7y/P6rgsblYlahgiebMmSP4g8H3i+gECCFEGHb11VfLrl275Kc//an5a9asmfzyl780ImwS6H+NGzeWSZMmmdUJEyYYlwNWfvOb38iDDz4omIgHBrcFJuSBvxkdd7fddltgHmGcG9EYln/aHKD/wT2C4+C+gNgjQqO8rFgt4k+ffKG8ysfzkgAJxJHA2IfuKXS2/9MWMbq5H3vssRKNriuUUZgNaDHDV4yBH3ZDi/gvf/mLXH755SYeuHbt4HBRpEWn34ULF0zr234slrEdb9pAvhjdF8rgj0YcMfIOl8Z+nEcn/8INJU3zW/1A4VHB9rShlsO1iOPiIw5VIG4jARJIDgJ4kSYMohYLw0AMpwjbzwOXQSgRRppq1aqFFGHsgzsDMcSRBBb70FKOlAZ5WWb5mRvV8LtrrO1l/aQQl5UgjyeBFCeAtxnD8A63eBrC00KNpotnGZznWrFihdnUvVHh1rkzbUnWKcQlocW0JFABCeCV8jC8SDOehk48vBkjkQx+aNjItv5Y5WiVjUIcLZLMhwRSlEC/Gh6po+4JjIazWoQpWtWI1cLQbITDNa1ZJaqTwuOkFOKI6LmTBEgABMbU8c+zghZhvFvGiXAFEDKHSA3Ytwd3iHqRKMRRR8oMSSD1CKBVPKSWRypdPGdidNE6rCiGuj799NOmujf1ahX11jAyTuo44oryRWA9SSARCFxZL0/Wf73DFAWtQ7SOEbOL1wdhlJw1aXoilLUsZUCIGqIj4IZBHa3RfRDhn13apSxZhz2WQhwWDXeQAAk4CUCIujaqJXilPATKEilnulRah08Y7ohovizUyYdC7CTCdRIggYgEIEj4m7HpoHmbMV6kiXe4Rfv1QRELEcOdGKyBOGGEqCE6IpYCbFWDQmyR4CcJkECJCFiCXKKDmDgkAXbWhcTCjSRAAiQQPwIU4vix5plIgARIICQBCnFILNxIAiRAAvEjQB9x/FjzTCSQUgRWn0uTLefdciDHJWfyXGaGtlSoIFqnmOgIc2xgeDdiqGNtMRfiUNPqxbpSzJ8EKjKBWE9bCwH+7FSanFLxTUXDzBqoG/426I0GdcXIwlgKcsyFOBUvFOtEAhWVwEcn0mXZmTRTfUys3qdPH/O6I0zI7tYXNaSCefXNP5jyE7PNYTg35th4LzNdDmrLH4NaYmEU4lhQZZ4kkIIE7CJsjahLwWqaG0r9+vUFfxg1aI2w+2jdDlnvyo7J6DoKcSp+k1gnEogyAbgjrJbwuHHjjEBF+RQJmx3EGK39e+65R5ZqKTGyMNqDPFLjWSJhLyELRgKpQQB+UhhawiNHjkyNSpWgFpgX+eGHHzZHYHh3tI1CHG2izI8EUowAWsPouIJPGK3Dimp4USneCn3o7AUzvDuaHCjE0aTJvEggBQkgRA2GjrmKbngigC3YdSyqKCjEUcXJzEgg9QggThjWrl271KtcCWtkPRFgoqNoGoU4mjSZFwmkIAEM1oAhRK2iG+ZdhmG2uWgahTiaNJkXCaQgAf+rQ/W9amHihM+dOyd33XWXrFmzptxqf+HChbjMjWxNfh/tKT/jEr62cu9RWbzzcNiLhPk/a1XJkC6N60i3pvWkRuVKYdMWZ0eo813Vs620qV+zOIdXiDS7j5+V/y7bJLWrVpYfjOkdss7nLubKG6u2yZp9mdoCyJa+LRrIsHZNZFTH5iHTY+OXu4/Ixxv3yvpDJ2Rgq0YyvmtLc1y4A2KdPtx5Y7H9mYXr5Z01O+Sybq0M0/QwwhWLc5dnnrm5uTJjxgy5/vrry60Y3/nOd6RZs2amM63cClGGE8dFiCulueXY2Wz5x4KvCxX11kGdxefzySsrtgb23T+yh/ziikGSoceVxlwq7K98uUW2Hyvw43RtXLfCC7FilkU7D8lzizbIR+t3G7Q39O8QEjEE8s5XPpODp7Pk3ku6yRWtWsn/zfxS/jhvjdw1tKv8dsoQqZzuD2myMvjngvXy8IfLpLPeUB+eOEDTL5ffzVkl/7hhpNw8oJOVLPAZ6/SBE8VhATf///fBMnOm1fuOSQ9tUFzevXUczpx4p8jOzpb09HTB7xCj0xo3biy1a9c2BUXrOSMjw/xZJT9//rxJj+2wY8eOyenTp6VNmzZmO7bh9UVZWVlSq1YtyczMlLNnz0or/U6ihYrW8JkzZ6RevXqCc1etWhWHGNu1a5c5BoMzLEMaHHfixAmpUqWKVKpUyZyncuXKVhKTD9JYZQrsiNFC6ZSuhIXp3byBPD55sDh/9IPbNJa/TRshf79+pPz7G6MDueIHOvXZWYH1ki70b9kwbCuvpHmlQvo8HbKJG93QP78jU/41MyDC4eqWmXVBrn3hEyPCSPPzCf3lThXf717ayxzy4tJN8vN80bHymL5ulxFhrD962UCZ3LON/HR8P7P7O28uKHTOWKe3yhWvzzMXcoNO5VwP2pniK2id3nzzzdK+fXsZOnSo6eTDW5Bhd955p2C/ZRcvXpSuXbvKW2+9ZYYV33TTTdKlSxcZPHiwOX7hwoUm6ZYtW6Rt27by7W9/Wzp37iwDBgyQESNGGNF+4okn5LPPPpMXX3xRbrnlFpMe+SHeGek6deokd999txFy7PzWt74lU6dOle7du5tz3Hvvvaa85kD9D6I/aNAgeemll6xNMf+MixBbtRjTye/ottbrV69iLcpox76luw7LNluLNpCwmAt19JGb5idwMdcjmw6fkD9MHSZ42ijK/jB3tcAtAYObqG41P8uh6paw7D8qxtuOnjKrEPrffLLS2iV9WzYwy7gBW/bLWSvEiya5WqzTW+eM5+fw9k31O+x32fTThsDEbi3jefqEOxeE8fnnnzcv4cSItJ/85CdG4CCU7733nmnBotCffvqpoJV85ZVXmtfVr169Wj7//HPZunWrTJs2zQgrWseW5eTkyPr162Xx4sUCcX733XflsccekwkTJsj9999v1vEePQg2tqFFDlGeN2+ePPnkk1Y2snz5cnnttdeMS+WOO+6Q+fPny6FDh8z+ZcuWycGDB+Wqq64KpI/1QlyFOFJl8GNvVrt6UJJV+rhHKzuB6iqmv5k8REZ2aCbT+oZ2RdjPsmD7wcBq+wb+R0psaFKrWmA7Fv6zbLNZn7F2V5AbyLrBWp9IBDfR51sPxCW9OUmc/4Mb7b17L5ftj90in37vKqnoDYHLL7/cCCHcBFdccYW5GnBBQBxr1KghH3/8sdn2xhtvGN9ynTp15O2335bhw4cbt8PmzZtNixcivXJlwU3++9//vjRt2jTQaoYbw2lz5841mx566CHjEhk7dqwpw/Tp0wNJMUx74sSJ5nyjR482ZbL2Q7gvu+wyadSoUSB9rBfi4iMubiXOXMgJStqjaYFfx9oB/9ty9V/CdwlhQIdQr+b1pUqlklUFrbLPthyQjdpSzDx3wfg1B2henRrVkTS3P1wH54Tv77g+qlvmEpeM6dzcHDN/2wHZqq3CsZ1bCNwsoTpnLuZ5BK37Ddp5dVT95L21wwuC2MD2NGDljRbm0l1HZEfmaenVrL6M0HSNahb4u5AOjcrF6uf9XM89uUcb6aP5lcQgypEsx+OVLUf8LV2ky8opeOSukRHMePORkyarTzbtDcrS8h1XdVyT6Wt3GlaxTh9UmDAr+B6tO3Bcdh0/I23q1ZRLtQOyXYNahVJn5+YJbkxIezo7R3o0q2euddv6BWmRB74HdsPTAL6f8zbvC3qpJgQa3xUw/mzrfjmfkydXqC+5a5PCoWF7T56VOZv2CTpWkRc6s/O8PslQ3/yY/Na3/ZyJtNykScHTk+WzxaxmWL7xxhvl9ddfl/Hjx8vMmTNNCxk+X4juokWLZNOmTYGqwA0BAbfM7uutXr266V+y9lmfR48eNW6HatUKGg4YogyBtQyjBC2DjxiuC5Tp9ttvl1deeUVefvlla3dcPoN/WXE5ZeiTQFytx2GkuH1wF/Olt1JD0G55aZ75Yl+pAtSqXg2BLxmCDPvmJd3liauGageBdUT4Twje1Oc+NsfiOJwXHS34xKP4n6+5RK7v18FksGjHIcFjtd2evWmUfOv1+YFNf/lsrTSsUVUW/ODqoFbjzswzcpd2eK09kGl60pvXqSF36zrswdG9tUPSP1wUNwXk8dvZq8z5vzOypzw+e6Xsfu2s8Z1f06d94FwzN+yWW5UD7MlPv5LPvz+1xGIcyCzEgu0eZPYePlPwI0hzRAFYgo16hrKM9OAHrh356WKdPlRZrG1n1Zf74+mL5c1V283N95re7eWh9xab3bhBvn7nBKmWf8NZf/CEdlh+alrzcD3gpvftN74waeHmuWdYN/N926Gt/e++tVCOaWSJZejzwHXDU8OsDXuszQKBhtviD3PXBLY9rm4d5D/jW1eIO/8LDAGf9u/ZJg3yQYPg0Y+OmPWfjO+b8EIcqFyIBfiB0UqF37hBgwamVYqOMbSU4Vv+xS9+YY6C/xhuCvh5Ia4wdAAWZc2bN5cNGzaYlnXNmv5IqaVLlxq/s3Uszmc3uEGeeuopefbZZ005cJOIpwX/UuJ5Zj0XfuS440NQrtPOIViHhrVNL/vvpw4169Z/EEN8OWGPXDbAPGrPeWCKtVueW7xB3l+7I7AeaeHWl+cZEYYr5JeTBprzPXXdcHMIxBgiu+/kObMOwfzeqF5B2WE/fgy4IViGH+FLy/2P6th2ROt26V/fNyKMOr182zi9UQyxkstfP18b8IE/t2ijEWHs/J3eTH42oZ/8Vl0JsLtf/VzQ8rbs4w3BrU/7j9xKU5ZPtOoR9WAZeBzKv9nlamvZbtYTjLM1aE9jX7aiWGKd3n5O+zJ81Ne88LERYWx/++7LzHXEEw0MLd/3tNUO23/qnIz4y3tGhHGTfevuifLrKwfLj8f1Nft/Mn2JIFwNNq5LS/0+DjbLzv9evWO8dNcICstwU37ly63yK83Lzhk3fPzB8FRyv3ZwwtBJClH/5DuT5TXNKxUMQ6XR0kUnG1qilihCDNHhNmfOHNNxB98vOtaKY4imgF957969xq2AY37zm98YXy9C6+B2gPiHM3QY9u3bVx5//HHjl45XtIRVnnIVYvwgEeL0a20R4AcPgzhW0Ucvq2PHKugKm7/49ZX+ULfmdaoHhaSt3FvYX2Qdb33iUdNqyaE1vWC7/8s/pG0TK4n5xA/GMqdv9N+3jDGRBBBXu1lCg22//HhFoE7oxEEIn1PkcrWVD3cFQr4sw2MrrLs+Altm/eCxfmnHZtZm8xkppjcoYQlWrnf4kWdoRATsdHbwaKIGNaoInlSsa1fUKXCzuqAdh7FMn98fGLIoiIleucffssLNsWXdGiadXRBztD6wn88ouCZwHVhuFriLLMN1s25STRz9G1YafFrnsbbNuv9KjUDpKc/dNNraZD7h4oChhW21rpeoG8p6KkE4HGKUE82crVSsO7c5ywwXAAzia9mjjz5qfMhoMXfo0EHQaWa1mq38rE/rGOtzzJgxpkPu6quvNlESEHS4Gnr27Cnf+973TOfdD37wAyt5yPJZERf2MgUOiPFCubom8CiIFsMFFcd/qJsBj2holeAPPc/v3ntZoNNjWl99PMv/EfVr1TCApXpGpcCy1YoNbAixgB8UflhWS9Lq4bd+aNYhh04XPJJb26zPbvn+PDwlYZAIfHiwU+pD9H9elNdXbjPL+K+LxjBb9tspQ9UN8ZVM6NrKDF6ZuX6Ptct8wg8Lv6Hd34ynBggefK9X925n0sG/OEUHqQx13ECCMivlyndUJD74erdpzSMLhKrt0xbiwVN+N5CVbd8WDQvdMK19oT7h9vHpv+JaadJHenKFK8syxPladt/wHubmDB/xteoGgC/YirNGGruQtsoXb+vYmep2gIuiuIY6tVafNMzp/7dC3upU9cfTIg0aDQP/8LZxY31jYCeBW8yjfuJ4GlpreBaCjzfU6Dp0tB0/fjxQJCtUzdqAUDD7fmxHS9fZ2kWsMSIt/v73v5tQM7s/GC1WZx7o3LPshhtukClTpgQEFhEPWD9y5IhxfyCu2bJw/l/4qBHSFmlyI4S2wTAILZpWULpo5lrCvNDR9sOxffRR/VTgsRGdKfe+Nl8fHyea3ODLRWsAAoU/uAEwigmdYCW1V24fbzrpWtWtKQdOn5OX1I/35urtJc3GpLcLppXBdseEII1rVrN2Gd+evaMFHXN26/b46/bVwPIBFUEIBVrW8F9bPuxAgiguQPBnPzBZnv7ia0HH2ubDJ40Lyd7ix+luHtDRtBQhLsVp5aIjFDe8WKYPhwF+ePt3pZk+TVkGoX3nnsusVeOPDazoguUzxjbnDXuTsom2NdXW9YDWjQIND7D98ftLjF/5L9cOl0k9Wkf7lBHzw4s0MQ0mXh9kF8eIB5VhJwZZ4K+kZnUKWseh9WzvNLS2Oz83btxowt5eeOEF+eMf/+jcHbS+f/9+s96oRuWg7WVdSQghtioxvnPLgBBjG3zCWfoltHr60VJEp9ZbKpr4Mf9A/bdf7c8slghY58AnbmZH1CWALzciGvCYCmFDZ1k0DL3ddrMeM+3brOVTjsd93Hh6aMSE05ytJ+f+aK9DjHFzxB8MnVytHn0pcBr4TUfl99yjhWcXOSsRRkzazWoJxjq9/ZzWMlxAdjt8Jnjdvu/U+WAXjL0azg5Iy21gPz4ay8+r2+LuVz8TNEgsw/folpfmylPXjZDbBne2Nsf8E28zhhAjJjceQhzzCoU4wapVqwSui6KGaeO1SbDujQrCOkNkV+JN5eojdpbW3kqx9lk97V9sOyhD//RuQIQRq/mQigT8lCUx/Kge06G61z7/sRFhuEAQeYCh1tEyREfYbd3Bgsc2+3YsN3f4Fk+qCMAn7fyzetOdx8dr/e01wU8Mj2knp/U0YO+0RHnQ+oTleoKF2HLRxDq9ObnjP9w47LZ631ETCmjfZi0749nt7hQMjrFbR72Jx8Lg8oIv2RqdaD+HvU/Bvj1Wy3ilPAwv0kxF69atm+nMe/DBB4us3ocffmjSjGxb4B4t8qBiJEgoIf46hGAhTA2txqnPzQpU5zr1F+MxtzS2fPdheWr+usCh94/oYVrXgQ1RWEAL224YhRbu0b2tbcAEjpmTHxliPx4jDC2/IGKa73tjvrR85CVBzz18xyUye/OumAfC9/7EnNWB1A9P7B80dwSGM9sNTy6wcxf9PnNr362DOpnFWKe3zmf/hEvH3ikHv/4y/S6EsvaO65d10V8fpD1ni6vGOiapirahLwRRRHgqQQTNzl/eKg+o394yfJdww46X4TXyddQ9gbcZWy3CeJ07kc7zzjvvmBnemtasktzvrLMPjABghOnYzRp5ZW3DZDMIgHfGnVqPmXABYDBGKLOEy9pnRWGsUVeG3Y6f9x9vfwS078cygujt5rWtW60/7LcexTGizDnJzXffWhBoKSItwtcwZwMGpNhba/B7Wx14yBvxroO0s2bPCb+74+XlW8w2/BifX7xRPtJOtZKY8weMjqlIhsiSKc/ODPTiQxB+lB/CZR2H8Cx7b77V+78rvxMT6RCGBd8nLNbpzUlC/OcMQ/ze2wsF82pYhjBBzIsBAbTC1LAPfReW7bLFTKPVelWvtmaXJ/8pwEpn//45vz9WGuv7Yq1b39ELenP9dMv+gLsHo04ROofObRjccvEeuTemjv+GjxZhqraMresQ6hMdkAiHg317cIdQScq0LW4tYggAOn/stkz9s/jyo8X3Z40l/kSnT7TsjiFddKKgIWbVLlTYgIiH4U++J71/+2ZQSxN53fva55KtLTKMPrMb1tEYdI5o++n0pSavb/x3rj25mf4RLgyI4aIdBUN+kchyNeBHbEVMYDsGpSA8DobBGvZyY5IbuFbQmu37xJums3GSRm/UrFJJfX7DzTHWf/ADoqe8269fN+nRU26N+jp0JjhyAdEMxTW0VF/UqS/ththVS+Tt2xEHjes16q/TTR3Ryv/gvklGEOzprOVnbrw0EEo4e6M/3vudr3aY3XjU/+GYPlZS8xnr9EEny1+5sX/HgJhhEzof+/7uTfOdGf/0B3K1DvK5Jb/VjqlBrRY0bo7WwCGrTjgeHWcQbRhcZ3b7Kj/8EbHW+J5bhhuodaOyvkfWvtUafmmJMbbhe4B88R3EtTty1h/J883h3U0/h3VcPD7RKh5SyyOVLp4zE/egdVhRDHV9+umnTXVv6tUq6q1hZOwaNmRIcHMvn+7Ma3vkL+nEHE++EFgu6cLYh+6RF5ZsNB1jkY7FjxVig5nTbtNRdZbwWMf8XieisT8eQxgwcxt69K2RUUiLjozz+vjonB0M+zAaCp0cd/zv0yDRn9C1pfzx6mHy649XmkgMpEV5/qPxwn9XMbKHMmEfDP6763Xkk9PlgOM2PHKTSYOW+/1vfmFaN2ZD/n8IQcM0kvb45M90Hga0mq0fPJJCyJ/WmelQPssQ3wxxhKFl9OWPrwu0NK00zk8MxOijgmPP25kG53r/m5eb1ioGrKBDFIayTtFW3+UasWKJjvNYax0jFjF1Jjru4HvHUwbiol+6daw0Vr+302Kd3nk+rMOVgzBJZ6MAI97+fO0l5vtnHYeOYnyP/qdTqsIgzAgnQ0v4pVvHmaH12I4nE7iJnIbvFDqEQ9k87eMY97cZhXahrwIdx5P/NTPA0B5lgv0Y7OSM3rBnVNbfqz0v5/ITX2yW19f5G0x4kSbe4YbXB+HNFdbADOcxybaOEDVER8ANgycATCIEgwj/7NIuZarOpHcLQijtGcVFiO0nLMsyfhjL1X/WWOdfgI8Yfj8YBA8TkXfX+N5QP/hQ50Rv90YVccwzYBd9/NAys7Klj/4wrWiNUMeXZBt6u62oAnRY2QXYng9aPjuOnTGjulA/e/yqPR04rFYXyyANcSpKHO3HFXcZkSR49G2rglPSOTzwSL5F56DARPLdmtQrFCvrLEOs0zvPZ62DIULPTuiTGm7qENdwHaKIGMHsdWjddtU6YSBRLA1Pj2g142aG787GQ/4QuU7aU2+5dyKdP5ZCjPPO2HRQ8Ep5vM24Ihh8wnBHXNXV7xoqS51TQojLAoDHkkBFIRBrIbY4QpDxNmO8SBPvcIv264Os88T7E4M1ECeMEDVER0RDgK06hBPihIojtgrLTxIggcQnAIGKpkglfo1jV8K4ddbFrgrMmQRIgASSm0BYIbb33iZ3FVl6EiABEih/ApE0NawQH8/2h2GVf/FZAhIgARJIfgKRNDWsEG89GX4sfvIjYQ1IgARIIL4EImlqWCH+8pB/JFd8i8qzkQAJkEBqEoikqWGFeN6ek3LsfG5qEmGtSIAESCCOBKCl0NRwFlaIccArG/1vMwh3MLccFwAiAABAAElEQVSTAAmQAAkUTaAoLY0YRwwF71C3ihQenFr0iZmCBEiABEhA5MMdxyO2hsEoohAjwb++OiQPYaGUVpZRPqU8JQ8jARIggYQgABGGhhZlRQpxURlwPwmQAAmQQDAB+IThjojkF7YfQSG20+AyCZAACZSCAAZrIE4YIWqIjiiuAFunohBbJPhJAiQg4SalIZrYEogYNRHbUzN3EiABEiABEKAQ83tAAiRAAuVMgEJczheApycBEiABCjG/AyRAAiRQzgQoxOV8AXh6EiABEqAQ8ztAAiRAAuVMgEJczheApycBEiABCjG/AyRAAiRQzgQoxOV8AXh6EiABEqAQ8ztAAiRAAuVMgEJczheApycBEiAB17AhQ3zEQAIkQAIkUH4E2CIuP/Y8MwmQAAkYAhRifhFIgARIoJwJUIjL+QLw9CRAAiRAIeZ3gARIgATKmQCFuJwvAE9PAiRAAhRifgdIgARIoJwJUIjL+QLw9CRAAiQQ1XfWjR/ZT6ZOHCrdO7WWSpWimjWvFAmQAAmUO4Hc3DzZsHWPTJ+9VOYuWB218kRNLR+4c4rcdNWoqBWMGZEACZBAohFAA7NP9/bmr3P7FvL0fz6IShGj4ppAS5giHJXrwUxIgASShAA0D9oXDYuKEMMdQSMBEiCBikYgWtoXFSGGT5hGAiRAAhWNQLS0LypCzI65ivb1Y31JgARAIFraFxUh5iUhARIgARIoPQEKcenZ8UgSIAESiAoBCnFUMDITEiABEig9AQpx6dnxSBIgARKICgEKcVQwMhMSIAESKD0BCnHp2fFIEiABEogKAQpxVDAyExIgARIoPQEKcenZ8UgSIAESiAoBCnFUMDITEiABEig9AQpx6dnxSBIgARKICgEKcVQwMhMSIAESKD0BCnHp2fFIEiABEogKAQpxVDAyExIgARIoPQEKcenZ8UgSIAESiAoBCnFUMDITEiABEig9AQpx6dnxSBIgARKICgEKcVQwMhMSIAESKD0BCnHp2fFIEiABEogKAQpxVDAyExIgARIoPQEKcenZ8UgSIAESiAoBCnFUMDITEiABEig9AQpx6dnxSBIgARKICgEKcVQwMhMSIAESKD0BCnHp2fFIEiABEogKAQpxVDAyExIgARIoPQEKcenZ8UgSIAESiAoBCnFUMDITEiABEig9AQpx6dnxSBIgARKICgEKcVQwMhMSIAESKD0BCnHp2fFIEiABEogKgfSo5BKjTHJ27ZCcbVskL/OYiMcTo7MwWxIggZQlkJYm6Q0aSkbHzpLRtn3CVjNhhTh71ZdyceP6hAXHgpEACSQBAW3A5R05bP48J45L1f6DErLQCemaQEuYIpyQ3xcWigSSlgA0BdqSiJaYQqzuCBoJkAAJRJsAXJ2JaAkpxMYnnIi0WCYSIIGkJpCo2pKQQsyOuaT+rrPwJJC4BBK00z8xhThxLyNLRgIkQAJRJ0AhjjpSZkgCJEACJSNAIS4ZL6YmARIggagToBBHHSkzJAESIIGSEaAQl4wXU5MACZBA1AlQiKOOlBmSAAmQQMkIUIhLxoupSYAESCDqBCjEUUfKDEmABEigZAQoxCXjxdQkQAIkEHUCFOKoI2WGJEACJFAyAhTikvFiahIgARKIOgEKcdSRMkMSIAESKBkBCnHJeDE1CZAACUSdAIU46kiZIQmQAAmUjACFuGS8mJoESIAEok6AQhx1pMyQBEiABEpGgEJcMl5MTQIkQAJRJ0AhjjpSZkgCJEACJSNAIS4ZL6YmARIggagTSI96jswwQMB1+JS41u4W1xH9PJ0lvga1xNdQ/5rVE6mULmnTl0vej6ea9O4V20XyPIFj7Qu+jk3FV7u6uFdqmjDma1RbfO2biGRdEPe6PUGpfG0bi69JnaBtWHEdOyOuA8dFjp4WlFV8PkE+0lDzal5PfE3rFj7mwAlx7T1WaHtgg8uldUsTX9UMEZSpfk09kW6zm9cr7i+36fnsG23Lbpepr9SrIb661Q0r297SLZ7NFte+TL0WWle9HpJ9UaReTVNfw65d48Ll1DO5l28V8YYraJiiaN29fdoW2unaf9yUodCOYmzw9mwtroPK/vjZsKnN96t1Q3GvivzKeF+3FuLafKDk9dIzewd2EElPC1sG7igdAQpx6bgVeZR7zS5xz1olkpEu3iGdxAuRPKsiuWyL/rhVhJyWmyfuz9c7t4p3gH7x3fkPLioI7hV6bJaKiM28ffVHb4kmRA/p5vvzMoKKc9st1yPuBRtNWbDZ17WFKaPkaBn0B+pavcakRr7eMT1FqqioWpamZcnOEffSwq8lh+BLlUri2nFYkJex6pXFM3mg/yZh5YFPj09cX+0S16ks+1YRTe9r0cCUz8oDQum9rK/4WjYITlvMNfe63eKe/ZUpE25I3sGdzHVx7Tkm7s++Nrn4WtQX75UD/DcOe76qwa4tykRvQEGGcrbL5wqR3300sNtXR28eoYQY58u/Lkjsa9PIiJpr+6HAsVjw9mqjN8aT4tIbpGUmrV5blAPlcZpPhdrcRLFDb3SudXvFdcIh2vgu6vfJ53KLC/XavF/F/WRwVrWqirdjMxH9jrjOab305mFdB5N1r9YU4mBiUVmjEEcFY3AmaLUYEdbN3rG9xNuvXSCBR1u3aR+tFNfXewLbsOAd1sW0EO0/VLN9Yp9AOu8lXcTXqoGkvTw/sM2kGdfbCIvZWK2yIB1+hGj1eK4bJlKjSiC9KdtbSwI/Uu/IbuId0S2w39OjlbjnfKWCv13MzWTrQfHcMDzQOoaQmda1ioJ7yebAcWiNeW4e4V9XoUYZXZlnzE0j7Y1F4h3fW7yDOvr3643FlFFvHmmvLwzkgQXPNy41Tw24mUDQ095abAQJ+aGV6R3ruDEEHe1Y0Ztb2nvLxRI63Cg8Nw7XG5verNR8nZqp6NfXNMuM4KT9a7Z4Jw8wQmjlhJuoq3MzSfvnJ9Ym8+mZqDcGvYEF7EKu4RHqBhVIk/8IAKH23HKpSO1q/rrZhVgFHmWAubYdMvU3KyqceDLytG8s6X+bGXQzxvXwTBlokuE/7yVdxaU3s7RXvghsM9v1OqM+Zhn10vqnPeOol36Xgurl0aeXDXvF/eHKoLy4El0C9BFHl6fJzYXH7nzzNXE83qsIeNDKDGGmZevYblwGtm1oFfr0kdpuaNkVMnU1ePu3DxJh01L+4MuACEMQvMO7FjoUohk4h7a+3SpUaCEFWf0aQatoyQZMH819Q/0/eGubEW11fdgNIug0n95IjME9ocLjHdcrkMStLei0EgiCe+GmgAgjE++kfgERtjI1TwO2GyUEx9xArAT66aurLhK0cu1mry+265OAd3QPbSXrU0E4y6++59ZRRoTDJbO2m/pfoWU2ln+w3sR8bYLP4evQ1Dok8IkbttNMq9q20QfXT1H10icgtNBxw6bFjgCFOAZs4cuzzLU+uOVrtmsLNeQXW0UIPz67hXoMDbgh8hM606DVi8daX+fm9qyMj9n+KOoboELt9N/iCN3mwyNovsF94P7C7+qwtvksd4m1wfGJFnKQqaDDJ11SQyva16zgZubSFrrxbxaRkevQySD3CcQKfvZQ5tOnALu5Z3ypqp0vfPYdYZZxLtcudU0oN+NKCpMOm41Q6+N/cc1rtbqLX5ziZl10OvQ3aB8HLJTP2+zgf1EhQCGOCkZHJnnewAY84qd9uEL9w9mBbViAwNhdAtZOr0MUXOv3Wrv8n+p7demjot3cm/brM33BOSFWxtdqEzCBD3ruWvth/k7DoC0FKz59HLeb8Ws76mDfX2g5VIdOCcQtkB9uCq3Vl2qztLnq7y3CLN+vlSxU6zton/pPLTOdrCH8sNZ+56dLO0etDkxfm4ZBNzF7WnR+ms4u+8ailtU/b1raNQvcS0UdEq39rp1HClxoNdV3jFaxdjLTok+AQhx9pgUdZ/l544cKv54RB6ujrbI+yoZ43HM+ZqI1andPuLWDBR2AQY+UEOe9mYGaQLy9PdsEtXZdx88F9lsLhVqt1g79DNV6tHce2ZKGXjzhOB86txCRURprEOyKkTN6Uzsf3GEZlK26QOydZ9gX8dwQe41msZuduX17oeWL6hvWzsCAqVCFusFiP6JanNc3cFyEBdN/UKtahBSx2WW1hq3cTb1sNyxrOz/LToBCXHaGhXKwOkScO9CRk/7XD/0RAbYWbFA6iGz34Edl08LNT+RavVO8vduIr3+7oMMs94Tr5Dm/W6JLsFtC0HHmNL0ZhDUNQXNasV0LeKR1RIB4NCLB6iRz5lvUeqgbhssp9LZMXGfO29byF9WHG9GqB7c4TYhbpANw81P3Dzr67FEFkQ6J2T69MZlWPMIlbX+lOh+iJZStW6NMQvY9lCpTHlQUAT5nFEWoFPvR+vJcM8T/Iw1xvHvhRhOC5NU0Js7Wkcbbo6Wk2dwPJsJCW8/+uN8TGsrVz8Tpuj/1h17hcLdGYXgn9PGHNqH1aXdL6P6QIpofPeA4fcEqfJlofeab61hBOJW1zfo0PtmZq0w4mr01am4aGi7mbHFaxxXnE51KTkNUSFh3Q6YjbAsHF/FI7VMh9sdS+M+E8LFIlvbm4ki747rPtMjtrfIynB0RLrT4E6AQx4g5euM9900U98erQ7Ys0Jpyv7NUPPeME0Fsrs1MPC4eAfNjcY17QtPDxREIH9P0iKDAIAVjaKHp4AzXhn3i7aEdbfq4HWSOcwTtK+aKL1ILGvHD6h4Jil3VG4IXoXVFtUaLOn+IjqqIZQlV1xL6p32VMyKWynu53gy1cxUt/6A6RzwqNju9fduJb3B+aKB1CnXPpD07x1or9qdXozR86gZBn4Br15FiH8eEZSMQrABly4tHOwigtYt4UcSuOluoSIowKdfGfY6jdBUhQxqgbzf4fd1rdorPFmrlUxeF3dyLNFxLH019TreEJgrZIg0zki+Qp8bGBlkEHy9CvLxXDw5KjoEnabPXBG8rxZpLXR2FzBmVYUsQypUhOY662NJj0XUhJ3iL44kieKfyVL81OHtuG+XcFf91PAHpd835V5qCmDzUl+25Sb+zEa53afLmMeEJUIjDsyndHvWxpT0zW0Q7cSxDJ43nzrHiuf6S4E42TRDOF4lhqHYzAwW01evt2jKw2euIbEAvt4mW0OHJhczRGWX2Wx2HhRLrBsQN57fIrd0+HfocydBad3ZU4QYS8mYTKSPnvhDlhPCHNQxgcXYqnQsh5vYMHBEhvsaR6xo4FK1+bZGmnKED09nK1kqaDlvH9yLl6l4OFaIQRxs6euwxqg2i6DAzMuquscFbL+YFr+evmeG8+iO3GwLrgx7zNbTJ2fo14W9Ot4RmggEagUEa+ZmGuwlgd6EICbS6GgVHFuRnE/RhRv85Wqtp6juW0yE60IKODL/iOnQiaKeJIijCv10oDFCfFMIaRvFhKK/NnCFztl2FFk1ssKOzr1CiJNzga17fDGaxig4XWdrzcyVkZ6iViJ+lIkAhLhW2og/C8OCQhglhIKiWaSsypKmYBqXTRL4+bQolNf5g21Zfl+CWdGCXCpc1dNbahnklwpkVhWHt90zSqIciOrxMWrhVbMNtzTZtQaVhkIRjZJ2Vd8RPdZ+4l20NJAk3GjCQIH8Bsbf2VrGpTxhXjGvn4aDDMRdFqAmPghLZVnAz9GJwTIoZ3BTeSf0DtXLPW2eWnTf0QAIulJoAhbjU6CIfiI4O+HRDWaBzRx+fvY7Rb/b0vm4FbgjTog0x6Y1P5x4ICA5araHcEvmZIsrAPvIL0RjOliCSmvkobJP64IZQaMSfzfVistf5JSwzAxccQ6fRqWgXVJPWmQc2emxDqbWlismJApMcwQ0wVf3QIULrrHMHPvVpwYTM5W8wowNtQ88D6SD0mBAo38DZe2l3a9X/iRazM27ZNmgnOHEJ15yP+SHcMIVydJYl1DFO/z4ysV0jk2eoeulkTIVMb6DuT9aYiBwTqVLE00ih47mhSAIU4iIRlT6Be9ZqQQeafXpL+Est8fOgtWGbkMd5JhMhkT8XgK9fW+du/7qOYLMew8O5JewHmsl30FrMNxPVoREZlpkYUo30sAwjwby2iYew3cQqa3SG3eDKsM9QFspFgQEtgTSYChNTTDoMgwhMXjpaMO21BYFhyoitzvvWxIg3GkdWZvIa+OWtG5WJcIDLSAXImAqa2aaP3DDMxeDVTqogocfNQMvk9Je7MJrR2cFncinBfxpL7pz8CUebvMNkY2Zfc0Qz4IaPaxIwTNRje4qwtpt+BmvOkDD1QhgkplLFgBlcBzO/xwvzAlNrRrrRW+fhZ8kJuIYNGRLiFliyjBZPf7JkBxSR+tT/XiwiRQLv1hZO+h+nG7eC6zjm+/X7N9EDbXr/tfWCZTPlojV1ZYTqQMjdX2yQvAev1I644EEH1mEIG0v733zTg1/cqSIRXeH+WON+86dBNI+b6To9Yr4oI/IAj6XOWF3MI+wcKm2VA58mhvre8WYT8k77z6f23WbZ842RkvbqgkLb7RvMyMHGOtObdpphWkxf20b23SVbVuaI3ggIHJ4ctOUbCP3Dk4nGYCPm2Wnpv3nHuSlo3cx8dreGIJbQiuKI7BCRYb+eaR+sCCnc1qnN7HQab25mZ7M2hvhEvmkvzw+xp+hNmOUNU24ms9W59a6oFv+SqQ+VOT8KcZkROjJAZ51O3xgYyoqWBUaBofVUo6p/ovNI8biO7ER7+zG4IJCfcz/WcU5tofq6qysjREddqEMC2zCSSicJEh2s4dKWFAQYoVlBcxAHEif5Ah7F0XLEhPja6jPuHtRV51GgVRwCiSjEOmqAFlUCCPuxT0uIGdX0r9Smroug/EJlhHM6JgsKlSzkNrxNAx2G+lfmR6OQJ0igjerbRAeUIOY2gYrFopAAfcT8DpAACZBAOROgEJfzBeDpSYAESIBCzO8ACZAACZQzAQpxOV8Anp4ESIAEKMT8DpAACZBAOROgEJfzBeDpSYAESIBCzO8ACZAACZQzAQpxOV8Anp4ESIAEKMT8DpAACZBAORPgyLpyvgCJenoz58QRfRnlER36jPkn9HVHZhIizP+gs7iJDtN2z19v5kLAxPcwMyHN3mPhq4Th1xjJp1OBis63YUa5OYdk6wTtbp1MvsSmoxdDzRXhzAdlxiRAZk5j505dx4RMgTkoQuyPtMm8VcU2iZNLpxl1bTuk/HQu5BydVU4n5zdv9mjVUDDHMtji3YY0EqAQ8zsQTEAnLXLPW6tTeO4y2zG82kyBqQJqprLMfzszXv2ESX0wx3FguDDeFadTLZpZvoJz1Ul7dLpOvNdO5+EIzGSmk+94JuskMvlCbg7BFIuYmnLVjoLpL/PzwsxfviZ6XkzxeE7fXLynQPTNpEUhJu0JKobO9+FevNkvxAM6BGZls6dBnkasrXPqjGyiM9y5th+yJ/NP6qRzgFiTJGEnZm/zQYgxbaROho9Z28zcHTqDHaYGxctXMQOdoAxIb6+32cL/KioBCnFFvfIh6m3exKyvh8fcvTBMZekdVTBlpvRpK67+7SXtrcWBWdvs2ZgWM+at0Faue4lfbLAfYuS5eYQ/qQo1Zv7C+/rMO+30rcFmas5B+S+/1BnmzOuWausLLD9cac9ePNcNC542FKKP2elCzTMcdKR/xW1N3YmbjU5HitnKCpv/toLZ3/C+QdFyQGzT7EKMeZH1BgRDixc8jOXfkTCVpJk6UzeaN3Xnv6bKzNPcsZmk/ffzcn/hqL/A/D9RCNBHnChXorzLoeKU9s6SgAhj+sUgEc4vn69ZPcnT9+9FtPo1gnercAVM3RK+oZ0Cq1gwoq2tSLt50YJ2WjXHm5XxtpNxvUxL1Jk01Lrry+2BzS59S3FIyy+G59ZRRoRDprFtxNMC3nzsN//BroU6B7W1xckCZR7fy9rNTxIwBCjE/CL4vwgQjzPZARoR55zVViLm7w1nPnfkrxVayEGm8wW7dGrKkpjxR8M1oa1vr+3N1uHygFsl8GYUTWTeoG1zbdiPM++gq1X8qTG9XVv4D4cOq9vEeqLARtfWYJcGthl3T4i3rWAfrWISiPyLqZhMKlytMUeve9mWoHp7taUXybzqoij169bV51rIrLdmFNoReoMLb6VQcYVBOH09W4VOmL/V8nnbExk/tH2DLhv3gfp0S2T6Wia8I89XU/3D+uYRu6W9u9Tf4rfejJG/03tZX3G+qdt+HJcrFgEKccW63qFrG+oNx7be/5AHaaea5/bR4rW9Vy9kulAbMVG+3dR1USJRh28YryqyTCM4vI535Fm7zCcm51e/rXmhqG2HeWPHmfO2LSrE2oFW5PzPQUf4V0wURq1qIph72u6K0d14HVP6P2aJe7W+wzD/BabmLS32l8iGyJObKg4BCnHFudZha+p0C5jXFIVNbduhYWCIKCiR6ZsxIEx2My/5LM4LKfHYf/CEpGmHYiDywp5RmGX313tF1NXgHdrZH3pnSxeqpWzbXapF09noPFLdL3g/YPrTs8RVmvA8Z35cTykC+kuiVXQCJoLBDsHRorPvKs2yicbQcC74Tl27jwayQNyvD6+uz48qCOwIs5D+lw/D7ImwGa+RWrnd70eGP1ndDmkaK2wZIi4QHVLiG4qVQYhP47NWf7s9ciSQDO/Pm/Gl+LYe9L9lGjczWoUnwG9Bhf8KKABn55rDn2kQ4d15uXlhafkq6VcpnDsD8cP6glN7Zxke373jepvY4rCZOnZ47tJoDXVrIM7X3iHmSBa0irhgpPXkv/DS16mZP35Yo0SM6SdcFBE7J4NyLMYKBB8+41YNxD1nbXC98w/HOd2IoLjcirgoRr5MkrIEKMQpe2mLXzFfo1r68tGC9OZt0wWrZgktRzNKDPG/TsNItb7tTCiZcxfWfXVrGNFN+/e8gt35b1b2XDWoYFsRS3ijs+jACI9GHKT/fWYRqf274Zc1Pl/4b2HqSvFqzDLijy1D3SyhtrZF4xP+Zs83G4l73W7zJm7ETdvNlA3uEo1ZplVsAhTiin39Te1DhZOZTiWb/9c7pqeI/qW9vlBcO48EUct74AoRbd1FMgz2gO/UvXBjIBl8pS6NzvCVtMNP/b2+Xq0D+VgLGJ5shl9bG3S4tOmQ0/X0P063thbyL7u0sxLhcBi5V1ZDGdzLturgk6H+rHS0oblJaYsc/mj3nK+CT6HDnIVCHMykAq6xs64CXnRnlX3Nde4Ih6/Sta/Aj2pP75zPwQhfESJsHQ9frFP009R3LKeDIxes9JE+ve2aaHSChovlm0tHyuEmYTeMcEO9PN8YKZ5pwwr+dB0DVuzmVj9yVAyuji0HRPQmEGRoiat/2nNT/ghDa2cEd4+VhJ+pT4BCnPrXuOgawl87Nni0l5kTItSR8AXbrWbxBz4IWodTBtqPNq1TdF5hfoaSmK97S21p5g9RvpgradrS9OlkOgHTuGTTEYcOQcwB4fjzDgke3WciGRyhbIG8SrFgbgIhjvO1bWQiOAK7dPIjGglQiPkdMAQgavbHejcGTBw/W5iOJ3jAQuEEOppMhTHINO7XMjNgwhHzayYT0sd5u7lsxwS2e0KItaZLe22BmbcCeVtmWqXqkzWdc9ZG26fxGzueAty2IdC2pIVcGU5fb1Da/BWE6NknBAqkuaidhPkjGMG7uBEjgeO5kJIEKMQpeVlLUSnt6ffcOLyglamP2G6dkMfpNrDPeBbqLBil57Im18lPAEGCD9ayUC4KzEoWSKNRG6HmgjAT6egManjsx8xv8DenPzs7MAGRT6fohCFELk1nkDMWStCxAyPgdEY5u7mXb/XPDmffqDceDAZxmuV7dm63r6e9pJP72Aee6DndCzb4k6CD80qdOEi500jANWzIkBDNjJKBWTz9yZIdUETqU/97sYgU3B1LAnBL2MOuTK8+/MinVGTzBRW+Xl+PVv4ZzPLjjuEKcM/NF8AQBcRoMs+9480eCGnafz4tlAri5P4oeNa1QonCbPB853Izci3t2TnBKbR8eQ9ODmyD6IeaqtNK4Ll2qPi6NDeujUj1QXrPbaOC/M3oyISv2qvTbGLqTBNmp6Lrq1dDw9h0RKHe4Hw6N4UHc3WEC/ezCsLPmBCoc+tdUc33kqkPlTk/CnGZEaZwBmiZwj2hIWsubc35EAKmfz74hR2tyRSmULKqYTj1yaxABIYRYnRGYmizRkf4dMKkaA4eKVnhmBoEElGIHT0vvFAkYCOAt2lgfmH9K/Njky3blF7UuSZ8mG8i38zTBMPTLBz8DEOAPuIwYLiZBEiABOJFgEIcL9I8DwmQAAmEIUAhDgOGm0mABEggXgQoxPEizfOQAAmQQBgCFOIwYLiZBEiABOJFgEIcL9I8DwmQAAmEIUAhDgOGm0mABEggXgQoxPEizfOQAAmQQBgCFOIwYLiZBEiABOJFgEIcL9I8DwmQAAmEIUAhDgOGm0mABEggXgQoxPEizfOQAAmQQBgCFOIwYLiZBEiABOJFgEIcL9I8DwmQAAmEIUAhDgOGm0mABEggXgQoxPEizfOQAAmQQBgCFOIwYLiZBEiABOJFgEIcL9I8DwmQAAmEIUAhDgOGm0mABEggXgQSU4jTgl9zHi8YPA8JkECKE0hQbUlIIU5v0DDFvw2sHgmQQHkQSFRtSUghzujYuTyuEc9JAiSQ4gQSVVsSU4jbtpfK3Xqk+FeC1SMBEognAWhKhmpLIlp6IhYKZaraf5Ck1asvOdu2SF7mMRGPJ1GLynKRAAkkKgH1CcMdgZZwooow0CWsEKNwAJfI8FBGGgmQAAmUlUBCuibKWikeTwIkQALJRIBCnExXi2UlARJISQIU4pS8rKwUCZBAMhGgECfT1WJZSYAEUpIAhTglLysrRQIkkEwEKMTJdLVYVhIggZQkQCFOycvKSpEACSQTAQpxMl0tlpUESCAlCVCIU/KyslIkQALJRIBCnExXi2UlARJISQIU4pS8rKwUCZBAMhGgECfT1WJZSYAEUpIAhTglLysrRQIkkEwEKMTJdLVYVhIggZQkQCFOycvKSpEACSQTgYSejzjWIHN2bJPc/fvEczxTvOezRHy+WJ+S+ZMACZSUgMsl7mrVJa1+A6nUoqVktO9Y0hwSPn2FFGII8IW1a8SbdS7hLxALSAIVnoA2kPBbxV/u3t3mt1uld9+UEuQKJ8TZK5bJxc0bK/x3mwBIIFkJQJDPL1konhPHperAIclajaByVygfMUU46NpzhQSSmgAaVPhNp4JVGCGGO4It4VT4yrIOJFBAAL9p/LaT3SqMEMMnTCMBEkg9Aqnw264QQow7JjvmUu8HyBqRAAjgt53sreIKIcQIUaORAAmkLoFk/41XCCFGnDCNBEggdQkk+2+8QgixGayRut9B1owEKjyBZP+NVwgh5oi5Cv87JYBUJ5Dko2IrhhCn+peQ9SMBEkhqAhTipL58LDwJkEAqEKAQp8JVZB1IgASSmgCFOKkvHwtPAiSQCgQoxKlwFVkHEiCBpCZAIU7qy8fCkwAJpAIBCnEqXEXWgQRIIKkJUIiT+vKx8CRAAqlAgEKcCleRdSABEkhqAhTipL58LDwJkEAqEKAQp8JVZB1IgASSmgCFOKkvHwtPAiSQCgQoxKlwFVkHEiCBpCZAIU7qy8fCkwAJpAIBCnEqXEXWgQRIIKkJUIiT+vKx8CRAAqlAgEKcCleRdSABEkhqAhTipL58LDwJkEAqEKAQp8JVZB1IgASSmgCFOKkvHwtPAiSQCgQoxKlwFVkHEiCBpCZAIU7qy8fCkwAJpAIBCnEqXEXWgQRIIKkJUIiT+vKx8CRAAqlAgEKcCleRdSABEkhqAulJXXoWngRIoEwEsnPz5OCZLNly9JTsPnlGOjWsI41rVpM6VSpLnaqVpUZGurhcrjKdgwcXTYBCXDQjpiCBlCLg84nsOH5apm/YKZ/tOGAE+GhWtni8PnGr6NasXMkIcV0V4qYqyr2bNZC+TRvKyHbNpEqltJRikSiVoRAnypVgOUggRgR8qrwnsi/KvlPnZOmew/Le+p3y1cFM8er5ataoKY0atJQBg7pJp47dZPfeHXLg4D45euKIHMw6K9v2nZA52w+oSHtkard28sJ1oyXNzRZytC8VhTjaRJkfCSQIgYt5Hlm465C8ry3frw4ek/2ns+TsxRzJqFRZ+vYcJIMHXCJNGreQ+vUaSEZGZVPqbl17m8+cixck63yW/p2Tg4f2yavvvqjHn5Mcj0equikb0b7EJBptosyPBMqJQK7Ha/y9O0+ckZmbdstHm/fIkXPnJSM9Q+rWrS8dOnSU/r0HSq+eA6RateoRS5lRuYrgD8dVxnJGFUE72GX+j3god5aCAIW4FNB4CAkkEoFj57JlxsZdKr57ZMeJ03L47HnJ9Xqlaf2mMmnQeOnTa6DUq9tAatWqI2536QOl0GnHfrvYXHkKcWy4MlcSiBmBrJxc42ZYd+i4vLt+h3y+fb/kqPDWqFpD6tdvKKN6dZVB/YZKu3ado1oGiDAjKKKKNJAZhTiAggskkNgENh85KW9/vUO+2HlA9qq/NjPrgkY5pEuX9t1lYP9h0rZ1B2lQv5FUqVI1JhVBRAW76WKCVijEseHKXEmgzAROnNdIh9NnTYfb2+u2y9eHj6trIU1q16wtjZu0l0s79ZChgy+VOurHjYchWIIt4tiQphDHhitzJYEyEfhi50F5ZPYy2XPqrEY65EqNKjVkUO+hMnjgCGnapIXx+aanx/fnCxFm5FqZLmvYg+N7JcMWgztIgAQsAhhs8dCHi2T/uYvSvWMvGaj+3r69BpkoBitNeXzSNRE76hTi2LFlziRQYgIYcvy9GQtllw43vnriNJk44WqJd8s3XKHd8BAzbCIcnjJtpxCXCR8PJoHoEYAI//CjxbJs/1EZOWi0TLr8uoQSPuMjjl51mZONQOmDCm2ZcJEESKDsBF5Zs1Xe01Fw7Vt0kKun3JxQIozaMWai7Nc4XA4U4nBkuJ0E4kQAc0HM27ZfHv5kmVSvXlfuuvV+qamREYlieXm5kpeXQ69EDC8IhTiGcJk1CRSHwNbM0+qSWCSVq1STu2++Txo1alacw+KWBjcKzNjG0LXYIacQx44tcyaBIgkcP3/BdM4dPJstV4yZIl269CrymLgnUBEW8U+RGfdzV5ATUogryIVmNROPAIYqP/TBYlmhnXMTR18p48dOTrxCaom0PWxaxAhfo8WGAIU4NlyZKwlEJODVZ/0XV2yWWVv3SNeOPWTi2Clm1FzEg8ppp9814eM8xDHkTyGOIVxm/f/bOw/wJqvvj3/fdAMtZZVRNmXvvWXLHiooCCigDBHc6+/APX4ORFQUmSpDRaYMmbL3KHuXUXYn0D2S/zlvSUlLmyZpkmac+zxtxvu+d3xu8s19zz33XCGQG4E/Qs/i880HUKpYEEYNHU+TdP65neog74sQ27IjRIhtSVfyFgI5EDh0NQIfb9xPcX6LYPRTE9WYvzmc5jBv6SfrPMQ0YbM+ESG2GVrJWAg8SIBjB49ftpUCtidhUL+hqFCx2oMnOdg7qhCTndgjH7GMHaxJDlcdWVnncF0iFXJVAneSUjB+6RacpR00+nbth1YUOc1pEtm0PT1kss5W/SUjYluRlXyFQDYC3247jC0XrqFBzUbo3nVAtqOO/FL1X4OHInJhq14SsrYiK/kKgXsEeJv6eQdP47sdR1CudEWMHDYevn6FnIYPL+bgP0+JgWmzPhMhthlayVgIZBA4QH7CH2zYh8CAYhgxdJwTeEjk1HNkmhAbcU5grPKeCLFVMEomQiBnApdj4zCO7MJ3U7Xq5FzFClVzPtGB39X7EcuI2HadJEJsO7aSs5sTiKblyxOWbaHtjuLxeN+h6u4azolEbMS27jcRYlsTlvzdkkBquhaTaXJu+8UbaNqgJdq27uy0HDJsxLKgw5YdKEJsS7qSt1sS4OXL39PE3PQ9x1GjSk0MffwZeHv7OC2LyMibSNdqxUZswx4UP2IbwpWs3ZMAb/z5/c6jKB5YEiMorKXjL1/OuZ+0JL7Hjx/C3D+mo7ivF3rUqpjzifJuvgnIiDjfCCUDIXCfwJmIWLILb0VSKvDU46NRqlTZ+wed7NmJE4cwe8FPKOIFTH+sI5qXD3KyFjhPdWVE7Dx9JTV1cAK3aPnyc0u2ICIxFYP7D0Xt2g0dvMY5V49HwizCP8+dCj9PHb7q0xadqgXnfLK8axUCIsRWwSiZuDsBntB6l7Y6Cr0RifbNO6Ftmy5Oi+TUyVB1JOzrocWPAzqgR00xSdi6M0WIbU1Y8nd5Auwh8c3WUCw+Foba1ergyUEj4enl7XTt1tFI+NSpw/hp7nfw0qTjk+6t0V1E2C79KEJsF8xSiCsT2HDuCn7cdRRBZA8ePmQsPJ3UQ+LM6SOYOX8aPJV0fNe3PfrVqUI7N0uyBwERYntQljJclsDR61F4nhZtwMMbTz3xLE3OlXG6tvLKufDwC/j5t++hTU/Ch11bkAhXll2b7diTIsR2hC1FuRaBa3fi8fzyrYhP02HEEyNRk7Y8csbEIjxt9mRo05IwmSbmBtavJjs227kjxX3NzsClONcgkJCShknr9uLYjWh0atUVzZu2dbqGqSPhy2H4fsaXSIiLxjudmuIxEeEC6UcZERcIdinUmQnw5NyHFE1tCU3OtWzUGgP6DXHYjT+Ncb565SKmzZmMpMQ7+LJXGwxpVB2yU7MxYrY7JkJsO7aSs4sSWHHiAn4/dBoVylXEwAHDnG/5MtmEr5AIT/2FRsIJt/FGh8YY3FBEuCA/riLEBUlfynY6Attoh43XV+2El5cfnh02gTb+LGl2G9JTk6Hx8ISi8TD7WmtccPUqjYTJJhyfEItPHm6FEc1q0X504h9hDbaW5iE2YkvJyXVuR+AC7TX3yj87kKTzwEhyUwsOrmQWA7bJhp0/jTcnjcf2ravNutYqJ1P510iEf5jxFWLvROKFNg3wdLOaIsJWgZu/TGREnD9+crWbEEhOS8dLK7bjfPRt9OkyAHXrNDG75WyTnTHve6TQjshly1cz+/r8XnAr4gZ+mv0tYu/GYFKXZhjTsq5EVMsvVCtdLyNiK4GUbFyXQBKJMJsjtl+6gdaN26N/3yHw8DRvDBMVHYHpc1kEY/Fo94EICaljV2BRUVT+r1MREXMTz5EAswh7ecjX366dYKQw8z5NRjKSQ0LAVQn8cegsFh09hyrlq2LQI8PM9rGNiY7Ez7O/QWRsNIYMeBrt23axKyoW4Wmzv8bVa5fwfx2b4vm29UWE7doDeRcmP4l5M5Iz3JQAmVSx+fxVvPnvLhQqHIhnhk9AQNFiZtGIj7+LBYtn49LVS+Rv3IV26uhEk3T2+9pFkwj/TC5qV0iEn21eB+Pb1IO3jITN6kN7nCwjYntQljKcksC5qNt4eeV2eHn7YhQFeC9dupxZ7UhMjMfcBT/j0PGD6NmxL/r1HmS2ScOsArOdHE3mkGk0Eg+/dhGvtm+El9s3hI9nwXhqZKuavMxGwH4/zdkKlpdCwJEJxCQm46V/ttHGnwno0aEPatWsb1Z1U1NTsHb9Chw+cRCNajdGz4f7k8ub/SKyxbBNes63uHz1AoY3romX2jUQETarB+17soyI7ctbSnMCArx8+dWVO7Dr0k307NQP3bv1J7uw6WMWrTYdy1csxLrt/6IuxZ8YOWw8ChUqYreWZ9ikJyPsShgmtK6Ptzo1ga+XfNXt1gEWFGT6p8uCzOUSIeBsBNjX99cDp7Dy5EXUqlYbPbr1M8ucwDF9d+zchI271qNiuUoYPniMXfesi42JxEzyzmARfqJBCN7o2AR+IsIO/zGUn0mH7yKpoD0JLDpyHp9s2o9A/2IYNex5s0V0+86NWLjsVwQWDsC4Ua+gePFSdqv+3bu3MeO3qThz6Zw6MTepWzMU9pavuN06IB8FSS/lA55c6loEDl+PVIP5eHkXtkhEj9Gk3KJVCxFQpCjGP/MqSpaw32abqnfG37NxOuw0Hq1bFe92ZRGmXT8lOQUBMU04RTdJJW1NIDo+Cc8v3YrrdxPxaK8nULGieSvfwkgAZ9GOx7rUdIwaMg7ly1exdZUz82cRnvX7j9gXuhtP0cTct/3awt9HRDgTkBM8kRGxE3SSVNG2BOKSUzF+2VacIne1Hh17ol27rmYVeJV8hKeTSSA9LQ2jn56IGmZ6WJhVWLaT1ZHwX7Nx5OQh9KlVCR91b0EibD/vjGzVkZcWEpARsYXg5DLXITB1+xFsOn8F9as3QJ8eg8xqGE+OzfrtR0TFRGFgn8GoV7exWdfn52QW4dnzpmFP6E48TgHdv+//EAJ8RYTzw7SgrpURcUGRl3ILnEC6VodFR87hm22hKF+6Ap56cix8/QqZXK/bt6Px06zJuBZ5FYP7D8ND7bubfG1+T0xIiMMff89R/ZS7VS+Pz3u2RlE/EeH8ci2o60WIC4q8lFvgBEKvRWLS+r0ICAjE00PHoWjR4ibXKTUlGb8tmE5uYufRpW13dGj/sMnX5vdEFuG5NBI+ePyAao6Y0q8dihXyyW+2cn0BEhDTRAHCl6ILjsCV23EYt3QzbqekY2DvIahcKcTkyiQnJ2H27z/gyJnDaNO4HZ4YONJuq+aSEhPw1+I5qgh3qFIO3/Rti+KFfE2uu5zomAREiB2zX6RWNiTAy5cnLt+GCzFxeLTH42jV8iHTS6MFH0tWzFeFsEGNRiTCI8yOxmZ6YVnPTKFR+F+Lf8P2/dvRJSQYvzzWEaUK+2U9SV45JQExTThlt0mlLSXAG3/y5NzWsGto3KAF2XUfNnn5chp5RaxdtxSbtq9DSIUQjBn1Enx87DMaZRFe9e8SEuEtaF2xNH6giblSRUSELf0cONp1IsSO1iNSH5sR4OXLP+0+hh93HUVV8hN+mpYfmyOkO3duwKr//kGl4Kp4dsQLZl2bn0axCC9a8hu27N6EtpVKYzqNhEv7mz6pmJ+y5Vr7EBDThH04SykOQGDbheuYsv0wigYUx8ihpi9f1lL8iCNH92Pe0t/gX9gfo4aORYmSpe3SIp4UXLN2Kbbs2YQmwSXw86MdUEZE2C7s7VmIjIjtSVvKKjAC52mxxvO0aCMxBRg/fLRZsYXPnzuBuQt/pqXLFD/i6RdRLriyXdrBoTT/Xvo7/tu9EU3KlcCcQV1QNqCwXcqWQuxLQEbE9uUtpRUAgUhavvzcki24mZCMx/oNQV1adKEoJmwfT6aM8PAwWjX3A9J0WtrmaBiqVKlhlxawCP9LI2EW4XpBxTBzYCcEFxURtgv8AihERsQFAF2KtB8B2u0Ik9btwcFrEWjVuC3atelqcuG86/HPc6cgKSWBdugYjyaNWpl8bX5OTCMRXkoj4Q27NqB2qUDMfbwLKgb65ydLudbBCciI2ME7SKpnOQH2kJi8JRR/HD6HmlXrYPiQsfD2Nm31Ge9wwSElo2nDz75dHlE9LCyvielXclD5DRuWUzzjDahZMkAV4crFRYRNJ+icZ8qI2Dn7TWptAgHe+PO7nUdQqkRpDHtiNO09Z9rqs4y4vt/Thp8XMYgWe3Tp3McuG37ypOCatcuwYt0SVCXx/fXxrqhWIsCElsopzk5ARsTO3oNS/xwJnLgZg+eWboFW44Vhj40weXJOjeGweC7OXDyDDi07o2OHHtDYYddlFuFtOzZg5Yalqgj//kRXhJQsmmPb5E3XIyAjYtfrU7dv0fW7CeQhsQV307R4+vFnaHKuiUlM1JVrf/+KPYd2ol3Tdhj06FN2WbrMIrx2HY2ENyxBuSI+NBLugupkG5bkPgRkROw+fe0WLU1MTcOH6/fh8PUotG/WEc2atDWp3WybZTHceWg76tZogEE0ivY20ZRhUgG5nMQivIO2V2IRDvb3xbwh3VCLvCRM8OnIJUd52xkJyIjYGXtN6pwjgTSanPtk4341tGVz8nB47JGh8PTM+yPOYvjv2uVYuXEZqgRXwTO063JhWrhh68Qbja5fvxzL1i9GST8vzCU/4TpBpkeAs3X9JH/7Ecj7U2q/ukhJQiBfBFaeuqTuwFyuTHkMGjCcliCbFoth794tJMJLUCaoHMaMfBkBRYvlqx6mXMwivIuWLC8nES5dyFs1RzQoW8KUS+UcFyQgQuyCneqOTdp16QZeXbkDULzx7LAJKF6spEkY9u7bhvlLf0VhP3+MHT4RJUrYftdlFuGNG1dgydrFCPD2wOyBndGonGn1NalRcpLTERAhdroukwpnJ3Ap5i5eWrEdiVoNRg97HhUqmLZx59mzx7Fg6Vz4ePlgwrOvolz5ytmztsnr/Qd2YCmJcHFfT1WEm1Ww327PNmmQZJpvAjJZl2+EkkFOBJLT0nN62+rv8aKNV2gkfDb6Nu2U0U1dvmxKIZfIPW0G7XKRmpKKEYPHknhXNeWyfJ+ze+9W/L54Nnw9gJmPdUKLiiLC+YbqAhmIELtAJzpaE/aF30LjKX/iy82HwEJpq8Ri/9aaXdgcdhXN67XAgH5PmjQ5d+vWdRLhnxCXcJdCYY5GvXpN7OIrfJgiuC1YOgeFPbT4jRZrtKlcBhpTYl7YCqDk6zAERIgdpitcpyJTdxzB9bgEfE+r2jadu2KzhvHGnwtCz6JyuaoYPGikSYF87sRGYebcqbgReQOP9RqMpo1a26x+hhmzLXrWgmnQpKVg+iMd0bZKGcPD8tzNCYgQu/kHwNrNP3glAqvJe6FmBQ08fVIxYflWnImItWoxFBQN2ym28OurdtKuy/4YQbsvm7LxZ3zcXcz6fRou3biEXh17okunXvAwwb0tv5U/emw/5i+ZAz+kYQ4t1uhYLVhGwvmF6mLXixC7WIcWZHPUIDvbDsPPV4cf39ZhyqsK4tKSaH+4rYiIT7Ra1cKi7+DFFdugoUm2kRTIJ9iESbb0tFT8On8aToQdR/sWHdGn1xNWq4+xjPbT/nIzqdz0lCR8T9sbdawabOx0OeamBESI3bTjbdHss5Gx2HvlJmpXUdColg6Duusw5GEF+67cwrdbD1vFXhyblExuattx6XY8enTog7q1G+XZFF66/Mffc3Ho1CGqV2MMpl2X7bFq7vjxg5hHOy57alMxgybmetSsCA+NrJnLs8Pc8ARxX3PDTrdVk/+icJORNPL99FEFxe/Fq/nmdR3OhmswY98J2l2iECa0qW+SLTd7HeNT0rCfJgGn0X5zW8ks0a19D3R/eIBJUdH+pQ0/t+79DzUr1cKIoc/RhJ5X9uyt/jr04E78umgWkpPiMf3RjuhOIixJCORGQIQ4NzLyvlkEblCgnVn7T6JGBQWjHuFw7BmJ45nPfF+Hh58DvqNJvObkM9uqYu4TVelaHXi7+8iERFy7nYA94TfJHnwNh65FIpF2UeYUUKQo6tVpDI4PAeT+EU6n87fQjssrKL5vlXKVMWbERBSm7Y5sncIunFH3t0N6Mn4c0AED6lW1dZGSv5MTyP1T7OQNk+rbjwDLLm/KmUh22P97RiFXsKxlV6+kww9vKXj01SRMWLYNq0b2zrILMbuhHbwage0Xr2Pv5Zu4cideFeIY2toonWbm/CiWe4sGCprX1eDAcWDzwTu0fdFUVAyuhC40Mm7UsEWOo+zDNEm2eNUfCCpeCs8+PQEBgbZfQhwWdho//zoVd+/Gkk24PYmwaYtLshKTV+5GQITY3XrcBu29ejsOa8+Eo1p5oEur+6NhfVHsKtungw6Txmjw8czbGEf7x01sWx+hNMrdRuLLfsfxqalkPwV4BM1xb5pUVdC0NtCpuYI2jYFCNAEIZOS9fpcGUxfEY+/x4/hx7nFULFMZPbv2R0hIbQRynAgS7xMnQzGbfIULUfCeMcMnUDxi20+SXbx0ThXh5IRYfNe3HQY3qq5HII9CwCgBEWKjeOSgKQQ2nr2C8Ni7eLGnBuVK5b6A48WhWuw5omD1rmskwNfU0a4PrTBrWFNB11YK2lPY4OBSOpQiIS4ZqIMHHcspdWutxUNNQcHbFSxco2DGkku0QOMHlCwRhEZ1mqJa5apYSHu+eXp5YPTQ8ahshw0/L5I5Ytrc7xATG4nJfdpiUMOQnKou7wmBHAmIEOeIRd40lUACxf/lBRxFi+jwxiiKuWPEKcCfNiGe8b6C/5uioHRJLdo3VdChGVCk0IOj6LzK9yFzRf0aOvXvlacV/DBfi7833cB/O1di7daMq5/sNxw1atTNK6t8H79EI+Fpv36HxPgYfNmrDZ5uVivfeUoG7kVAhNi9+tvqrZ138DQuxNzB/43UkEkh99GwvuAyNGKe86n+lXUeefT8wfPA+CHAxp2eePVrBbfupCH86mWk0YSdKTGJLa3J5Ytn1ZFwdEwkPu3eEsOb1rQ0K7nOjQlkm1ZxYxLSdLMJxJJ3w7yDZ0AbSmBo77xF2OwCzLyAbctD+qTh1Mo0tCP34oMn9uPS5fNm5mL66eHh59WRcPzdaHzYrTmea10P3mzoliQEzCQgnxozgcnp9wnsp+XMZ2gRR9cWCqo7kJtsAJlJPn8BSE5OwIrVi9TJu/u1ts6zqyzCc6YgMvoWXnmoEca0tL0JxDo1l1wckYCYJhyxV5ygTuzv++POo9Ap6ZjwpEK3/5ZVOjkVuHIDiIyhx1sKYu7oEJ8EcNC2Qr5kP/ZTaAIQqg26GLkAB1PUSLYP55VaN9Jh/CAF3/91hHbC2IzWrTvldYnJxyMib2L2/F9w53Yk3uzYBK+REEsSAvkhYOHXJz9FyrWuQOA/iqq2lTwfBndX0KKe+ZNtzGD1VgXfLQBOXtSpQpyUmlM+OgqQkyHKvFqvd0tf/DApmSYFczo3K9kxA4FFGxRs2L4W9Rs0QxEr7EMXQ7bg6bO+xaXrF/Fq+4Z4sV3DrIXKKyFgAQERYgugufslSbQA48fdx+Dno8PEwYpRT4mcWEXFKnjlSwXz/9WiJLmoNfBS0JH8h1v5AJXJWFb+ntvaDVo4d41GxudoQV1oCtl8Y4E5K5KhpdV00yal5llu7aoU76KLgmmLw3Hu/Gk0IjHOT4qkkfDPs6fg2s1LeKldA7zTJX/55acucq1rERAhdq3+tEtrTkfE0JLjCDStpaBuSN4jU8NK0XZtGPmugjW7tehRWIMviupQy1MH0uIHUiX6dFaid1uTKWJ4ISBCS4J9EzhwNhUczK0IvWcssSvdO2OA+WvSVFtxw/pNSbxzKMhYJveOxfJImET40tUwdVLujQ60ykSSELASAZmssxJId8rm1/2ncScpBRPIXSwvMTTkQgve8NUcWtCxU4sni2iwqiT5AXvlLMKG1+mfF9PoUJxMErR2BLSYz6RUqrgOrz4FhN+4gJ27/jPpmuwnRUVRsKEZ35At+wJGt6iDj8lNzddLxjDZOclrywmIEFvOzi2v5CDvfxw+iya0Gq5fR/NGwzejgHmrgeoU/Ox/AXytedez9JX0VJBAk3kUE8jkNOhhnTrJ99+O9YiPJxU3I/GOHr/QSDjsWhiGNqqJSV2bw7IxtRmFyqluR0CE2O263PIGs6cEr6JLp50m3qVbfm8zo0lSqGLaHUOHDn4alPUwT4T1tS5OQpxC9mL2tjA1VaEwE52aKLh6MxzhVy6ZehliyDVt2sxvcIlEeFijGviqdxsU8paRsMkA5USTCYgQm4xKTrxENoH/aKPOauUVtGpgPo8b0YrqmtbdzzIR5hL96I/mCmnFnOnlczS4d8fS+Ds9BZu3rTXpwuTkJMyYMxXnrpzHY/Wr4dMerSSou0nk5CRLCIgQW0LNTa9ZffISrlOIyid7AKVLmC+m7C/MduKKuQTzsSXWkIo69HlIwSHaNSOKvB+Mpbg4CrNJ5ojzV85hYL1qajhLfx8zh//GCpBjQiAbARHibEDkZc4EeHKOd2UuV0LBC0PNF2HOVR9NjcO5W5oSqGhPEnJLFpCMJb9iD49UbN6+PtfiU2lbpdm0wejR06HoW7syviZzqBGh1gAAMudJREFUhGf2AMu5Xi0HhIBlBESILePmVlfxKPaXPcfVYO0ThyjgKGqWJN6Yg73HLudDiSPSdPAlf2NfcmkzN9WrrkOlssDxs0eRlPTgbB/v8vwzLdY4duYQ+taqhJ9pi6MASwoyt2JyvtsTECF2+49A3gB4B+bFx8JQvjQw8GFyBLYwFSdPiUIkoodpss2SFEc/CDdIiIsWyQggb24eZWiDDvb2iIqKQCS5pGVPq9b+jSNnQtGdAmdM6ddOAvhkBySvbUZAhNhmaF0n492Xb+Bc1G10ofjB7IFgaeIlyhwv4iDHkrAgkyvpCq7QhSHBCkoEmp8BWxj6dADiEuNx7Xp4lgzibkdh775tUMgzhDf7DPSjXwxJQsBOBESI7QTaWYvRkl3im62h8PbU4m1yWbNwYZra/LIUvKccBe05R6NaXr5sbvo3ieIM03V9O1pej17tKWgQuc4doUk7fWLf4jkLZ9CmpXG0fBpIomD3koSAPQmIENuTthOWtezYBRy9EYWRAxRUq0C2gXwkjqbWviGNaknnLpqpdTwa/jRWh8plFTzZy/JKBPrrUKeagrAL59RMYqIjMXfBTzQ5d0iN9MaLTGJoYlKSELAnARFie9J2srJSKRbl/NAz6uTYEw9bp/IjBtCIk/T8z0TT16dd1WowMFJBHI1kv3yFJuoo2FB+Uv0QCrsZG4GbN65i2uyvcYQCyL8+jGJg9FXUtX6R5izby09F5FohcI+ACLF8FHIl4Em7TTQNLoWkZGDuckVdSJHrySYeqFtNh56tPLBb54XbOuNinEh6uz9ZwYAIHQ6kaDGitwY925lYkJHTKpUjG7UuHV9O/YAiqYVh7CMeeG8cMu3Od5PMWLZnpBw5JARMJSDrNU0l5YbnsUy+TDF3edv731aFo36IBi8Ot9xrQo/w61dpS6PXFHS6DtTy1qARjXBDyDc4mP7YdBxG//aR+O8hJT5O9mQduap9PlGD557QUuhNfS6WP+rdgpNTb+OblxUyu2jVUfbm/YAXHWxUrqTlmcuVQsACAiLEFkBzp0v8KMrYRw+3wKO/R+HreQnoTNve1yd/3PykSsFadG2ThjV7dNgYo8NSisOTTGZZfa4cCL4wrWUuRZN73cie+9oICoXZKP8/APo6pyRrUJx8oT+gUfCYgenqQpPwGwp2hOrQOaQCgorwQmpJQsB+BESI7cfaaUuqUSqQtgNqjNdX7cDLFNB93XTaNSMfRi0/X7L1vpaON2IoxnAscJdCWt6Jp0k8WnnMK+YqkL9yQGEdStFmoGVL6dSVdNaE9+IwHZ6gnUUa1OLxd0aau5ziV1C840EUV0KSELA3ARFiexN3wvI05LM2qnlt7Lp0A4sPhuGj6QreHU0CmY9PD7vBsdDyX0bSj4f1r233GFRCiyBa3KFPHFZz3U6qSxFfNChrcEB/gjwKARsTyMe4xsY1k+wdjsC7tDVQlUB//PAncOik8Yk2h6u8kQpduqbg7FXaponaVp6X7UkSAnYmIEJsZ+DOXFylYv7qPm3x8RqM/4x3XHbm1tyv+9EzvIu0Dl2rVwDbxCUJAXsTECG2N3EnL29A3Sp4vk19HDytw9tTrOPSVtBIFv5LK/XIle7xBiEFXRUp300JiBC7acdb2my2F49tWReNyJY6n2Ksr9/p3CaK6NsK1u/WoWXF0uARvyQhUBAERIgLgrqTl8nuXV/0bIPUFA1e+AK4est5xXjeSiCRXOcGN6zu5L0i1XdmAiLEztx7BVj3FhWD8B5N3l2+qWDCZyRm5HngjGnLPgoWT7540YnJuBWXmOnL7IxtkTo7LwERYuftuwKv+fAmNdGSnH7X0q39ovXO+VEa1kdBYBEdPtq4D4/+tgYLD51Rt3MqcLhSAbci4JzfHrfqIsdtLO9e8XXvtiji6YtXvtLh9AXnM1E80lWL40uAZ/uR50RaNCYu34r+v65SfaaTeZdSSULADgREiO0A2ZWLqBkUiM9oh+O4RHJp+1RB7B3n+0iVKq7Dj+/q8O+PFGKzhwbbL17H4AXr8MyiTTgXeduVu0/a5iAEnO9b4yDgpBoZBHQUOP76nQSka7XYGqrF9L8pSI/9FslZrRt4Y9OGNXX47TMtVk3VoF7NVGwIu4SO05dh07krYju2GmnJKCcCIsQ5UZH3TCaw9PgFfLHlIDyL0lrlMpXw0QwdVm5xPhOFYYN7tNNi5VRg5iQFXj6peHfdHtygHxtJQsBWBESIbUXWDfI9QxF7Ply/F0lefkgd8Rz5gD2FZE9/vPEtwMuGnTkF0kang3vq1GDxp27FYObeEzTSd8KhvjN3ghvVXYTYjTrbmk3liayX/9mO8Ntx8OjaC9qKlZFevhI0nXvizBWdGqXN2XWL4uLj/fE61KuqwY+7j2Ld2XBrIpS8hEAmARHiTBTyxFQCKSTC7/y7GzvDb8GzSWukd6J9lDguJv2ld+4OTaNWWLZNhw9/0sDZ9+EMoLjFP76to8DxWhr971N9jU3lJOcJAVMJiBCbSkrOyySw+vRlLDx8FpqylZDefxB0HNPyXuLnOnrPo3QwpizUYu0O5/+ItaxP8Yu7KTgTGYtfdh/XN1UehYDVCDj/t8RqKCQjUwgcvxGtmiSSvHygefxJaIsGPnCZNrAYlMefQpyuMMZ8pMPRM/eF+oGTneANLy/gm9d1qF0J+G7HEWy/QHs8SRICViQgQmxFmK6e1fU78XieFjzcTtdBGTgcaZVz380irWoINIOeolt5Lwx7B7js5JN3hf10mPIWUKiQFu+RF0UELYeWJASsRUCE2FokXTyfO0kpeGP1Lhy5HgVN8/bQNmiSZ4vTGzaFR7tuOHZBg4n/A6JinXdknE6L7IoHAOWDFBy5EYU9l2lfJ0lCwEoERIitBNKVs0mgGbfXV+3EqlOX4N2kJbQDyC5swj5JOpq8S+vVF5oO3bFyOzDiPQVRFHbS2VLoKQ2efkdBzwk6nLyoQ92g4qhJ+/hJEgLWIiDbEViLpIvmk67VqRNUS46HQVMlBCmPDKbt7Wl/exOTzssbum494XnzGlbvOIyJn2vw/VtalAh0bJ9c3lX6MNm2v1+g4M91WorQ5oE6JMDv9K2FIY2qw5O9RCQJASsRECG2EkhXzIYXMEwnL4EvNh+ErlRZ6IaPgc6f7s/NTNpC5AM2dBS8/p5PorYXN6OAuR8pqFDWMcV43zEFH/8C7DisQ+xdHZoGB+H1Do3RvEIQivn5mNl6OV0I5E1AhDhvRm57xgaKsfDl1oNI9Q+EZtizSC9u+Q7H2sJFkPb4cHh4emPzwV1o/VQ63h+noG0joFYVneqGXJCg42gFc+hpBdNoY9RF63XwIdNLgzIlMK5HPfSrUwUGHnoFWU0p20UJiBC7aMfmt1k8GTVh2VbcTfeAx+ARSC1fMb9ZQutXCLpBQ+FRvSZuLP8D4z6LQ8lABU/11OD953QoUrhgRsirt2rw1a86HDgFxCfq0KlqebzYvgEalysFfx/yXZMkBGxMQITYxoCdMXsO/fj80q2ISNXC84mnkFqrrtWawfZlbd0G8Ni7E9qwk0CKLyYvSEToWQWTX1NQp6oOHAnN1uluPLDvuILPZwKb9mtJcL3RtFxJvNiuITpVC7Z18ZK/EMhCQIQ4Cw55EZuQjHFLNyMs5g48u/dHWqPmVoXimZoKz/lzkBx2Cl1p5Pl+t+aYu/8UfqXhaLdxOkx4XIO3R2ttZqqgaJ1YuEaDX5ZocfCkjrZ4UjCgTlWMbVUX9WlD1EJe8pWwaodLZiYRkE+dSZjc46Tb5Cs8ZslmHLgeDc/WHZHWo2+W5cv5paCkJEO3aD5SToaifeWymDWwE/xpl48verZGw7Il8fXWQ3j/l7vYflCjrmSrG2I9U0VULE2+hSoU/0LBobNaddKtPW3z9NpDjdCUJuEkCYGCJCBCXJD0HahsdlP7vzW78F/YVXjUrI/0fo9ZV4TJA0Oz9C+kH9yNVuVLY/ojHVURZgQeGgXDmtRAm0pl8MnG/Vi+Lww9ngdeGkILQYZq4Z0PMy2PgOcsVfDzYuDoeR20aWSTpr32RjarjdpBxWhSzg52EAfqZ6mKYxIQIXbMfrFrrXjBxrsUTW3hkXPwLl+VYguPg87Hem5aPBLWLPsLut2b0bJ8EOYP7orihX0faGPVEgGY/XhnzN5XFpO3heKtH+JxkBZTfPS8FmTFMNlzgcNvXo9QsPsI8PF04AgJcKnCfuhVvSze7NgYtUiAJQkBRyIgQuxIvVFAdfls0wHMDz0Lz+Aq0I4Ya10RJlX0WLYIaXu2oTl5Icwa2DlHETZs+ohmtdC+Sjl8vGEf+R1fwu6jCiaNUfB0fxre5pHY5jtlnoJ5q3U4e1kHL40nnm9VG082roHqpYrKQow8+MnhgiEgQlww3B2i1CSKK/wlLdaYtusYNMGVgWfGI70YbXlkpcQjYRbh9F3/qR4J84d0Q6kifnnmriGn3eoli2IG2ZB/3HkUv9DuGKM+TMD6XRp8+oIOlcpltR3zCPhaBLBhl4KPfgYu3tKhrH8hDG4QrC7EqFjMP88y5QQhUJAERIgLkn4Blz11+2H8tPsYlHKVoRs5DlprijCpo+fyRUjdsxWNaSJuzqAuJomwIRK2377cvhG6Vq+At9l0sv469p1U8MFYBU/0yFgEEhmj4IcFwF8baAQcTr7I5B73Vsf6eLReVVSlKD0s6pKEgKMTECF29B6yQf1SKJTYtJ3H1KXLnsVLQTNiNNJKlrJeSTRD5rF5PdJ2bFJXp7FNuCxvdWFBYh1tQG5ly57uia82H8LMfScx8oMk8gHWoEIZHb6YTVHd7gAVivpjdPOKqnAHmTDqtqAqcokQsBkBEWKboXXcjOcdPIOvyFVMU4zElzb9TAsqY9XKely+iPQNq1Eh0B+/PNbJYhE2rBQH2Xm9YxP0qFkRb63Zje8W3lS3uC9dpBA+ebgBelPUdhZjGQAbUpPnzkJAhNhZespK9eQdNvg2P6UITVw9NQapFStbKeeMbDR3aXi6cA58UhIwqedDVg0X6Ulubo2DS+Hv4T3wE9u1abQ8ukVdFPUzPRqcVRsrmQkBKxEQIbYSSGfIJi4lFe/S7hIpigc0A4citUruO2xY0h4lJQXKonnQ3bpGo9emeITstLZIHP/hDXJDkyQEXIWABFV1lZ40oR2bzl3Frss3oITUgrZGbROuMO8Uzf7d0B4PRTtaNTeqRW2ZKDMPn5ztxgREiN2k82MohsR7a3cjVaHb+EcpuLvPgwsq8oPC88xJaFf8iTKFvPFdv/YIlLi9+cEp17oZARFiN+jwlHQtPqLFEZfvJkDp0QdaK0/OaWJjoF28EIW1aZjatz0qi9+uG3yqpInWJCBCbE2aDprXdPIV/uvoOWhKB0Pboq1Va6mQv7BC/sLaW1fBK+I6SAhJq/KVzNyDgEzWuXA/J6Sk4Zutofh2eyi5qpWEMmg4tBZsdZQrIvJHZn/h9EO70bFKMCZ1aQ4vD/ltz5WXHBACuRAQIc4FjLO/nUrmiNdW7cDiY+ehlKkIDH8G6cEVrNosn51bkLLuH9Vf+MvebUSErUpXMnMnAiLETtzbN8jm+8fhs1h6LAwXou+qQliDYjS0Ja+F0GuR2Bh2DZ7lab+1Uc9ZNYYE0tLgtX0zUmi7ozJFfPE1iTDHhpAkBISAZQREiC3jVuBXsQg/Pm8tjt+KRgDF0SlfWoN0bTpORNzC7vCbav00NRtAO3QktAHWE0m2CfuuXIykHZtRgZYtzxrUCc0otKUkISAELCcgQmw5uwK7Mo1iOUyibelPRUXh2f4aTH5Di0K+6Wp9KKAa5i5T8MpkHRJINHW+1nNT42hqXsv/JhHehOolimL2oM6oW8Z60doKDKgULAQKmIDMrBRwB1hSPI+G9125hZqVoIaFLGSgtbzhxLA+OnRtoUAXdhqa44ctKeKBazxSU6DhbY52b0F9El8OaSki/AAmeUMIWERAhNgibAV7UWxiCmITk1GzgoISgVlj83LNfGlzjS9fVhAUkArdX/Phce1qviqsJCTAY/bP0O3fgZblSuCvYT0QIjbhfDGVi4WAIQERYkMaTvI8ldzGUsgeXNyI6TekohbT3wH8cBeYPwOamGiLW+exejlSTh9RXdTmPt4FpSXMpMUs5UIhkBMBEeKcqDj4e57kq+tFYSETk4xXtNdDOozup4Fy/TKUZX9CiY8zfkH2o2Rj9tizA+nbN6JJmRKYS/vJlaGdLyQJASFgXQIyWWddnnbJrZCXJ/jvSkQqeHIut42I+f1PX9TC11fB17/vhyYxkQzIo5AeEGhSPTW3bkC3epnqovZt33aZuy6bdLGcJASEgMkEZERsMirHObEoGYH572aMDlGxxuvlRxN5747RYVRf2gX5HG2LNON7aK5fA2i0aywp5CusrFwC3InGhDYNUJ92yZAkBISAbQiIENuGq01zLUaRzXhzzPDrCnaF5t2FhcjPePKbOkwarYHnzQvAT9/Aa+tGsE9wbslj1zZojx3CgDpV8GzLOpCd33IjJe8LgfwTyPtbnP8yJAcrE2A/4sTUNMQl6TD8HS1WbFJ4sZvRxC5ub4/WYtpbGlQqHIu0ZQug+XkKlAu0BDotNcu1yu3bSN+6HkGFfSgAexN4S/yILHzkhRCwNgERYmsTtUN+t+IScY18ict4KPBPVzDiA2DW4rzN/TS/hxEDtFhHW84/3YtenD0G/EJiPP07eOzdCQ3tsMFJOXkEuqhbtBNyNYTQwg1JQkAI2JaACLFt+dok98iEJETRX89CClaUBoqR98TEL9Px/QIP0G5IeaZqFXSY/bEWO+YCvZskoETECWgXzgTefw2a32fCa81y+Ht64uV2DeHBG8NJEgJCwKYE8h5G2bR4ydwSAldj45BAits0QEFzLx3+DlLwWATwfz+kQ6vV4MVhWpOybVFPh0XfAOcuK/hvH7B4Qzz2HNmFpFQdBjQIQSnxFzaJo5wkBPJLQEbE+SVYANdfvh2nbiXfxCuj8CYkxksp6E85EuFXJ2sx+TcFScmmVcyHdk6qG6LDhCE6/DdLhz+/yPhI1CO/YUlCQAjYh4AIsX04W7WUm3EJan40IM5MjTzSsbqUDk19FLw7TYe3p9DNTu5OEZnXZX9yMzpjNM1eGZKEgBCwDwERYvtwtmop6dqcFba6pw4rKSJlQ0XB1D/T8MLnHkigNRzmpAsUlsKTZvWCKcSlJCEgBOxDQITYPpytWkqJe+HWknMY8gZpyGZcCmjhq8Evy9Lx2jeavNZuZKlbWDhQxNsLRdhmIUkICAG7EBAhtgtm6xbCsYA1NOrdmGxgmzAooryHDqtoZNzCywMzlmjx3CcK7sTlfK7BZarHRXiEDv4+Xuqf4TF5LgSEgO0IiBDbjq3Ncq5eKhA8Kl4eD8TlbKVAcUWLZSW16E0ubnP+0WHEOxokJRkX45g7QDT9Bfh6q382a4BkLASEQBYCIsRZcDjHi8rF/NG6QhnsSdZhapwHYnLxVitBZoplJXXoRRN4/2xPx+OvKbhwVcEV2knp8nXQc+A8mSLYfe30RQWHTipq7IpiFMfCn8wTkoSAELAPAfEjtg9nq5biQ2HVPu/VChdoCPv+rSgsjVfQn+bW+tAy5gakn2QVziwvhaJEjAvQYE+KDmt2a3FinAJeYUebPJPPcdY/XgxCe5CiX0ggRXST3+hMiPJECNiYgAixjQHbKvty5NWwaFh3de+6bRev4YOYRLxHQXzY+BBIS58L04q4qDQdEtXAPunq+4VplKtL9EMRMj1QlGISZPqjc9nezCvoPOjRv6wXxrWqZ6tqS75CQAjkQECEOAcozvJWafL1/fGRh3Ap5i5O34rFXtq9+UzUbUTT8mctCXAVGjmX9S+MSmTKqFe6OCrSYxCtlmMbMIsvizY/3v+jOBP0WpIQEAL2JSBCbF/eVi+NfX6rkRcF//WqXcnq+UuGQkAI2J6AGAJtz1hKEAJCQAgYJSBCbBSPHBQCQkAI2J6ACLHtGUsJQkAICAGjBESIjeKRg0JACAgB2xMQIbY9YylBCAgBIWCUgAixUTxyUAgIASFgewIixLZnLCUIASEgBIwSECE2ikcOCgEhIARsT0CE2PaMpQQhIASEgFECIsRG8chBISAEhIDtCYgQ256xlCAEhIAQMEpAhNgoHjkoBISAELA9ARFi2zOWEoSAEBACRgmIEBvFIweFgBAQArYnIEJse8ZSghAQAkLAKAERYqN45KAQEAJCwPYERIhtz1hKEAJCQAgYJSBCbBSPHBQCQkAI2J6ACLHtGUsJQkAICAGjBESIjeKRg0JACAgB2xMQIbY9YylBCAgBIWCUgAixUTxyUAgIASFgewIixLZnLCUIASEgBIwSECE2ikcOCgEhIARsT0CE2PaMpQQhIASEgFECIsRG8chBISAEhIDtCYgQ256xlCAEhIAQMErAPYRYUYxCkINCQAg4OQEn/467hRBrChV28k+ZVF8ICAFjBJz9O+4WQuxRoqSxPpRjQkAIODkBZ/+Ou4UQe5Wv4OQfM6m+EBACxgg4+3fcLYTYu1p1aAoXMdaPckwICAEnJcDfbf6OO3NyCyHmDvJt2NiZ+0nqLgSEQC4EXOG77TZCzL+YPrXq5NKV8rYQEALOSIC/084+GmbubiPE3Fi/5q1EjBmEJCHgAgRYhPk77QrJ0xUaYU4buOM8ipdA0uFD0MbHmXOpnCsEhIADEGCbMJsjXGEkrMfpdkLMDecO5L+U82eReiUc6VGR0CbEAzqdnos8CgEh4CgEaLEG+wmzixp7R7iSAOsRu6UQ6xuvF2T9a3kUAkJACBQEAbeyERcEYClTCAgBIZAXARHivAjJcSEgBISAjQmIENsYsGQvBISAEMiLgAhxXoTkuBAQAkLAxgREiG0MWLIXAkJACORFQIQ4L0JyXAgIASFgYwIixDYGLNkLASEgBPIiIEKcFyE5LgSEgBCwMQERYhsDluyFgBAQAnkRECHOi5AcFwJCQAjYmIAIsY0BS/ZCQAgIgbwIiBDnRUiOCwEhIARsTECE2MaAJXshIASEQF4ERIjzIiTHhYAQEAI2JiBCbGPAkr0QEAJCIC8CIsR5EZLjQkAICAEbExAhtjFgyV4ICAEhkBcBEeK8CMlxISAEhICNCYgQ2xiwZC8EhIAQyIuAQ+9Zl3LhPFLOnkZaZASQnp5XW+S4EBACQiArAQ8PeJYsBe/qNeFdpVrWYw70ymGFOPHAXiSfOOZAqKQqQkAIOB0BGsCl3byh/qVHR8GvaQuHbIJDmiZ4JCwi7JCfF6mUEHBaAqwprC2OmBxTiMkcIUkICAEhYG0CbOp0xOSQQqzahB2RltRJCAgBpybgqNrikEIsE3NO/VmXygsBxyXgoJP+jinEjtuNUjMhIASEgNUJiBBbHalkKASEgBAwj4AIsXm85GwhIASEgNUJiBBbHalkKASEgBAwj4AIsXm85GwhIASEgNUJiBBbHalkKASEgBAwj4AIsXm85GwhIASEgNUJiBBbHalkKASEgBAwj4DDBv0xrxlythAQAuYSOBjngdMJGlxNUXAnTYHW3AzsfD6PGgM8dQj21qFmIS2aFHGdiIwixHb+MElxQqCgCbAAb4r1QCyJrzMl/qHgOvPfcfoB4TZ0Dkx3CUEWIXamT6LUVQjkk8DKaE/svuOh5lKhQgU0atQIVatWRbFixaDROLalUqvVIiYmBmFhYQgNDUV4eDiWRHriGo3o+xRPyyeZgr1chLhg+UvpQsBuBAxFuG/fvmjevLndyrZGQfxDUaJECfWP675v3z78888/WHnkPI4piXirQy1rFFMgeYgQFwh2KVQI2JcAmyP0I+GuXbs6nQjnRIvFmMX52WefxS46oXZQAPrXLpfTqQ7/nmPfizg8PqmgEHAOAmxP5cQj4Yceesg5Km1CLZs2bYp33nlHPfOnPedMuMIxTxEhdsx+kVoJAasR4NEwT3CxTdjZzBGmQBg4cCAaNGiA63eTsPzkNVMucbhzRIgdrkukQkLAugTYRY0TT8y5auKRPqetF2ijYSdMIsRO2GlSZSFgDgH2E+bE3hGumvQj/eO3bjtlE0WInbLbpNJCwHQCvFiDE7uouWoqX7682rRbcclO2UQRYqfsNqm0EDCdgH7FnKP7CZveogfP9PDImIxM1+kePOgE77id+9qyIxdwKfpurl3j46FBkL8fShT2Q+MKJRHg653ruXkd+GnbMfx96Dx61KmIlzs3hKeDO8zr27P34k3M3n0SAxtVQ9daFfRvZ3nU0gd+xdGL2HL2Km7dTUTH6sFqOysUK5LlPP0LW5+vL8cej2duxeJ/6w8hISUVr3dtjCYVStmjWCnDhQm4nRDz6pw1xy9hD4mNYSpVxA/tQ8rh9M0YHL8enXnoyWY18Fm/VijqZ54g7798C2+v2K3mczA8AvXKFkfPupUy83W0J8lp6VhOP1LTth7D4auRavXaV8vZJzMpNQ0TF21Tf2QGNKiCvvUr47k/tuCjNfuw6rk+aBBcIkvzbH1+lsLs8OKdf/Zgw6lwtaTwmDhsf+VRO5QqRbgyAbczTTxKozwWCxZew/RGt8aYNbST+qUa3bZO5qEF+89g2K/rkZKuv8HLPGT0yZ2k1CzHs7/OcrAAX8QkJONLGt2FfDAPYxduzhRhY1V6d+VeVYT5nK8ebYvBTauDf7DiklPR+6eVuBB1J8vltj4/S2F2eBFBdwD6xHdX6VrnvB3Wt0EeC56A2wkxI/fQKKhZOjAL/ULe928OHm8SkuXY9vPXceRKxigxywEjL9pVK4tONYLVM/jWtXudnG/xjWRhl0MXSUgIB/5+tge4znmlyzF3MWvnCfW0yiX8UbKwr/q8WcWM23MWYzbJ6JOtz9eXY8/H17o2QhEfL7XIT/u2Uj9P9ixfynI9AvfVx/XaZrRFXmQLzi3VJTNC9nSMzBXNKgVlfzvX196U/5LRPREVn0T25gyxyvXkAjzQuHxJ8B+nXmQ64R8dY+nbTYczD5f2L5T5vKTBHcaMHSfwZrcmarttfX5mBez4pE+9yuj2QQV1JGz4A27HKti9qHfffRfXrt1fLFGkSBG0a9cOgwYNgqJkeGV89dVXKFmyJEaOHJmlfsuXL8fOnTvx+uuv480330T79u0xYsSILOecO3cOn332GQYPHoyHH344yzF3eOG2Qmysc/28HsSSSqaJtScvZ7msQmAR1C5THAfCb2HdyXBUL1VUtZdev5MAntAxTA2DS6JMwH3h4mPRZBbYfeEGjl2LRhrZrltVKYPWVUoje/lsY91y7hqOXI0Cf+R5YqwRTSRmn/xjO+9KmkDjUS6bC4IDCxtWIc/n+lGesRN58lGf/A0mMv28Mmat9cc2nLqCJ5qGZJow+H1bnK8vL7dHZrKLGLPdnycVG9KPzkM0F6AfyRted4rmB/ZevAV+5AnbBtRnfJfAP6r6xLZhw5n5wt5e6jm3E1Ow++IN/WnqY9USAahSMgAHLkdgM01qBtGPFc8TZP8c8ETmvycu4+i1KHB9Q+hzVIc+V1zWSw4yybtp0yb4+PioIpqSkqKK8nPPPYeTJ0/i/fffV9u7ZcsWVK9ePQsDfnH69Gls2LAB//vf/1C2bFm8+uqr6gq/unXrquemp6fjhRdeQGxsrEstv34AhJE3HlQcIye7yyEexWZPjegL/PY/u7H/0q3MQ0+3rEVBRxTM2XUy871P41qhRlBRTPxrGyLi7tsS2f7M9ml92nTmKp7+bYNqVx3bri7ORdzGVxsOqYfnPd0NvetlTOydvBGDkfM20iRiLPrVr6JOGnb7YYU6U79sTC8St4xbZL7ww9X7Ms0CU/47jLPvD4VvDj8q+jqY+xhPZgc2PeiTr+d98fXJVg7bTm19vr4euT2GRd7BqHmbVLs3e64E0w/nM/Sa00udGuL9XhnRx/hH9kti/zX98Y/RiFa1VGFknnwXxH1XsZi/et10Gu3rJ+r4DTbPHHrrCcQmJuPztQez2NifaVMHF8levvH0FfVa/vfKkh146+Em6h0Dv+ayh8xZp57DAtyafoz5jkLP+fkO9R/4weXrCiJ16tQJkyZNyiz666+/xvfffw8eLevdxzIP5vKE40KsWbMGEyZMwPr16+Hp6Ym5c+diz549+O+//+Dr67h3j7k0ySpv3/+pt0p2rpHJ9O3HszSER1DN6Qu5nITPMP2651QWEeZjm85cUV2+Pu3b0vDULM/5i/nYjDXql21k69r4on9rvEFuUPr08uLtYHfIuzTh13/6alWEyxUtjFnDOmHqoPZg0wl7YvAkIo+k9clwtMpf5N3ZPEP051n6ePV2vMmXhpMt2dbnG6vMTbor6TBlqSqMLHC/PdWVOLfKvET9oaIfP07vrdyjijA/n9SzOT7u0xILRmbcHvMPb9epK9S+4OOLnukO7ovsqVJxfywd0zPL22xL535gwTe82/hi3UFyfcuIn/sbfYb0Qv3PuN5q/56hH9CWlUtnycsRX8THx6umCFNFmNvg5+eHadOm4ciRI5g5c6YaU/iNN97Ae++9p8aLcMR22qNOMiK+R5lvpSPikujW9CZWk3ubPj3SsComP9ZWfcn2QP5C6Ucr/Ob6Cf3At5Yv/L1NFcwnm2XcmpXJ4cvK5/Ot52tLd/BTNXUgkedUmW5j9SmRTBHpOi0mbwrNHFXzLbLeFMGTf3yrvfWeuULvx8qjvt/3ntZng6YVTLdpZ15k5MlNA28BI6eph9g8Y+vzjdXhQ3Kl0/cTT5rq5wR4kpbvLjilUl+wq57hDy8z5FS8kI86OmWzBt/ZfLnhoCrQfIxF91oOP0rF6BrDxD+Yy8f2gg/dOfBn581lHKwxI12JjaM7p0DsCLtvzviHzErsscOmqc/px7nzd8v0pzvEI9t6ORg7mxIuX76MQ4cOYdWqVWbXrWXLlhg/frwaNW3lypVo1qyZOkI2OyMXukCE+F5nsk2XbxP5Vn4UjVJZ3FqRvbZayaK5djePjPQTeOxLGp+clqe/MdsKL0bdX1DCdmVObJP8hEbRPDoa166eKrprTtz/QeAvuX4UZWhDZjHWC/GHvVugGuXHZoGnWtTMYrbItRFmHEg3GH3ndRnX19bn51YHNhMs3H8283Ct0veX9n7WrzW+pR+4h2tXRB0SSjY/GKayRe/b8XkkzULMae7uU/iod0uamDI82/hzFloWYU5BBhOb/PpOUgo/wFC831i2U72j+r+Hm6oTqGzyMOxr9YIC/Fe4cGGULl1aFWKeoGMh/uGHH9C4cWPVfpxb1XR8e5ctvf3221i9ejV27dqF/fv3qyaKbKe41UsR4nvdPf6heqovrDm9X7vM/S84j1ZNWfRx6t5oTF9OkMEE3vMP1Qf/cWKTg37kxq951GY4cuP3OJ01CHLCX+oXOzbIOGCD/9l9r40VwSvsbH1+buWfM2DC5xh6d3Sm0TH/6RN7wxgm/V0Hv2foEcGj6xt34lE2lzsdwzzMec6LYWYbzDHwpB3/8fzDB70zbNjm5GfLczmgvKGN+MUXXwTbjXmSjj0dgoKCcOvW/TkUfV14eyP2pjBMbKLg/A4cOIAqVaoYHnLL5yLEdu727Muro8gcktMMflJq1h1q2U49fUjHB2prKBYPHLTyG9lFyNA+rc22qIE9Smx9fm7NY99lw2Q4aWr4Pj83XJyR/Zh+NKt//xaZKLK3SX/M0scOIcHqyk39Kkx9Pjz/sOXcVex45bEsPwj6447wWLlyZbUaV69eVR9r1KiBRYsWIS0tLcsIl+3BISEhjlBlh62DTNbZuWtYoAzT8etRhi8zn7Mt2nCCh70q2O0p+19+YmFkFmbiE7abGk4i6U0lfHkq2Q0NUwjdltv6fMPyDJ+zd4RhOkJuYbmlKuT1kFtiW71hYtuwtRObOp5rXw8bX+ifaebSl8EmrEWHHGfXiUuXLmHHjh3Yvn07/v33X4wePVqtaocOHdTHzp074+LFi5g4cSL27t2rTsh98sknqkdE//799c2SxxwIiBDnAMWWb2Vf0ffrnvuTa9nLZRujPvHkUHbfZBaKq7H3PRl44om9LGp8OB8z761+019vymMOprwHLhvY+L4LHvvO6tMdunXXJ25j26pl1Je2Pl9fpuEj23YNE7sX6ifuDN/n5/XKZY2LwZOp+qS34/Jrng8I9Ms6Gac/Lz+PI3/fqPoYs52fJ37Z84Jd4vSJf4AdJS1btgz9+vUDi+rYsWNVv9+FCxdmxjlu0aIFZs+erZobevbsqZot2A48ZcqUXBdpmONx4SgcbFEPtxViQxFhsLl9UY1BN/zSZj8v+0SVPh5Bl5rls3zReLKN/Ub1iRdvjF7wHw7RkmpDEePjL1CgHf0o9AZ5JTzyyxp8QxNP+sQTT5wf34q/vnQnOCCNOSk6Iav/tKEQ6fN5jHyh9e5bLPz6doUZCAa74mnuzWrZ+nx9vQwfeSUjx74wTBP/2prF1Y/d19g2O5wmNQ3vPC7TRKc+nbqR4V3Br9/u3lT/NlINJi1T0u67D2b/ITOcpGLPmizp3kv2LPmVJgL1iRfr/PRExgiT37PFKFxfljmPvDIuKioq849Hx2vXrn1AYFmkeTR8/vx5XLhwQV1RN3z48ByL4gUenIckwO2EmD0jeDEF++EapiWhYTgfaXz0wSuuDAU7lMQyN7Hbcvb+clAuJ/ReRDO2O377WDvDosGz5T1+/EddfFCdRrMstvXLFVddmXhFnj5xxLjgd+ai45RlqP3xAnURwSfk86pP2YPtXM/BxUp/bvZHFvY/Dtz3NODj7MbHvsyGiScEF4zslvkWexWwGP95MOMWmsNm9qOIbPpk6/P15WR/ZN9dw8lCDn/a+uvFGPfHZjT+4k+wDbY3rXJjb5WvHmmTefmce6LIdx/6KHRsn+eVipx4sY/hoh6+U+EVe5z2Xcoa0Y8nAvU/1tljlRy8cv/zx3XjH1HuA06X7/2A8g8EL+JxxhQYGIiAgPsumc7YBnvWWWnTqlW2n2rzi9+xbLL5Fxm5Ivb32UaO5u8Qr2LiWencEjvzT6DVTNnTWRrxtfhyUfa31de8yIJHVvrEI1wW1+yJv/DP0morTvxD8Mz8TVlc2fh9jtHwUqcGmSvieOT+weq9qvsUH9cnXj78v/5tsnhqsIsVLwbhxLbcNeP75uludYDqMWT2ukx/ZX3+ho/61WOG73Eo0TELN6tvsd2ab6F5pp/bqPfZtef5hmXpn7NAjv9zS+aCCf377BvOoU0NlxrzncSz8/9TObBpg0WRf3R5BR6PhvVtKvb6TH02WR63vPSIuoAky5v0gkWcQ4XyirrsiSdfuc/4zoMncbk8/vHgOxp+nDO8M5l48g7ElD3f7K/fvZhhUvnoo4+yH3Kp1+xGx+nwxIzFOLk1LnD4qNwOWfR+2wGvWHSd4UVuJ8SGjS/o53y3yl9AHn0FUrzjWuQOl9vkG4er5EUcvKy4Lo2Wc/Mv5VEw242bVgzKU4Tz2362UZ+gJdhsTmlEI/fCNIIzlmx9fm5ls7AxO07sU2wowIbXsPmAJ8jORsSqQsjuiblxNrwuP895ARH7M/tSrI4T12PUHwA2/YSUCsj8Mc5P/nytCHFWgo4oxOK+lrWP7PqKzag82jScnMmtAnyLb0qYSnavsraLVW51YpFqSpNMpiZbn59bPXh0ybbXvBLbtatSkB7+s1dqYbCUmQPqZw+qb696SDkFS8DtbMQFi1tKFwL2J6D/kvPuNK6aeNk1J497k8TO1k59HzlbvaW+QkAImEggwDNjGohXuLlqunLlitq0oCLWdzG0BzMRYntQljKEQAESCPbOEOKwsLACrIVti963LyNmSF0KQeuMSYTYGXtN6iwEzCBQs1CGSSI09L7PuRmXO8Wp//zzj1rPh6qYPmfhSA0TIXak3pC6CAEbEGhSJB2BZJ7gEJb6kaMNiimwLP/++291OXVZf1/0r50RVrbAKmNhwSLEFoKTy4SAMxHoHJgxmcUjR1caGc+aNQuffvqp2hXPtXTewEIixM70bZK6CgELCfCouFVAOryS49TNPXkU6eyJ28DxkDkNaVDRaUfDXH/xI2YKkoSAGxDoUzwNx46eV1vKo0geHfft21fdyLN8+fIm7ztXUKjYRY29I9i8wnXn8JqcWITf6lCroKpllXJFiK2CUTIRAs5BgAWrdlAAftpzThUyvZg5R+2z1pJtwmyOcFa7sGFrRIgNachzIeAGBFi4+G/5yWvYeiECx2lHk1txybRPYr7DztiUHi/WYD9hdlFj7whXEGA9MBFiPQl5FAJuRkAvyG7WbIdsrkzWOWS3SKWEgBBwJwIixO7U29JWISAEHJKACLFDdotUSggIAXciIELsTr0tbRUCQsAhCYgQO2S3SKWEgBBwJwIixO7U29JWISAEHJKACLFDdotUSggIAXciIELsTr0tbRUCQsAhCTimEHt4OCQsqZQQEAJOTsBBtcUhhdizpHMGd3byj6hUXwi4PAFH1RaHFGLv6jVd/gMhDRQCQsD+BBxVWxxTiKtUg0+devbvJSlRCAgBlyXAmuJN2uKIyWGD/vg1bQGP4iWQcvY00iIjgHvbZTsiRKmTEBACDkqAbMJsjuCRsKOKMJNzWCHmyjE4R4bHdZQkBISAEMgvAYc0TeS3UXK9EBACQsCZCIgQO1NvSV2FgBBwSQIixC7ZrdIoISAEnImACLEz9ZbUVQgIAZckIELskt0qjRICQsCZCIgQO1NvSV2FgBBwSQIixC7ZrdIoISAEnImACLEz9ZbUVQgIAZckIELskt0qjRICQsCZCIgQO1NvSV2FgBBwSQIixC7ZrdIoISAEnImACLEz9ZbUVQgIAZckIELskt0qjRICQsCZCIgQO1NvSV2FgBBwSQJWEeLU1DSXhCONEgJCQAgYI2At7bOKEB8/c8lYXeWYEBACQsAlCVhL+6wixMvW7nJJyNIoISAEhIAxAtbSPqsI8fqtB7Fw+WZj9ZVjQkAICAGXIsCax9pnjeRRoXz5D6yR0d7Q0wi/FoHAgMIoUSwAHh5W0XhrVE3yEAJCQAhYhQDbhI+euoCf563GH1YcfCptWrXSWaWGkokQEAJCQAhYRECGrRZhk4uEgBAQAtYjIEJsPZaSkxAQAkLAIgIixBZhk4uEgBAQAtYjIEJsPZaSkxAQAkLAIgIixBZhk4uEgBAQAtYjIEJsPZaSkxAQAkLAIgIixBZhk4uEgBAQAtYjIEJsPZaSkxAQAkLAIgIixBZhk4uEgBAQAtYjIEJsPZaSkxAQAkLAIgIixBZhk4uEgBAQAtYjIEJsPZaSkxAQAkLAIgIixBZhk4uEgBAQAtYjIEJsPZaSkxAQAkLAIgIixBZhk4uEgBAQAtYjIEJsPZaSkxAQAkLAIgIixBZhk4uEgBAQAtYjIEJsPZaSkxAQAkLAIgL/D9maiMTzlKN2AAAAAElFTkSuQmCC;" vertex="1" parent="1">
          <mxGeometry x="970" y="40" width="314.03" height="660" as="geometry" />
        </mxCell>
        <mxCell id="9UIbFYWhF634vm1xN3ZN-7" value="" style="endArrow=classic;html=1;rounded=0;exitX=0.997;exitY=0.543;exitDx=0;exitDy=0;exitPerimeter=0;strokeWidth=3;" edge="1" parent="1" source="9UIbFYWhF634vm1xN3ZN-4" target="9UIbFYWhF634vm1xN3ZN-6">
          <mxGeometry width="50" height="50" relative="1" as="geometry">
            <mxPoint x="700" y="440" as="sourcePoint" />
            <mxPoint x="750" y="390" as="targetPoint" />
          </mxGeometry>
        </mxCell>
      </root>
    </mxGraphModel>
  </diagram>
</mxfile>
